STARTFONT 2.1
COMMENT
COMMENT Converted from OpenType font "Q:\font stuff\winfont\BerlinerGroteskBQ-Light.otf" by "otf2bdf 3.0".
COMMENT
FONT -FreeType-Berliner Grotesk BQ-Medium-R-Normal--96-960-72-72-P-385-ISO10646-1
SIZE 96 72 72
FONTBOUNDINGBOX 100 113 -9 -24
STARTPROPERTIES 19
FOUNDRY "FreeType"
FAMILY_NAME "Berliner Grotesk BQ"
WEIGHT_NAME "Medium"
SLANT "R"
SETWIDTH_NAME "Normal"
ADD_STYLE_NAME ""
PIXEL_SIZE 70
POINT_SIZE 960
RESOLUTION_X 72
RESOLUTION_Y 72
SPACING "P"
AVERAGE_WIDTH 385
CHARSET_REGISTRY "ISO10646"
CHARSET_ENCODING "1"
FONT_ASCENT 87
FONT_DESCENT 20
COPYRIGHT "(c) COPYRIGHT H. BERTHOLD AG 1992 Alle Rechte vorbehalten."
_OTF_FONTFILE "Q:\font stuff\winfont\BerlinerGroteskBQ-Light.otf"
_OTF_PSNAME "BerlinerGroteskBQ-Light"
ENDPROPERTIES
CHARS 182
STARTCHAR 0020
ENCODING 32
SWIDTH 270 0
DWIDTH 26 0
BBX 0 0 0 0
BITMAP
ENDCHAR
STARTCHAR 0021
ENCODING 33
SWIDTH 250 0
DWIDTH 24 0
BBX 9 69 10 1
BITMAP
3E00
7F00
FF80
FF80
FF80
FF80
FF80
FF80
FF80
FF80
FF80
FF80
FF80
FF80
FF80
FF80
FF80
FF80
FF80
FF80
FF80
FF80
FF80
FF80
FF80
FF80
FF80
FF80
FF80
FF80
FF80
FF80
FF80
FF80
FF80
FF80
FF80
FF80
FF80
FF80
FF80
FF80
FF80
FF80
FF80
FF80
FF80
FF80
7F80
1F80
1F80
0F80
0F00
0000
0000
0000
0000
7E00
7F00
FF00
FF80
FF80
FF80
FF80
FF80
FF80
FF00
FF00
3E00
ENDCHAR
STARTCHAR 0024
ENCODING 36
SWIDTH 458 0
DWIDTH 44 0
BBX 37 84 5 -7
BITMAP
0001E00000
0001F00000
0003F00000
0003F00000
0003F00000
0003F00000
0003F00000
0003F00000
0007F80000
003FFF8000
00FFFFF800
01FFFFFC00
07FFFFFE00
0FFFFFFF00
1FFFFFFF00
1FFFFFFF00
3FFFFFFF00
7FFBFBFE00
7FE3F1FE00
7FC3F07C00
FFC3F00000
FF83F00000
FF83F00000
FF83F00000
FF83F00000
FF83F00000
FF83F00000
FFC3F00000
7FE3F00000
7FF3F00000
7FFBF00000
3FFFF00000
3FFFF00000
1FFFF00000
0FFFF00000
07FFF00000
03FFF80000
01FFFC0000
00FFFE0000
007FFF8000
001FFFC000
000FFFE000
0007FFF000
0003FFF800
0003FFFC00
0003FFFE00
0003FFFF00
0003FFFF80
0003FFFFC0
0003F7FFC0
0003F3FFE0
0003F1FFE0
0003F0FFF0
0003F07FF0
0003F03FF0
0003F01FF8
0003F00FF8
0003F00FF8
0003F00FF8
0003F00FF8
0003F00FF8
0003F00FF0
3003F01FF0
7C03F01FF0
FE03F03FF0
FF03F03FE0
FF83F0FFE0
FFC7FBFFC0
FFFFFFFFC0
FFFFFFFF80
FFFFFFFF00
7FFFFFFE00
7FFFFFFC00
3FFFFFF000
1FFFFFC000
07FFFE0000
0003F00000
0003F00000
0003F00000
0003F00000
0003F00000
0003F00000
0001F00000
0000E00000
ENDCHAR
STARTCHAR 0025
ENCODING 37
SWIDTH 875 0
DWIDTH 84 0
BBX 78 68 3 -1
BITMAP
007FC000000070000000
03FFF8000000F8000000
07FFFC000001F8000000
0FFFFE000001F8000000
1FFFFF000003F8000000
3FFFFF800003F8000000
7FF81FC00003F0000000
7FE00FE00007F0000000
FF8003E00007F0000000
FF8003F00007E0000000
FF0001F0000FE0000000
FF0001F0000FC0000000
FE0000F8000FC0000000
FE0000F8001F80000000
FE0000FC001F80000000
FC0000FC003F00000000
FC0000FC003F00000000
FC0000FC007E00000000
FC0000FC007E00000000
FC0000FC007C00000000
FC0000FC00FC00000000
FC0000FC00FC00000000
FC0000FC00F800000000
FC0000FC01F800000000
FC0000FC01F000000000
FC0000FC03F0003FC000
7C0000FC03F001FFF800
7C0000FC03F007FFFC00
7C0000FC07E00FFFFE00
7E0000F807E01FFFFF00
7E0000F80FC03FFFFF80
7F0000F80FC07FF07FC0
3F0000F01F807FC01FE0
3F8000F01F807F000FE0
3FC001E01F807E0007F0
1FE001E03F00FE0003F0
1FF807C03F00FC0003F0
0FFFFFC07E01FC0001F8
07FFFF807E01F80001F8
03FFFF00FE01F80001FC
01FFFE00FC01F80001FC
007FFC00FC01F80000FC
000FE001FC01F80000FC
00000001F801F80000FC
00000003F801F80000FC
00000003F001F80000FC
00000003F001F80000FC
00000007F001F80000FC
00000007E001F80000FC
00000007E001F80000FC
00000007C001F80000FC
0000000FC001F80000FC
0000000F8001F80000FC
0000000F8001F80000FC
0000001F8001FC0000F8
0000001F0001FC0000F8
0000001F0001FE0000F8
0000003E0000FE0000F0
0000003E0000FF0001F0
0000003E0000FF8003E0
0000007C00007FC007E0
0000007C00003FF83FC0
000000FC00003FFFFFC0
000000FC00001FFFFF80
000000FC000007FFFF00
000000F8000003FFFE00
000000F8000000FFF800
000000700000001FE000
ENDCHAR
STARTCHAR 0026
ENCODING 38
SWIDTH 520 0
DWIDTH 50 0
BBX 46 56 1 0
BITMAP
00003FC00000
0000FFE00000
0003FFF80000
000FFFFC0000
000FFFFE0000
001FFFFE0000
001FFFFF0000
003FFFFF8000
003FE1FF8000
007FC0FF8000
007FC0FF8000
007F807F8000
007F807F8000
007F807F8000
007F807F8000
007F80FF8000
007FC0FF0000
003FC1FF0000
003FE1FF03F0
003FE7FE07F8
001FFFFE07FC
001FFFFC07FC
000FFFF80FFC
000FFFF00FFC
001FFFE00FFC
003FFFC00FFC
007FFF800FFC
00FFFF000FFC
01FFFF800FF8
07FFFF800FF8
0FFFFFC00FF8
0FFEFFE00FF0
1FFC7FF01FF0
3FF03FF81FE0
3FF01FFC3FE0
7FE01FFC3FE0
7FC00FFE7FC0
7F8007FFFFC0
7F8003FFFF80
7F8001FFFF80
FF8001FFFF00
FF8000FFFE00
FF8000FFFC00
7F80007FFC00
7F80007FF800
7F8001FFF800
7FC003FFFC00
7FF00FFFFE00
3FFFFFFFFFC0
3FFFFFFFFFF8
1FFFFFFFFFFC
0FFFFFFC7FFC
07FFFFF01FFC
01FFFFE007FC
007FFF8003FC
000FFE0000FC
ENDCHAR
STARTCHAR 0028
ENCODING 40
SWIDTH 354 0
DWIDTH 34 0
BBX 26 79 8 -11
BITMAP
00003E00
00007F00
0000FF80
0001FF80
0003FF80
0007FF80
000FFF80
001FFF00
001FFE00
003FFC00
007FF000
007FE000
00FFC000
00FF8000
01FF0000
01FF0000
03FE0000
07FE0000
07FC0000
0FFC0000
0FF80000
1FF80000
1FF00000
1FF00000
3FE00000
3FE00000
3FE00000
7FE00000
7FC00000
7FC00000
FFC00000
FF800000
FF800000
FF800000
FF800000
FF800000
FF800000
FF800000
FF800000
FF800000
FF800000
FF800000
FF800000
FF800000
FF800000
FF800000
FF800000
FF800000
7F800000
7FC00000
7FC00000
3FC00000
3FE00000
3FE00000
3FE00000
1FF00000
1FF00000
0FF80000
0FF80000
0FFC0000
07FC0000
03FE0000
03FE0000
01FF0000
01FF0000
00FF8000
00FFC000
007FE000
007FF000
003FFC00
001FFE00
001FFF00
000FFF80
0007FFC0
0003FFC0
0001FFC0
0000FFC0
00007F80
00003E00
ENDCHAR
STARTCHAR 0029
ENCODING 41
SWIDTH 354 0
DWIDTH 34 0
BBX 24 79 2 -11
BITMAP
3E0000
7F8000
FFC000
FFC000
FFE000
FFF800
7FF800
3FFC00
1FFE00
0FFF00
03FF00
01FF80
00FF80
007FC0
007FE0
003FE0
003FF0
001FF0
000FF8
000FF8
0007FC
0007FC
0007FC
0003FE
0003FE
0001FF
0001FF
0001FF
0001FF
0001FF
0001FF
0001FF
0001FF
0001FF
0001FF
0001FF
0001FF
0001FF
0001FF
0001FF
0001FF
0001FF
0001FF
0001FF
0001FF
0001FF
0001FF
0001FF
0001FF
0001FE
0003FE
0003FE
0003FE
0003FE
0003FC
0003FC
0007FC
0007F8
0007F8
000FF0
000FF0
001FF0
001FE0
003FC0
007FC0
007F80
00FF80
01FF00
07FF00
0FFE00
3FFC00
3FFC00
7FF800
7FF000
7FE000
7FE000
7FC000
3F8000
1F0000
ENDCHAR
STARTCHAR 002A
ENCODING 42
SWIDTH 354 0
DWIDTH 34 0
BBX 27 28 5 39
BITMAP
00180000
003E0000
007F0000
007F0000
007F0000
007F0000
007F0000
007F0000
3FFFFF80
7FFFFFE0
FFFFFFE0
FFFFFFE0
FFFFFFE0
FFFFFFC0
7FFFFF00
7FFFF800
007FE000
007FF000
00FFF000
01FFF800
03F9FC00
07F9FE00
07F0FE00
0FF0FF00
0FE07F00
07E07E00
07E03E00
01C01800
ENDCHAR
STARTCHAR 002B
ENCODING 43
SWIDTH 666 0
DWIDTH 64 0
BBX 56 56 4 0
BITMAP
000000FF000000
000000FF000000
000000FF000000
000000FF000000
000000FF000000
000000FF000000
000000FF000000
000000FF000000
000000FF000000
000000FF000000
000000FF000000
000000FF000000
000000FF000000
000000FF000000
000000FF000000
000000FF000000
000000FF000000
000000FF000000
000000FF000000
000000FF000000
000000FF000000
000000FF000000
000000FF000000
000000FF000000
FFFFFFFFFFFFFF
FFFFFFFFFFFFFF
FFFFFFFFFFFFFF
FFFFFFFFFFFFFF
FFFFFFFFFFFFFF
FFFFFFFFFFFFFF
FFFFFFFFFFFFFF
FFFFFFFFFFFFFF
000000FF000000
000000FF000000
000000FF000000
000000FF000000
000000FF000000
000000FF000000
000000FF000000
000000FF000000
000000FF000000
000000FF000000
000000FF000000
000000FF000000
000000FF000000
000000FF000000
000000FF000000
000000FF000000
000000FF000000
000000FF000000
000000FF000000
000000FF000000
000000FF000000
000000FF000000
000000FF000000
000000FF000000
ENDCHAR
STARTCHAR 002C
ENCODING 44
SWIDTH 208 0
DWIDTH 20 0
BBX 11 23 5 -10
BITMAP
1F00
7FC0
FFC0
FFE0
FFE0
FFE0
FFE0
FFE0
FFE0
FFC0
FFC0
FFC0
FFC0
FF80
FF80
FF00
FF00
FF00
FE00
FC00
FC00
FC00
7800
ENDCHAR
STARTCHAR 002D
ENCODING 45
SWIDTH 312 0
DWIDTH 30 0
BBX 25 8 2 29
BITMAP
1FFFFE00
7FFFFF80
7FFFFF80
FFFFFF80
FFFFFF80
7FFFFF80
7FFFFF80
1FFFFF00
ENDCHAR
STARTCHAR 002E
ENCODING 46
SWIDTH 208 0
DWIDTH 20 0
BBX 11 12 5 1
BITMAP
3F80
7FC0
7FC0
FFE0
FFE0
FFE0
FFE0
FFE0
7FE0
7FC0
3F80
1F00
ENDCHAR
STARTCHAR 002F
ENCODING 47
SWIDTH 375 0
DWIDTH 36 0
BBX 34 68 1 0
BITMAP
0000007F80
000001FFC0
000001FFC0
000001FFC0
000001FFC0
000001FF80
000001FF80
000003FF80
000003FF00
000003FF00
000007FE00
000007FE00
000007FC00
00000FF800
00000FF800
00001FF800
00001FF000
00001FF000
00003FF000
00003FE000
00003FE000
00007FC000
00007FC000
0000FF8000
0000FF8000
0001FF8000
0001FF0000
0001FF0000
0003FF0000
0003FE0000
0007FE0000
0007FC0000
0007FC0000
0007FC0000
000FF80000
000FF80000
001FF80000
001FF00000
003FF00000
003FE00000
003FE00000
007FC00000
007FC00000
007FC00000
00FF800000
00FF800000
00FF800000
01FF000000
01FF000000
03FE000000
03FE000000
07FC000000
07FC000000
07FC000000
0FF8000000
0FF8000000
0FF8000000
1FF0000000
1FF0000000
3FE0000000
7FE0000000
7FE0000000
7FE0000000
FFC0000000
FFC0000000
FFC0000000
FF80000000
7F00000000
ENDCHAR
STARTCHAR 0030
ENCODING 48
SWIDTH 562 0
DWIDTH 54 0
BBX 48 68 3 0
BITMAP
00003FF00000
0001FFFF0000
000FFFFFC000
001FFFFFF000
003FFFFFF800
007FFFFFFC00
00FFFFFFFF00
01FFFFFFFF00
03FFF03FFF80
07FFC007FFC0
07FF0001FFE0
0FFC0000FFE0
1FF800007FF0
1FF000003FF0
1FF000001FF8
3FE000000FFC
3FC000000FFC
7FC0000007FC
7F80000003FC
7F80000003FE
FF80000001FE
FF80000001FF
FF80000001FF
FF80000001FF
FF80000001FF
FF80000001FF
FF80000001FF
FF80000001FF
FF80000001FF
FF80000001FF
FF80000001FF
FF80000001FF
FF80000001FF
FF80000001FF
FF80000001FF
FF80000001FF
FF80000001FF
FF80000001FF
FF80000001FF
FF80000001FF
FF80000001FF
FF80000001FF
FF80000003FF
FF80000003FF
FF80000003FF
FFC0000003FE
FFC0000003FE
FFC0000003FE
FFE0000007FE
FFE0000007FC
7FE0000007FC
7FF000000FF8
7FF000000FF8
3FF800001FF0
3FFC00001FF0
1FFE00003FE0
1FFF00007FC0
0FFF8000FFC0
0FFFF001FF80
07FFFE07FF80
03FFFFFFFF00
01FFFFFFFE00
00FFFFFFFC00
003FFFFFF800
001FFFFFF000
0007FFFFC000
0000FFFF8000
00003FFC0000
ENDCHAR
STARTCHAR 0031
ENCODING 49
SWIDTH 375 0
DWIDTH 36 0
BBX 30 68 2 0
BITMAP
0001F000
0003F800
0007FC00
001FFC00
007FFC00
00FFFC00
01FFFC00
07FFFC00
1FFFFC00
3FFFFC00
7FFFFC00
FFFFFC00
FFFFFC00
FFC7FC00
FF87FC00
7F07FC00
7E07FC00
0007FC00
0007FC00
0007FC00
0007FC00
0007FC00
0007FC00
0007FC00
0007FC00
0007FC00
0007FC00
0007FC00
0007FC00
0007FC00
0007FC00
0007FC00
0007FC00
0007FC00
0007FC00
0007FC00
0007FC00
0007FC00
0007FC00
0007FC00
0007FC00
0007FC00
0007FC00
0007FC00
0007FC00
0007FC00
0007FC00
0007FC00
0007FC00
0007FC00
0007FC00
0007FC00
0007FC00
0007FC00
0007FC00
0007FC00
0007FC00
0007FC00
000FFC00
001FFE00
03FFFFF8
07FFFFFC
0FFFFFFC
0FFFFFFC
0FFFFFFC
0FFFFFFC
07FFFFFC
07FFFFF8
ENDCHAR
STARTCHAR 0032
ENCODING 50
SWIDTH 479 0
DWIDTH 46 0
BBX 38 68 2 0
BITMAP
0007F80000
003FFF8000
00FFFFE000
01FFFFF000
03FFFFFC00
07FFFFFE00
0FFFFFFF00
1FFFFFFF80
1FFC07FFC0
3FF803FFE0
3FE000FFE0
7FC0007FF0
7F80003FF0
7F00001FF8
FF00000FF8
FE00000FF8
FE000007FC
FE000007FC
FE000007FC
FF000007FC
FF000007FC
FF800007FC
FFC00007FC
7FFFF80FFC
7FFFFC0FFC
3FFFFC0FFC
3FFFFC1FFC
1FFFF81FFC
0FFFF03FFC
03FFE03FF8
00FF807FF8
000000FFF0
000000FFE0
000001FFC0
000003FFC0
000007FF80
000007FF00
00000FFE00
00001FFE00
00001FFC00
00003FF800
00007FF000
0000FFE000
0003FFE000
0003FFC000
0007FF0000
000FFE0000
001FFC0000
003FF80000
007FF00000
00FFE001F0
01FFC003F8
03FF8003FC
07FF0007FC
0FFE0007FC
0FFC0007FC
1FFC0007FC
3FF80007FC
7FF80007FC
FFFFFFFFFC
FFFFFFFFFC
FFFFFFFFFC
FFFFFFFFFC
FFFFFFFFFC
FFFFFFFFFC
7FFFFFFFF8
3FFFFFFFF8
1FFFFFFFF0
ENDCHAR
STARTCHAR 0033
ENCODING 51
SWIDTH 479 0
DWIDTH 46 0
BBX 43 68 0 0
BITMAP
07FFFFFF8000
1FFFFFFFE000
3FFFFFFFE000
3FFFFFFFF000
3FFFFFFFF000
3FFFFFFFF000
3FFFFFFFE000
1FFFFFFFE000
0FFFFFFFC000
000003FF8000
000007FF0000
000007FE0000
00000FFC0000
00001FF80000
00003FF80000
00007FF00000
0000FFE00000
0001FFC00000
0003FF800000
0007FFE00000
000FFFFC0000
001FFFFF0000
001FFFFF8000
001FFFFFC000
001FFFFFE000
001FFFFFF000
000FFFFFF800
0003807FFC00
0000001FFE00
0000000FFE00
00000007FF00
00000003FF80
00000001FF80
00000000FFC0
00000000FFC0
000000007FC0
000000007FE0
000000003FE0
000000003FE0
000000003FE0
000000003FE0
000000003FE0
000000003FE0
000000003FE0
000000003FE0
000000007FE0
000000007FE0
000000007FC0
000000007FC0
00000000FFC0
00000000FF80
00000000FF80
00000001FF80
00000003FF00
08000003FF00
3F000007FE00
7F80000FFE00
7FC0001FFC00
FFE0007FF800
FFFC01FFF800
7FFFFFFFF000
7FFFFFFFE000
3FFFFFFF8000
1FFFFFFF0000
07FFFFFE0000
01FFFFF80000
007FFFF00000
001FFFC00000
ENDCHAR
STARTCHAR 0034
ENCODING 52
SWIDTH 520 0
DWIDTH 50 0
BBX 44 68 3 0
BITMAP
0000001F0000
0000003FC000
0000007FC000
000000FFE000
000001FFE000
000003FFE000
000003FFE000
000007FFE000
000007FFE000
00000FFFE000
00000FFFE000
00001FFFE000
00001FFFE000
00003FFFE000
00003FFFE000
00007FFFE000
00007FBFE000
0000FFBFE000
0001FF3FE000
0001FF3FE000
0003FF3FE000
0003FE3FE000
0007FC3FE000
0007FC3FE000
000FF83FE000
000FF83FE000
001FF03FE000
003FF03FE000
003FE03FE000
007FC03FE000
007FC03FE000
00FF803FE000
00FF803FE000
01FF003FE000
01FE003FE000
03FE003FE000
03FE003FE000
07FC003FE000
0FF8003FE000
0FF8003FE000
1FF0003FE000
1FF0003FE000
3FE0003FE000
3FE0007FF000
7FFFFFFFFFE0
FFFFFFFFFFF0
FFFFFFFFFFF0
FFFFFFFFFFF0
FFFFFFFFFFF0
FFFFFFFFFFF0
7FFFFFFFFFF0
3FFFFFFFFFE0
0000007FF000
0000003FE000
0000003FE000
0000003FE000
0000003FE000
0000003FE000
0000003FE000
0000003FE000
0000003FE000
0000003FE000
0000003FE000
0000003FE000
0000003FE000
0000003FE000
0000001FC000
000000078000
ENDCHAR
STARTCHAR 0035
ENCODING 53
SWIDTH 479 0
DWIDTH 46 0
BBX 41 68 2 0
BITMAP
0FFFFFFE0000
1FFFFFFF0000
1FFFFFFF0000
3FFFFFFF0000
3FFFFFFF8000
3FFFFFFF8000
3FFFFFFF0000
3FFFFFFF0000
3FF800000000
3FF000000000
3FE000000000
3FE000000000
3FE000000000
3FE000000000
3FE000000000
3FE000000000
3FE000000000
3FF000000000
3FFFF8000000
3FFFFF800000
3FFFFFF00000
3FFFFFFC0000
3FFFFFFE0000
3FFFFFFF8000
1FFFFFFFC000
1FFFFFFFE000
00001FFFF000
000001FFF000
0000007FF800
0000003FFC00
0000001FFE00
0000000FFE00
00000007FF00
00000003FF00
00000001FF80
00000001FF80
00000001FF80
00000000FF80
00000000FF80
00000000FF80
00000000FF80
00000000FF80
00000000FF80
00000000FF80
00000000FF80
00000000FF80
00000000FF80
00000000FF00
00000000FF00
00000001FF00
00000001FE00
00000003FE00
00000003FE00
00000007FC00
00000007F800
0000000FF800
7E00001FF000
FF00001FE000
FFC0003FC000
FFFC00FF8000
FFFFFFFF8000
FFFFFFFF0000
7FFFFFFE0000
3FFFFFFC0000
1FFFFFF80000
07FFFFE00000
00FFFF800000
000FFE000000
ENDCHAR
STARTCHAR 0036
ENCODING 54
SWIDTH 562 0
DWIDTH 54 0
BBX 48 68 3 0
BITMAP
000000F80000
000001FE0000
000003FE0000
000007FF0000
00000FFE0000
00000FFE0000
00001FFC0000
00003FF80000
00007FF00000
00007FE00000
0000FF800000
0001FF000000
0001FE000000
0003FC000000
0007FC000000
000FF8000000
000FFFFE0000
001FFFFFC000
003FFFFFE000
003FFFFFF800
007FFFFFFC00
007FFFFFFE00
00FFFFFFFF00
00FFFFFFFF80
01FFFFFFFFC0
03FFF001FFE0
03FF00007FE0
07FE00003FF0
07FC00001FF8
0FF800000FF8
1FF800000FFC
1FF0000007FC
1FE0000007FE
3FE0000003FE
3FE0000003FE
7FC0000003FE
7FC0000003FF
7FC0000001FF
FF80000001FF
FF80000001FF
FF80000001FF
FF80000001FF
FF80000001FF
FF80000001FF
FF80000001FF
FF80000001FF
FFC0000001FF
FFC0000001FF
FFC0000001FF
7FC0000003FF
7FE0000003FF
7FE0000007FF
3FE0000007FF
3FF000000FFF
1FF000000FFF
1FF800001FFF
0FFC00003FFE
0FFF0000FFFE
07FF8003FFFC
03FFC07FFFF8
01FFFFFFFFF0
00FFFFFFFFE0
007FFFFFFFC0
003FFFFFFF80
001FFFFFFE00
0007FFFFFC00
0001FFFFE000
00007FFF8000
ENDCHAR
STARTCHAR 0037
ENCODING 55
SWIDTH 500 0
DWIDTH 48 0
BBX 44 68 4 0
BITMAP
1FFFFFFFFF00
3FFFFFFFFFC0
7FFFFFFFFFE0
7FFFFFFFFFE0
FFFFFFFFFFF0
FFFFFFFFFFF0
FFFFFFFFFFE0
FFFFFFFFFFE0
FFFFFFFFFFC0
FF800003FF80
FF800001FF00
FF800001FF00
FF800003FE00
FF800007FE00
FF80000FFC00
FF80000FFC00
FF80001FF800
7F80003FF000
7F00003FF000
1E00007FE000
0000007FC000
0000007FC000
000000FF8000
000001FF8000
000001FF0000
000003FF0000
000007FE0000
000007FE0000
00000FFC0000
00000FF80000
00000FF80000
00001FF00000
00003FE00000
00003FE00000
00007FC00000
00007FC00000
0000FF800000
0001FF800000
0001FF000000
0003FF000000
0007FE000000
0007FE000000
0007FC000000
000FF8000000
001FF8000000
003FF0000000
003FF0000000
007FE0000000
007FE0000000
00FFC0000000
01FF80000000
01FF80000000
03FF00000000
03FF00000000
07FE00000000
0FFE00000000
0FFC00000000
1FFC00000000
3FF800000000
7FF800000000
7FF000000000
FFF000000000
FFF000000000
FFE000000000
FFE000000000
7FC000000000
3FC000000000
1F0000000000
ENDCHAR
STARTCHAR 0038
ENCODING 56
SWIDTH 562 0
DWIDTH 54 0
BBX 47 68 4 0
BITMAP
00001FF80000
00007FFF0000
0001FFFF8000
0007FFFFE000
000FFFFFF000
001FFFFFF000
003FFFFFF800
003FFFFFF800
007FE00FFC00
007FC003FC00
007F8001FE00
00FF0000FE00
00FF0000FE00
00FE0000FE00
00FE00007F00
00FE00007F00
00FE00007F00
00FF0000FF00
00FF0000FE00
00FF8001FE00
007FC003FE00
007FF00FFE00
003FFFFFFE00
001FFFFFFC00
001FFFFFFC00
001FFFFFFC00
007FFFFFFE00
00FFFFFFFF00
01FFFFFFFF80
03FFC00FFFC0
07FF0000FFE0
07FE00007FE0
0FF800001FF0
0FF800001FF8
1FF000000FF8
1FE000000FF8
3FC0000007FC
3FC0000007FC
7FC0000003FC
7F80000003FE
7F80000003FE
7F80000003FE
FF80000003FE
FF80000003FE
FF80000003FE
FF80000003FE
FF80000003FE
FF80000003FE
FFC0000003FE
FFC0000003FE
7FC0000003FE
7FE0000003FC
7FE0000007FC
3FF000000FF8
1FF800000FF8
1FFC00001FF8
0FFF00003FF0
07FF8000FFE0
07FFE003FFE0
03FFFF3FFFC0
01FFFFFFFF80
00FFFFFFFF00
007FFFFFFE00
003FFFFFF800
000FFFFFF000
0003FFFFC000
0000FFFE0000
00001FF00000
ENDCHAR
STARTCHAR 0039
ENCODING 57
SWIDTH 562 0
DWIDTH 54 0
BBX 48 68 3 0
BITMAP
000FFFFFE000
001FFFFFF000
003FFFFFF800
00FFFFFFF800
01FFFFFFFC00
01FFFFFFFE00
03FFFFFFFF00
07FFFFFFFF80
07FFFC0FFFC0
0FFFC003FFE0
1FFF0000FFF0
1FFC00007FF0
1FF800001FF8
3FF000000FFC
3FE000000FFC
7FE0000007FC
7FC0000007FE
7FC0000007FE
7F80000003FE
7F80000003FF
FF80000003FF
FF80000001FF
FF80000001FF
FF80000001FF
FF80000001FF
FF80000001FF
FF80000001FF
FF80000001FF
FF80000001FF
FF80000003FF
FFC0000003FE
FFC0000007FE
FFC0000007FE
7FC0000007FC
7FE0000007FC
3FF000000FF8
3FF000000FF8
1FF800001FF0
0FFC00003FF0
07FE00007FE0
07FF8000FFE0
03FFE003FFC0
01FFFFFFFFC0
00FFFFFFFF80
007FFFFFFF00
003FFFFFFF00
001FFFFFFE00
000FFFFFFC00
0003FFFFFC00
0001FFFFF800
0000001FF800
0000003FF000
0000003FE000
0000007FE000
000000FFC000
000001FF8000
000003FF0000
000007FF0000
00000FFE0000
00001FFC0000
00003FFC0000
00007FF80000
0000FFF00000
0000FFE00000
0000FFE00000
0000FFC00000
00007F800000
00003E000000
ENDCHAR
STARTCHAR 003A
ENCODING 58
SWIDTH 250 0
DWIDTH 24 0
BBX 10 52 9 0
BITMAP
3E00
7F00
7F80
FFC0
FFC0
FFC0
FFC0
FFC0
FFC0
FFC0
7F80
3F80
1F00
0000
0000
0000
0000
0000
0000
0000
0000
0000
0000
0000
0000
0000
0000
0000
0000
0000
0000
0000
0000
0000
0000
0000
0000
0000
0000
0000
3F00
7F80
7F80
FFC0
FFC0
FFC0
FFC0
FFC0
FFC0
7F80
7F80
1F00
ENDCHAR
STARTCHAR 003B
ENCODING 59
SWIDTH 250 0
DWIDTH 24 0
BBX 10 63 9 -11
BITMAP
3E00
3F00
7F80
7F80
FFC0
FFC0
FFC0
FFC0
FFC0
FFC0
7F80
7F80
3F00
0000
0000
0000
0000
0000
0000
0000
0000
0000
0000
0000
0000
0000
0000
0000
0000
0000
0000
0000
0000
0000
0000
0000
0000
0000
0000
0000
1F00
7F80
FF80
FFC0
FFC0
FFC0
FFC0
FFC0
FFC0
FFC0
FFC0
FFC0
FFC0
FFC0
FF80
FF00
FF00
FE00
FE00
FC00
FC00
7800
3000
ENDCHAR
STARTCHAR 003D
ENCODING 61
SWIDTH 666 0
DWIDTH 64 0
BBX 64 25 0 16
BITMAP
FFFFFFFFFFFFFFFF
FFFFFFFFFFFFFFFF
FFFFFFFFFFFFFFFF
FFFFFFFFFFFFFFFF
FFFFFFFFFFFFFFFF
FFFFFFFFFFFFFFFF
FFFFFFFFFFFFFFFF
FFFFFFFFFFFFFFFF
0000000000000000
0000000000000000
0000000000000000
0000000000000000
0000000000000000
0000000000000000
0000000000000000
0000000000000000
0000000000000000
FFFFFFFFFFFFFFFF
FFFFFFFFFFFFFFFF
FFFFFFFFFFFFFFFF
FFFFFFFFFFFFFFFF
FFFFFFFFFFFFFFFF
FFFFFFFFFFFFFFFF
FFFFFFFFFFFFFFFF
FFFFFFFFFFFFFFFF
ENDCHAR
STARTCHAR 003F
ENCODING 63
SWIDTH 375 0
DWIDTH 36 0
BBX 30 68 6 0
BITMAP
003FF000
00FFFC00
03FFFF00
0FFFFF80
1FFFFFC0
3FFFFFE0
7FFFFFF0
7FFFFFF0
FFC07FF8
FF001FF8
FF000FFC
FE000FFC
FF0007FC
FF0007FC
FF8007FC
FF8007FC
FF8007FC
7F800FFC
7F800FF8
1F001FF8
00003FF8
00007FF0
0000FFF0
0001FFE0
0003FFC0
0007FF80
001FFF00
003FFE00
007FFC00
01FFF800
03FFE000
07FFC000
0FFF8000
0FFE0000
1FFC0000
1FF80000
1FF00000
3FE00000
3FC00000
3FC00000
3FC00000
3FC00000
3FE01F00
3FE07F80
1FF8FFC0
1FFFFFC0
1FFFFFC0
0FFFFFC0
0FFFFFC0
07FFFF80
03FFFF80
03FFFF00
007FFC00
00000000
00000000
001F0000
007F8000
007FC000
00FFC000
00FFC000
00FFC000
00FFC000
00FFC000
00FFC000
00FFC000
007FC000
007F8000
003F0000
ENDCHAR
STARTCHAR 0041
ENCODING 65
SWIDTH 562 0
DWIDTH 54 0
BBX 53 68 0 0
BITMAP
000000F8000000
000001FC000000
000003FE000000
000003FF000000
000007FF000000
000007FF800000
000007FF800000
000007FF800000
00000FFF800000
00000FFFC00000
00001FFFC00000
00001FFFC00000
00001FFFE00000
00001FFFE00000
00003FFFE00000
00003FFFF00000
00007FDFF00000
00007FCFF00000
00007F8FF80000
0000FF8FF80000
0000FF87FC0000
0000FF87FC0000
0001FF07FC0000
0001FF07FE0000
0001FF03FE0000
0003FE03FE0000
0003FE03FF0000
0003FE03FF0000
0007FC01FF0000
0007FC01FF8000
000FF800FF8000
000FF800FF8000
001FF800FFC000
001FF0007FC000
001FF0007FE000
001FE0007FE000
003FE0003FF000
003FE0003FF000
003FC0003FF000
007FC0001FF000
007FC0001FF800
007F80000FF800
00FF80000FF800
00FFC0001FFC00
00FFFFFFFFFC00
01FFFFFFFFFC00
01FFFFFFFFFE00
03FFFFFFFFFE00
03FFFFFFFFFE00
07FFFFFFFFFE00
07FFFFFFFFFF00
07FFFFFFFFFF00
0FFE000001FF80
0FFC000000FF80
0FF8000000FF80
1FF8000000FFC0
1FF80000007FC0
1FF00000007FE0
3FF00000003FE0
3FE00000003FF0
7FE00000003FF0
7FE00000003FF8
FFE00000003FF8
FFE00000001FF8
FFE00000001FF8
7FC00000001FF8
7FC00000000FF0
1F0000000007E0
ENDCHAR
STARTCHAR 0042
ENCODING 66
SWIDTH 562 0
DWIDTH 54 0
BBX 45 68 7 0
BITMAP
1FFFFF000000
7FFFFFF00000
FFFFFFFC0000
FFFFFFFF0000
FFFFFFFF8000
FFFFFFFFC000
FFFFFFFFE000
FFFFFFFFE000
FFFFFFFFE000
FFC000FFE000
FF80007FE000
FF80003FE000
FF80003FE000
FF80003FE000
FF80003FE000
FF80003FE000
FF80003FE000
FF80007FE000
FF80007FC000
FF8000FFC000
FF8001FFC000
FF8001FF8000
FF8007FF8000
FFFFFFFFF000
FFFFFFFFF800
FFFFFFFFFC00
FFFFFFFFFE00
FFFFFFFFFF00
FFFFFFFFFF00
FFFFFFFFFF80
FFFFFFFFFFC0
FFC0001FFFC0
FF800007FFC0
FF800001FFE0
FF8000007FE0
FF8000003FF0
FF8000001FF0
FF8000001FF0
FF8000001FF8
FF8000000FF8
FF8000000FF8
FF8000000FF8
FF8000000FF8
FF8000001FF8
FF8000000FF8
FF8000000FF8
FF8000000FF8
FF8000000FF8
FF8000000FF8
FF8000000FF8
FF8000001FF8
FF8000001FF0
FF8000003FF0
FF8000003FF0
FF8000007FE0
FF800000FFE0
FF800001FFC0
FF800003FFC0
FFC0000FFFC0
FFFFFFFFFF80
FFFFFFFFFF00
FFFFFFFFFF00
FFFFFFFFFE00
FFFFFFFFFC00
FFFFFFFFF800
FFFFFFFFF000
7FFFFFFFC000
1FFFFFFC0000
ENDCHAR
STARTCHAR 0043
ENCODING 67
SWIDTH 520 0
DWIDTH 50 0
BBX 46 68 3 0
BITMAP
0000007FFFC0
000007FFFFE0
00003FFFFFF0
0000FFFFFFF8
0003FFFFFFF8
0007FFFFFFFC
000FFFFFFFFC
003FFFFFFFFC
007FFFFFFFFC
00FFFFC03FFC
01FFFC000FF8
03FFF00003F0
07FFC0000040
07FF00000000
0FFE00000000
1FFC00000000
1FF800000000
3FF000000000
3FE000000000
7FE000000000
7FC000000000
7FC000000000
7F8000000000
FF8000000000
FF8000000000
FF8000000000
FF8000000000
FF8000000000
FF8000000000
FF8000000000
FF8000000000
FF8000000000
FF8000000000
FF8000000000
FF8000000000
FF8000000000
FF8000000000
FF8000000000
FF8000000000
FFC000000000
7FC000000000
7FC000000000
7FE000000000
7FE000000000
3FE000000000
3FF000000000
3FF800000000
3FF800000000
1FFC00000000
1FFC00000000
0FFE00000000
0FFE00000000
07FF00000000
07FF80000000
03FFC0000000
03FFE0000000
01FFF80001E0
00FFFF0007F8
007FFFC03FF8
007FFFFFFFFC
003FFFFFFFFC
001FFFFFFFFC
000FFFFFFFFC
0003FFFFFFFC
0001FFFFFFF8
00007FFFFFF0
00000FFFFFC0
000001FFF800
ENDCHAR
STARTCHAR 0044
ENCODING 68
SWIDTH 604 0
DWIDTH 58 0
BBX 48 68 7 0
BITMAP
3FFFFC000000
7FFFFF800000
FFFFFFF00000
FFFFFFFE0000
FFFFFFFF8000
FFFFFFFFE000
FFFFFFFFF000
FFFFFFFFF800
FFC00FFFFE00
FF8001FFFF00
FF80007FFF80
FF80003FFFC0
FF80000FFFE0
FF800007FFE0
FF800003FFF0
FF800001FFF0
FF800000FFF8
FF8000007FFC
FF8000003FFC
FF8000003FFE
FF8000001FFE
FF8000001FFF
FF8000000FFF
FF8000000FFF
FF80000007FF
FF80000007FF
FF80000007FF
FF80000003FF
FF80000003FF
FF80000001FF
FF80000001FF
FF80000001FF
FF80000001FF
FF80000001FF
FF80000001FF
FF80000001FF
FF80000001FF
FF80000001FF
FF80000001FF
FF80000003FF
FF80000003FF
FF80000007FF
FF80000007FE
FF80000007FE
FF8000000FFE
FF8000000FFE
FF8000000FFC
FF8000001FFC
FF8000001FF8
FF8000003FF8
FF8000007FF0
FF800000FFF0
FF800001FFE0
FF800003FFE0
FF800007FFC0
FF80000FFF80
FF80003FFF00
FF80007FFC00
FFC001FFF800
FFF01FFFF000
FFFFFFFFE000
FFFFFFFFC000
FFFFFFFF0000
FFFFFFFE0000
FFFFFFF80000
FFFFFFE00000
7FFFFE000000
3FFFF0000000
ENDCHAR
STARTCHAR 0045
ENCODING 69
SWIDTH 458 0
DWIDTH 44 0
BBX 37 68 6 0
BITMAP
1FFFFFFFE0
7FFFFFFFF0
FFFFFFFFF8
FFFFFFFFF8
FFFFFFFFF8
FFFFFFFFF8
FFFFFFFFF0
FFFFFFFFE0
FFFFFFFFC0
FFE0000000
FFC0000000
FFC0000000
FFC0000000
FFC0000000
FFC0000000
FFC0000000
FFC0000000
FFC0000000
FFC0000000
FFC0000000
FFC0000000
FFE0000000
FFFFFFFF00
FFFFFFFF80
FFFFFFFFC0
FFFFFFFFC0
FFFFFFFFE0
FFFFFFFFE0
FFFFFFFFC0
FFFFFFFF80
FFF8000000
FFE0000000
FFC0000000
FFC0000000
FFC0000000
FFC0000000
FFC0000000
FFC0000000
FFC0000000
FFC0000000
FFC0000000
FFC0000000
FFC0000000
FFC0000000
FFC0000000
FFC0000000
FFC0000000
FFC0000000
FFC0000000
FFC0000000
FFC0000000
FFC0000000
FFC0000000
FFC0000000
FFC0000000
FFC0000000
FFC0000000
FFC0000000
FFC0000000
FFFFFFFFC0
FFFFFFFFE0
FFFFFFFFF0
FFFFFFFFF8
FFFFFFFFF8
FFFFFFFFF8
FFFFFFFFF8
FFFFFFFFF0
7FFFFFFFC0
ENDCHAR
STARTCHAR 0046
ENCODING 70
SWIDTH 458 0
DWIDTH 44 0
BBX 35 68 7 0
BITMAP
1FFFFFFF00
7FFFFFFFC0
FFFFFFFFE0
FFFFFFFFE0
FFFFFFFFE0
FFFFFFFFE0
FFFFFFFFE0
FFFFFFFFC0
FF80000000
FF80000000
FF80000000
FF80000000
FF80000000
FF80000000
FF80000000
FF80000000
FF80000000
FF80000000
FF80000000
FF80000000
FF80000000
FFC0000000
FFFFFFFE00
FFFFFFFF00
FFFFFFFF80
FFFFFFFF80
FFFFFFFF80
FFFFFFFF80
FFFFFFFF00
FFFFFFFE00
FFC0000000
FF80000000
FF80000000
FF80000000
FF80000000
FF80000000
FF80000000
FF80000000
FF80000000
FF80000000
FF80000000
FF80000000
FF80000000
FF80000000
FF80000000
FF80000000
FF80000000
FF80000000
FF80000000
FF80000000
FF80000000
FF80000000
FF80000000
FF80000000
FF80000000
FF80000000
FF80000000
FF80000000
FF80000000
FF80000000
FF80000000
FF80000000
FF80000000
FF80000000
FF80000000
FF80000000
7F00000000
3C00000000
ENDCHAR
STARTCHAR 0047
ENCODING 71
SWIDTH 687 0
DWIDTH 66 0
BBX 57 68 3 0
BITMAP
00000FFFFC000000
00003FFFFFE00000
00007FFFFFFE0000
0001FFFFFFFF8000
0007FFFFFFFFF000
000FFFFFFFFFF800
001FFFFFFFFFFC00
003FFFFFFFFFFF00
007FFFFF01FFFF80
00FFFF00001FFF80
01FFFC000007FF80
01FFF0000001FF80
03FFE0000000FF00
07FFC00000007F00
07FF800000000000
0FFF000000000000
0FFE000000000000
1FFC000000000000
1FF8000000000000
3FF0000000000000
3FF0000000000000
7FE0000000000000
7FC0000000000000
7FC0000000000000
7FC0000000000000
FFC0000000000000
FF80000000000000
FF80000000000000
FF80000000000000
FF80000000000000
FF80000000000000
FF800003FFFFFE00
FF80000FFFFFFF00
FF80001FFFFFFF80
FF80001FFFFFFF80
FF80001FFFFFFF80
FF80001FFFFFFF80
FF80000FFFFFFF80
FF800007FFFFFF80
FFC000000007FF80
FFC000000001FF80
7FC000000001FF80
7FC000000000FF80
7FE000000000FF80
7FE000000000FF80
3FF000000000FF80
3FF000000000FF80
1FF800000000FF80
1FF800000000FF80
0FFC00000000FF80
0FFE00000000FF80
07FF00000000FF80
07FF00000000FF80
03FF80000000FF80
01FFC0000000FF80
01FFE0000001FF80
00FFF0000003FF80
007FFC00000FFF80
003FFF00003FFF80
001FFFC001FFFF80
000FFFFFFFFFFF80
0007FFFFFFFFFF80
0003FFFFFFFFFF80
0001FFFFFFFFFF80
00007FFFFFFFFF80
00001FFFFFFFFF80
00000FFFFFFCFF00
000001FFFF807E00
ENDCHAR
STARTCHAR 0048
ENCODING 72
SWIDTH 604 0
DWIDTH 58 0
BBX 46 68 6 0
BITMAP
1E00000001F0
7F80000003F8
7F80000007FC
FFC0000007FC
FFC0000007FC
FFC0000007FC
FFC0000007FC
FFC0000007FC
FFC0000007FC
FFC0000007FC
FFC0000007FC
FFC0000007FC
FFC0000007FC
FFC0000007FC
FFC0000007FC
FFC0000007FC
FFC0000007FC
FFC0000007FC
FFC0000007FC
FFC0000007FC
FFC0000007FC
FFF000000FFC
FFFFFFFFFFFC
FFFFFFFFFFFC
FFFFFFFFFFFC
FFFFFFFFFFFC
FFFFFFFFFFFC
FFFFFFFFFFFC
FFFFFFFFFFFC
FFFFFFFFFFFC
FFC0000007FC
FFC0000007FC
FFC0000007FC
FFC0000007FC
FFC0000007FC
FFC0000007FC
FFC0000007FC
FFC0000007FC
FFC0000007FC
FFC0000007FC
FFC0000007FC
FFC0000007FC
FFC0000007FC
FFC0000007FC
FFC0000007FC
FFC0000007FC
FFC0000007FC
FFC0000007FC
FFC0000007FC
FFC0000007FC
FFC0000007FC
FFC0000007FC
FFC0000007FC
FFC0000007FC
FFC0000007FC
FFC0000007FC
FFC0000007FC
FFC0000007FC
FFC0000007FC
FFC0000007FC
FFC0000007FC
FFC0000007FC
FFC0000007FC
FFC0000007FC
FFC0000007FC
FFC0000007FC
7F80000007FC
3E00000003F8
ENDCHAR
STARTCHAR 0049
ENCODING 73
SWIDTH 229 0
DWIDTH 22 0
BBX 9 68 7 0
BITMAP
3C00
7F00
FF00
FF80
FF80
FF80
FF80
FF80
FF80
FF80
FF80
FF80
FF80
FF80
FF80
FF80
FF80
FF80
FF80
FF80
FF80
FF80
FF80
FF80
FF80
FF80
FF80
FF80
FF80
FF80
FF80
FF80
FF80
FF80
FF80
FF80
FF80
FF80
FF80
FF80
FF80
FF80
FF80
FF80
FF80
FF80
FF80
FF80
FF80
FF80
FF80
FF80
FF80
FF80
FF80
FF80
FF80
FF80
FF80
FF80
FF80
FF80
FF80
FF80
FF80
FF80
7F00
3E00
ENDCHAR
STARTCHAR 004A
ENCODING 74
SWIDTH 437 0
DWIDTH 42 0
BBX 36 68 0 0
BITMAP
007FFFFFC0
00FFFFFFE0
01FFFFFFF0
03FFFFFFF0
03FFFFFFF0
03FFFFFFF0
03FFFFFFF0
01FFFFFFF0
00FFFFFFF0
0000007FF0
0000003FF0
0000001FF0
0000001FF0
0000001FF0
0000001FF0
0000001FF0
0000001FF0
0000001FF0
0000001FF0
0000001FF0
0000001FF0
0000001FF0
0000001FF0
0000001FF0
0000001FF0
0000001FF0
0000001FF0
0000001FF0
0000001FF0
0000001FF0
0000001FF0
0000001FF0
0000001FF0
0000001FF0
0000001FF0
0000001FF0
0000001FF0
0000001FF0
0000001FF0
0000001FF0
0000001FF0
0000001FF0
0000001FF0
0000001FF0
0000001FF0
01FF001FF0
0FFFC01FF0
1FFFE01FF0
3FFFF01FF0
7FFFF81FE0
7FFFF83FE0
FFFFF83FE0
FFFFF83FE0
FE00007FE0
FE00007FC0
FE0000FFC0
FE0001FF80
FF0003FF80
FF0007FF80
7F801FFF00
7FF0FFFE00
3FFFFFFC00
3FFFFFF800
1FFFFFF000
0FFFFFC000
03FFFF8000
01FFFE0000
003FF00000
ENDCHAR
STARTCHAR 004B
ENCODING 75
SWIDTH 541 0
DWIDTH 52 0
BBX 45 68 7 0
BITMAP
3E00000000E0
7F00000003F8
FF00000007F8
FF8000000FF8
FF8000000FF8
FF8000001FF8
FF8000001FF8
FF8000003FF8
FF8000003FF0
FF8000007FF0
FF800000FFE0
FF800001FFC0
FF800003FF80
FF800007FF00
FF80000FFE00
FF80001FFE00
FF80001FFC00
FF80003FF800
FF80007FF000
FF8000FFE000
FF8001FFC000
FF8003FF8000
FF8007FF0000
FF800FFE0000
FF800FFE0000
FF801FFC0000
FF807FF80000
FF807FF00000
FF80FFE00000
FF81FFC00000
FF83FF800000
FF87FF000000
FF8FFE000000
FF8FFE000000
FF9FFC000000
FFBFF8000000
FFFFF0000000
FFFFE0000000
FFFFC0000000
FFFF80000000
FFFF00000000
FFFF00000000
FFFF80000000
FFFFE0000000
FFFFF0000000
FFFFF8000000
FFFFFE000000
FFFFFF000000
FF9FFFC00000
FF8FFFE00000
FF87FFF00000
FF83FFF80000
FF80FFFC0000
FF807FFF0000
FF801FFF8000
FF800FFFC000
FF8007FFF000
FF8001FFFC00
FF8000FFFE00
FF80007FFFC0
FF80001FFFE0
FF80000FFFF0
FF800003FFF8
FF800001FFF8
FF800000FFF8
FF8000007FF8
7F0000003FF0
3E0000000FC0
ENDCHAR
STARTCHAR 004C
ENCODING 76
SWIDTH 375 0
DWIDTH 36 0
BBX 29 68 7 0
BITMAP
3E000000
7F000000
FF800000
FF800000
FF800000
FF800000
FF800000
FF800000
FF800000
FF800000
FF800000
FF800000
FF800000
FF800000
FF800000
FF800000
FF800000
FF800000
FF800000
FF800000
FF800000
FF800000
FF800000
FF800000
FF800000
FF800000
FF800000
FF800000
FF800000
FF800000
FF800000
FF800000
FF800000
FF800000
FF800000
FF800000
FF800000
FF800000
FF800000
FF800000
FF800000
FF800000
FF800000
FF800000
FF800000
FF800000
FF800000
FF800000
FF800000
FF800000
FF800000
FF800000
FF800000
FF800000
FF800000
FF800000
FF800000
FF800000
FFC00000
FFFFFFE0
FFFFFFF0
FFFFFFF8
FFFFFFF8
FFFFFFF8
FFFFFFF8
7FFFFFF8
7FFFFFF0
1FFFFFE0
ENDCHAR
STARTCHAR 004D
ENCODING 77
SWIDTH 708 0
DWIDTH 68 0
BBX 54 68 7 0
BITMAP
7C0000000001F0
FF0000000003F8
FF8000000007FC
FFC000000007FC
FFF00000000FFC
FFF80000003FFC
FFFC0000007FFC
FFFE000000FFFC
FFFF000001FFFC
FFFF800003FFFC
FFFFC00007FFFC
FFFFF0000FFFFC
FFFFF0003FFFFC
FFFFF8007FFFFC
FFDFFC00FFFFFC
FF8FFE01FFFFFC
FF87FF03FFEFFC
FF83FF8FFF87FC
FF81FFFFFF07FC
FF81FFFFFE07FC
FF80FFFFFC07FC
FF807FFFF807FC
FF803FFFF007FC
FF801FFFC007FC
FF800FFFC007FC
FF8007FF8007FC
FF8007FF0007FC
FF8003FE0007FC
FF8001FC0007FC
FF8000F80007FC
FF8000000007FC
FF8000000007FC
FF8000000007FC
FF8000000007FC
FF8000000007FC
FF8000000007FC
FF8000000007FC
FF8000000007FC
FF8000000007FC
FF8000000007FC
FF8000000007FC
FF8000000007FC
FF8000000007FC
FF8000000007FC
FF8000000007FC
FF8000000007FC
FF8000000007FC
FF8000000007FC
FF8000000007FC
FF8000000007FC
FF8000000007FC
FF8000000007FC
FF8000000007FC
FF8000000007FC
FF8000000007FC
FF8000000007FC
FF8000000007FC
FF8000000007FC
FF8000000007FC
FF8000000007FC
FF8000000007FC
FF8000000007FC
FF8000000007FC
FF8000000007FC
FF8000000007FC
FF8000000007FC
7F0000000003F8
3E0000000001F0
ENDCHAR
STARTCHAR 004E
ENCODING 78
SWIDTH 645 0
DWIDTH 62 0
BBX 50 68 6 0
BITMAP
3E000000003F00
7F800000007F80
FF80000000FFC0
FFC0000000FFC0
FFC0000000FFC0
FFE0000000FFC0
FFF0000000FFC0
FFF0000000FFC0
FFF80000007F80
FFF80000007F80
7FFC0000007F80
7FFE0000007F80
7FFF0000007F80
FFFF0000007F80
FFFF800000FF80
FFFFC000007F80
FFFFE000007F80
FFFFE000007F80
FFBFF000007F80
FF1FF000007F80
FF9FF800007F80
FF8FF800007F80
7F8FFC00007F80
7F87FE00007F80
7F83FF00007F80
7F83FF00007F80
7F81FF80007F80
7F81FFC0007F80
7F80FFE0007F80
7F807FE0007F80
7F803FF0007F80
7F803FF8007F80
7F801FF8007F80
7F800FFC007F80
7F8007FC007F80
7F8007FE007F80
7F8003FF007F80
FF8003FF007F80
7F8001FF807F80
7F8000FFC07F80
7F80007FC07F80
7F80003FE07F80
7F80003FF07F80
7F80001FF87F80
7F80001FF87F80
7F80001FFC7F80
7F80000FFC7F80
7F800007FE7F80
7F800003FE7F80
7F800003FF3F80
7F800001FFFF80
7F800000FFFF80
7F800000FFFF80
7F8000007FFF80
7F8000003FFF80
7F8000003FFF80
7F8000001FFF80
7F8000000FFF80
7F8000000FFF80
7F80000007FF80
FF80000003FF80
FFC0000003FFC0
FFC0000001FFC0
FFC0000000FFC0
FFC0000000FFC0
FFC00000007FC0
7F800000003F80
3F000000001F00
ENDCHAR
STARTCHAR 004F
ENCODING 79
SWIDTH 687 0
DWIDTH 66 0
BBX 60 68 3 0
BITMAP
000001FFF0000000
00000FFFFF000000
00003FFFFFC00000
0000FFFFFFF00000
0003FFFFFFFC0000
000FFFFFFFFE0000
001FFFFFFFFF0000
003FFFFFFFFF8000
007FFF800FFFC000
00FFFC0003FFE000
01FFF00000FFF000
03FFE000003FF800
03FF8000001FFC00
07FF0000000FFE00
0FFE00000007FE00
0FFC00000007FF00
1FF800000003FF00
1FF800000001FF80
3FF000000001FF80
3FE000000000FFC0
3FE000000000FFC0
7FE0000000007FC0
7FC0000000007FE0
7FC0000000003FE0
7FC0000000003FE0
FFC0000000003FE0
FF80000000003FF0
FF80000000003FF0
FF80000000001FF0
FF80000000001FF0
FF80000000001FF0
FF80000000001FF0
FF80000000001FF0
FF80000000001FF0
FF80000000001FF0
FF80000000001FF0
FF80000000001FF0
FF80000000001FF0
FF80000000001FF0
FF80000000001FF0
FF80000000001FF0
FFC0000000001FF0
7FC0000000001FF0
7FC0000000003FF0
7FC0000000003FF0
3FE0000000007FE0
3FE0000000007FE0
3FF0000000007FE0
1FF000000000FFC0
1FF800000001FFC0
1FFC00000001FF80
0FFC00000003FF80
0FFE00000007FF00
07FF0000000FFE00
03FF8000001FFE00
03FFC000003FFC00
01FFE000007FF800
01FFF80001FFF000
00FFFE0007FFF000
007FFFE03FFFE000
003FFFFFFFFFC000
001FFFFFFFFF8000
000FFFFFFFFE0000
0007FFFFFFFC0000
0001FFFFFFF00000
00007FFFFFC00000
00000FFFFE000000
000003FFF0000000
ENDCHAR
STARTCHAR 0050
ENCODING 80
SWIDTH 479 0
DWIDTH 46 0
BBX 39 68 7 0
BITMAP
3FFFFE0000
7FFFFFC000
FFFFFFF800
FFFFFFFC00
FFFFFFFE00
FFFFFFFF00
FFFFFFFF80
FFFFFFFFC0
FFFFFFFFE0
FF8003FFE0
FF80007FF0
FF80003FF8
FF80001FF8
FF80000FF8
FF80000FFC
FF800007FC
FF800007FC
FF800003FE
FF800003FE
FF800003FE
FF800003FE
FF800003FE
FF800003FE
FF800003FE
FF800003FE
FF800003FE
FF800007FE
FF800007FC
FF800007FC
FF80000FFC
FF80001FFC
FF80001FF8
FF80003FF8
FF80007FF0
FF8000FFF0
FF8001FFE0
FFC007FFC0
FFE07FFF80
FFFFFFFF80
FFFFFFFE00
FFFFFFFC00
FFFFFFF800
FFFFFFE000
FFFFFF8000
FFFFFC0000
FFFFE00000
FFC0000000
FF80000000
FF80000000
FF80000000
FF80000000
FF80000000
FF80000000
FF80000000
FF80000000
FF80000000
FF80000000
FF80000000
FF80000000
FF80000000
FF80000000
FF80000000
FF80000000
FF80000000
FF80000000
FF80000000
FF80000000
7F00000000
ENDCHAR
STARTCHAR 0051
ENCODING 81
SWIDTH 687 0
DWIDTH 66 0
BBX 63 68 3 0
BITMAP
000000FFFE000000
000007FFFFC00000
00003FFFFFE00000
0000FFFFFFF80000
0003FFFFFFFE0000
0007FFFFFFFF0000
001FFFFFFFFF8000
003FFFFFFFFFC000
007FFF8007FFE000
00FFFE0001FFF000
01FFF800007FF800
03FFE000003FFC00
03FFC000001FFC00
07FF0000000FFE00
0FFE00000007FE00
0FFE00000003FF00
1FFC00000001FF00
1FF800000000FF80
3FF000000000FF80
3FF0000000007F80
3FE0000000007FC0
7FE0000000003FC0
7FC0000000003FC0
7FC0000000001FE0
FFC0000000001FE0
FFC0000000001FE0
FF80000000001FE0
FF80000000001FF0
FF80000000001FF0
FF80000000001FF0
FF80000000001FF0
FF80000000001FF0
FF80000000001FF0
FF80000000001FF0
FF80000000001FF0
FF80000000001FF0
FF80000000001FF0
FF80000000001FF0
FF80000000001FF0
FF80000000001FF0
FF80000000001FF0
FFC0000000001FF0
FFC0000000001FF0
FFC0000000003FF0
FFC0000000003FF0
FFE00007E0003FF0
7FE0003FFC003FE0
7FE0007FFF007FE0
3FF0007FFF80FFC0
3FF800FFFFF1FFC0
3FF800FFFFFFFF80
1FFC007FFFFFFF80
1FFC003FFFFFFF00
0FFE000003FFFF00
07FF000001FFFE00
07FF800001FFFE00
03FFC00001FFFE00
01FFE00001FFFE00
00FFF00003FFFF00
007FFC001FFFFF80
003FFFFFFFFFFFFC
001FFFFFFFFFFFFE
000FFFFFFFFC7FFE
0003FFFFFFF03FFE
0001FFFFFFE01FFE
00003FFFFF800FFC
000007FFFC0003F8
0000007FE00001F0
ENDCHAR
STARTCHAR 0052
ENCODING 82
SWIDTH 541 0
DWIDTH 52 0
BBX 43 68 7 0
BITMAP
3FFFFFF00000
7FFFFFFC0000
FFFFFFFF0000
FFFFFFFF8000
FFFFFFFFE000
FFFFFFFFF000
FFFFFFFFF800
FFFFFFFFF800
FFFFFFFFFC00
FFC0003FFE00
FFC0001FFE00
FF800007FF00
FF800003FF80
FF800003FFC0
FF800001FFC0
FF800000FFE0
FF8000007FE0
FF8000007FE0
FF8000007FE0
FF8000003FE0
FF8000003FE0
FF8000003FE0
FF8000003FE0
FF8000003FE0
FF8000003FE0
FF8000003FE0
FF8000003FE0
FF8000003FE0
FF8000003FE0
FF8000003FE0
FF8000007FE0
FF8000007FC0
FF800000FFC0
FF800001FF80
FF800001FF80
FF800003FF00
FF800007FF00
FF80001FFE00
FF80003FFC00
FF80007FF800
FF8000FFF000
FF8003FFE000
FF800FFFE000
FFC03FFF8000
FFFFFFFF0000
FFFFFFFC0000
FFFFFFF80000
FFFFFFE00000
FFFFFF000000
FFFFFC000000
FFFFFC000000
FFFFFF000000
FF9FFF800000
FF87FFE00000
FF83FFF00000
FF81FFFC0000
FF807FFF0000
FF803FFFC000
FF801FFFFE00
FF8007FFFF80
FF8001FFFFC0
FF8000FFFFE0
FF80003FFFE0
FF80001FFFE0
FF80000FFFE0
FF800003FFC0
7F000000FF80
3E0000003F00
ENDCHAR
STARTCHAR 0053
ENCODING 83
SWIDTH 458 0
DWIDTH 44 0
BBX 37 68 5 0
BITMAP
000FFF8000
003FFFE000
00FFFFF000
03FFFFFC00
07FFFFFE00
0FFFFFFF00
1FFFFFFF00
3FFFFFFF00
7FFFFFFF00
7FFC07FF00
FFF001FE00
FFE000F800
FFC0000000
FF80000000
FF80000000
FF80000000
FF80000000
FF80000000
FFC0000000
7FC0000000
7FE0000000
7FF0000000
3FFC000000
3FFE000000
1FFF000000
0FFF800000
07FFE00000
03FFF00000
01FFFC0000
00FFFE0000
007FFF0000
003FFFC000
000FFFE000
0007FFF000
0001FFF800
0000FFFC00
00003FFE00
00001FFF00
00000FFF00
000007FF80
000003FFC0
000001FFC0
000000FFE0
0000007FE0
0000003FF0
0000001FF0
0000001FF0
0000000FF8
0000000FF8
0000000FF8
0000000FF8
0000000FF8
0000000FF8
3C00001FF8
7F00001FF0
FF80003FF0
FFC0003FF0
FFE000FFE0
FFF801FFE0
FFFF0FFFE0
7FFFFFFFC0
7FFFFFFF80
3FFFFFFF00
1FFFFFFE00
07FFFFFC00
01FFFFF800
00FFFFC000
001FFF0000
ENDCHAR
STARTCHAR 0054
ENCODING 84
SWIDTH 479 0
DWIDTH 46 0
BBX 42 68 3 1
BITMAP
3FFFFFFFFF00
7FFFFFFFFFC0
FFFFFFFFFFC0
FFFFFFFFFFC0
FFFFFFFFFFC0
FFFFFFFFFFC0
7FFFFFFFFFC0
3FFFFFFFFF80
0FFFFFFFFC00
0003FF800000
0001FF800000
0000FF800000
0000FF800000
0000FF800000
0000FF800000
0000FF800000
0000FF800000
0000FF800000
0000FF800000
0000FF800000
0000FF800000
0000FF800000
0000FF800000
0000FF800000
0000FF800000
0000FF800000
0000FF800000
0000FF800000
0000FF800000
0000FF800000
0000FF800000
0000FF800000
0000FF800000
0000FF800000
0000FF800000
0000FF800000
0000FF800000
0000FF800000
0000FF800000
0000FF800000
0000FF800000
0000FF800000
0000FF800000
0000FF800000
0000FF800000
0000FF800000
0000FF800000
0000FF800000
0000FF800000
0000FF800000
0000FF800000
0000FF800000
0000FF800000
0000FF800000
0000FF800000
0000FF800000
0000FF800000
0000FF800000
0000FF800000
0000FF800000
0000FF800000
0000FF800000
0000FF800000
0000FF800000
0000FF800000
00007F800000
00007F000000
00001E000000
ENDCHAR
STARTCHAR 0055
ENCODING 85
SWIDTH 604 0
DWIDTH 58 0
BBX 46 68 7 0
BITMAP
3E00000001E0
7F00000007F8
FF80000007F8
FF8000000FFC
FF8000000FFC
FF8000000FFC
FF8000000FFC
FF8000000FFC
FF8000000FFC
FF8000000FFC
FF8000000FFC
FF8000000FFC
FF8000000FFC
FF8000000FFC
FF8000000FFC
FF8000000FFC
FF8000000FFC
FF8000000FFC
FF8000000FFC
FF8000000FFC
FF8000000FFC
FF8000000FFC
FF8000000FFC
FF8000000FFC
FF8000000FFC
FF8000000FFC
FF8000000FFC
FF8000000FFC
FF8000000FFC
FF8000000FFC
FF8000000FFC
FF8000000FFC
FF8000000FFC
FF8000000FFC
FF8000000FFC
FF8000000FFC
FF8000000FFC
FF8000000FFC
FF8000000FFC
FF8000000FFC
FF8000000FFC
FF8000000FFC
FF8000000FFC
FF8000000FFC
FF8000000FFC
FF8000000FFC
FF8000000FFC
FF8000000FFC
FF8000000FFC
FF8000000FFC
FF8000000FFC
FF8000000FFC
FF8000000FFC
FFC000000FFC
FFC000001FFC
FFE000003FFC
FFF000007FFC
FFF80000FFFC
FFFC0001FFFC
FFFFC00FFFFC
FFFFFFFFFFFC
7FFFFFFFFFFC
3FFFFFFFFFFC
1FFFFFFFEFFC
0FFFFFFFCFFC
03FFFFFF8FFC
00FFFFFE07F8
003FFFF803E0
ENDCHAR
STARTCHAR 0056
ENCODING 86
SWIDTH 541 0
DWIDTH 52 0
BBX 52 68 0 0
BITMAP
1F000000001F80
3F800000003FE0
7FC00000003FE0
FFE00000007FF0
FFE00000007FF0
FFE00000007FF0
FFE00000007FF0
FFE00000007FE0
7FE00000007FE0
7FF00000007FE0
3FF00000007FC0
3FF00000007FC0
3FF0000000FF80
1FF8000000FF80
1FF8000000FF80
0FF8000000FF00
0FFC000001FF00
07FC000001FE00
07FC000003FE00
07FE000003FE00
03FE000003FC00
03FE000003FC00
03FF000007FC00
01FF000007FC00
01FF000007F800
01FF00000FF800
00FF80000FF800
00FF80000FF000
00FFC0001FF000
00FFC0001FE000
007FC0001FE000
007FC0003FE000
007FE0003FC000
003FE0003FC000
003FE0007FC000
001FF0007FC000
001FF0007F8000
001FF8007F8000
000FF800FF8000
000FF800FF0000
000FF800FF0000
000FF801FF0000
0007FC01FE0000
0007FC01FE0000
0007FC03FE0000
0003FE03FC0000
0003FE03FC0000
0003FF07F80000
0001FF07F80000
0001FF07F80000
0000FF07F80000
0000FF8FF00000
0000FF8FF00000
00007F9FE00000
00007FFFE00000
00007FFFE00000
00003FFFC00000
00003FFFC00000
00001FFFC00000
00001FFF800000
00001FFF800000
00000FFF000000
00000FFF000000
00000FFF000000
000007FF000000
000007FE000000
000003FC000000
000000F8000000
ENDCHAR
STARTCHAR 0057
ENCODING 87
SWIDTH 750 0
DWIDTH 72 0
BBX 72 68 0 0
BITMAP
1F00003C007800007C
3F8000FF00FE0000FE
7FC000FF01FE0001FF
FFC001FF81FF0003FF
FFE001FF83FF0003FF
FFE001FF83FF0003FF
FFE000FF83FF0003FF
FFE000FF83FF0003FE
FFE000FFC3FF0003FE
7FE0007FC3FF0003FC
7FE0007FC3FF0003FC
3FF0003FC3FF0007F8
3FF0003FE3FF0007F8
3FF0001FE3FF000FF0
1FF0001FE3FF000FF0
1FF8001FF3FE001FF0
0FF8000FF3FC001FE0
0FF8000FF3F8001FE0
0FFC000FFFF8001FC0
07FC0007FFF0003FC0
07FC0007FFF0003FC0
07FC0003FFE0007F80
03FE0003FFC0007F80
03FE0003FFC0007F00
03FF0003FF80007F00
01FF0001FF8000FF00
01FF0001FF0000FF00
00FF0000FE0001FE00
00FF8000FE0001FE00
00FF8000FC0001FC00
007F8000FC0001FC00
007FC000FC0003F800
007FC000FC0003F800
007FC000FE0003F800
003FE001FE0007F000
003FE001FF0007F000
003FE001FF000FF000
001FE001FF800FF000
001FF003FFC00FE000
001FF003FFC01FE000
000FF007FFE01FC000
000FF807FFE01FC000
000FF807FFE01F8000
000FF80FFFF03F8000
0007F80FF7F03F8000
0007FC0FF3F83F0000
0007FC1FE3FC7F0000
0003FC1FE3FC7F0000
0003FE1FE3FC7E0000
0001FE1FE3FE7E0000
0001FE3FC3FE7E0000
0001FE3FC3FE7C0000
0001FE3F83FE7C0000
0000FF3F83FE7C0000
0000FF3F83FEFC0000
0000FFFF03FFF80000
0000FFFF03FFF80000
00007FFF03FFF00000
00007FFE03FFF00000
00007FFE03FFF00000
00007FFE03FFE00000
00003FFE03FFE00000
00003FFC03FFE00000
00003FFC03FFC00000
00001FFC01FFC00000
00001FF801FF800000
000007F000FF800000
000003E0003E000000
ENDCHAR
STARTCHAR 0058
ENCODING 88
SWIDTH 541 0
DWIDTH 52 0
BBX 48 68 1 0
BITMAP
03C0000000F8
0FE0000001F8
0FF0000003FC
1FF8000007FC
1FF8000007FC
1FFC00000FFC
0FFC00000FFC
0FFE00001FF8
0FFE00001FF8
07FF00003FF0
03FF00003FE0
01FF80007FE0
01FFC0007FC0
00FFC000FFC0
007FE001FF80
007FE001FF00
003FF003FF00
001FF803FE00
001FF807FE00
000FFC07FC00
000FFE0FF800
0007FE1FF800
0003FF1FF000
0003FFBFF000
0001FFFFE000
0001FFFFE000
0000FFFFC000
00007FFFC000
00007FFF8000
00007FFF8000
00007FFF8000
00007FFF8000
00007FFF8000
00007FFF8000
0000FFFF8000
0000FFFF8000
0001FF3F8000
0001FF1FC000
0003FE1FE000
0007FC0FE000
0007FC07F000
0007F807F000
000FF803F800
000FF803F800
001FF003FC00
001FE001FE00
003FE000FE00
007FC000FF00
007FC0007F00
00FF80007F00
00FF80003F80
00FF00003F80
01FF00001FC0
03FE00001FC0
03FE00000FE0
07FC00000FE0
07FC00000FF0
0FF8000007F8
1FF8000007FC
3FF0000007FC
3FF0000003FE
7FE0000003FF
7FE0000003FF
FFE0000001FF
FFE0000001FF
7FC0000001FF
7FC0000000FF
1F000000003C
ENDCHAR
STARTCHAR 0059
ENCODING 89
SWIDTH 458 0
DWIDTH 44 0
BBX 42 68 1 1
BITMAP
7F0000003F00
FF8000007F00
FFC00000FF80
FFC00001FFC0
FFE00001FF80
FFE00003FF80
7FE00003FF80
3FF00007FF00
1FF80007FF00
1FF8000FFE00
0FFC000FFC00
07FC001FF800
07FE003FF000
03FE007FF000
03FF007FE000
01FF80FFC000
00FF80FF8000
00FFC1FF8000
007FC3FF0000
003FE3FF0000
003FFFFE0000
001FFFFC0000
001FFFF80000
000FFFF80000
0007FFF00000
0007FFE00000
0003FFE00000
0003FFC00000
0001FF800000
0001FF800000
0001FF000000
0001FF000000
0001FF000000
0001FF000000
0001FF000000
0001FF000000
0001FF000000
0001FF000000
0001FF000000
0001FF000000
0001FF000000
0001FF000000
0001FF000000
0001FF000000
0001FF000000
0001FF000000
0001FF000000
0001FF000000
0001FF000000
0001FF000000
0001FF000000
0001FF000000
0001FF000000
0001FF000000
0001FF000000
0001FF000000
0001FF000000
0001FF000000
0001FF000000
0001FF000000
0001FF000000
0001FF000000
0001FF000000
0001FF000000
0001FF000000
0001FF000000
0000FE000000
00007C000000
ENDCHAR
STARTCHAR 005A
ENCODING 90
SWIDTH 458 0
DWIDTH 44 0
BBX 45 68 0 0
BITMAP
007FFFFFFFE0
01FFFFFFFFF0
01FFFFFFFFF8
03FFFFFFFFF8
03FFFFFFFFF8
03FFFFFFFFF8
01FFFFFFFFF8
00FFFFFFFFF0
001FFFFFFFE0
00000001FFC0
00000001FF80
00000003FF80
00000003FF00
00000007FE00
0000000FFC00
0000001FFC00
0000001FF800
0000003FF800
0000003FF000
0000007FE000
0000007FE000
000000FFC000
000000FFC000
000001FF8000
000003FF8000
000007FF0000
000007FE0000
00000FFE0000
00001FFC0000
00001FF80000
00003FF80000
00003FF00000
00007FF00000
00007FE00000
0000FFE00000
0000FFC00000
0001FFC00000
0001FF800000
0003FF800000
0003FF000000
0007FE000000
000FFE000000
001FFC000000
003FF8000000
003FF8000000
007FF0000000
007FE0000000
007FE0000000
00FFC0000000
00FF80000000
01FF80000000
03FF00000000
07FF00000000
0FFE00000000
0FFC00000000
1FFC00000000
1FF800000000
3FF800000000
7FFE00000000
7FFFFFFFFF80
FFFFFFFFFFC0
FFFFFFFFFFE0
FFFFFFFFFFE0
FFFFFFFFFFE0
FFFFFFFFFFE0
7FFFFFFFFFC0
3FFFFFFFFF80
0FFFFFFFFE00
ENDCHAR
STARTCHAR 005B
ENCODING 91
SWIDTH 333 0
DWIDTH 32 0
BBX 21 79 10 -11
BITMAP
7FFFE0
FFFFF0
FFFFF8
FFFFF8
FFFFF8
FFFFF8
FFFFF8
FFFFF0
FF0000
FF0000
FF0000
FF0000
FF0000
FF0000
FF0000
FF0000
FF0000
FF0000
FF0000
FF0000
FF0000
FF0000
FF0000
FF0000
FF0000
FF0000
FF0000
FF0000
FF0000
FF0000
FF0000
FF0000
FF0000
FF0000
FF0000
FF0000
FF0000
FF0000
FF0000
FF0000
FF0000
FF0000
FF0000
FF0000
FF0000
FF0000
FF0000
FF0000
FF0000
FF0000
FF0000
FF0000
FF0000
FF0000
FF0000
FF0000
FF0000
FF0000
FF0000
FF0000
FF0000
FF0000
FF0000
FF0000
FF0000
FF0000
FF0000
FF0000
FF0000
FF0000
FF8000
FFFFF0
FFFFF8
FFFFF8
FFFFF8
FFFFF8
FFFFF8
7FFFF8
3FFFE0
ENDCHAR
STARTCHAR 005C
ENCODING 92
SWIDTH 354 0
DWIDTH 34 0
BBX 28 68 3 0
BITMAP
FE000000
FF000000
FF000000
7F000000
7F800000
7F800000
3F800000
3FC00000
3FC00000
3FC00000
1FC00000
1FE00000
1FE00000
0FE00000
0FF00000
0FF00000
07F00000
07F80000
07F80000
03F80000
03FC0000
03FC0000
01FC0000
01FE0000
01FE0000
01FE0000
00FE0000
00FF0000
00FF0000
007F0000
007F8000
007F8000
003F8000
003FC000
003FC000
001FC000
001FE000
001FE000
000FE000
000FF000
000FF000
000FF000
0007F800
0007F800
0007F800
0003F800
0003FC00
0003FC00
0001FC00
0001FE00
0001FE00
0000FE00
0000FF00
0000FF00
00007F00
00007F80
00007F80
00003F80
00003FC0
00003FC0
00003FC0
00001FC0
00001FE0
00001FE0
00000FE0
00000FF0
00000FF0
000007F0
ENDCHAR
STARTCHAR 005D
ENCODING 93
SWIDTH 333 0
DWIDTH 32 0
BBX 21 79 1 -11
BITMAP
7FFFF8
FFFFF8
FFFFF8
FFFFF8
FFFFF8
FFFFF8
7FFFF8
3FFFF8
000FF8
0007F8
0007F8
0007F8
0007F8
0007F8
0007F8
0007F8
0007F8
0007F8
0007F8
0007F8
0007F8
0007F8
0007F8
0007F8
0007F8
0007F8
0007F8
0007F8
0007F8
0007F8
0007F8
0007F8
0007F8
0007F8
0007F8
0007F8
0007F8
0007F8
0007F8
0007F8
0007F8
0007F8
0007F8
0007F8
0007F8
0007F8
0007F8
0007F8
0007F8
0007F8
0007F8
0007F8
0007F8
0007F8
0007F8
0007F8
0007F8
0007F8
0007F8
0007F8
0007F8
0007F8
0007F8
0007F8
0007F8
0007F8
0007F8
0007F8
0007F8
0007F8
0007F8
1FFFF8
7FFFF8
FFFFF8
FFFFF8
FFFFF8
FFFFF8
7FFFF8
3FFFF0
ENDCHAR
STARTCHAR 005F
ENCODING 95
SWIDTH 500 0
DWIDTH 48 0
BBX 50 8 -1 -21
BITMAP
FFFFFFFFFFFFC0
FFFFFFFFFFFFC0
FFFFFFFFFFFFC0
FFFFFFFFFFFFC0
FFFFFFFFFFFFC0
FFFFFFFFFFFFC0
FFFFFFFFFFFFC0
FFFFFFFFFFFFC0
ENDCHAR
STARTCHAR 0060
ENCODING 96
SWIDTH 270 0
DWIDTH 26 0
BBX 14 15 -4 55
BITMAP
1C00
7E00
FF00
FF80
FF80
7FC0
7FE0
3FF0
1FF8
0FF8
07FC
03FC
01FC
00FC
0030
ENDCHAR
STARTCHAR 0061
ENCODING 97
SWIDTH 500 0
DWIDTH 48 0
BBX 41 52 2 0
BITMAP
0001FFFF0000
001FFFFF8000
007FFFFFC000
00FFFFFFF000
01FFFFFFF800
01FFFFFFFC00
01FFFFFFFE00
01FFFFFFFE00
00FF807FFF00
00FE0007FF00
00780003FF80
00000001FF80
00000000FF80
00000000FF80
00000000FF80
0000FFFFFF80
0007FFFFFF80
001FFFFFFF80
007FFFFFFF80
01FFFFFFFF80
03FFFFFFFF80
07FFFFFFFF80
0FFFFFFFFF80
1FFF80FFFF80
1FFE001FFF80
3FF80003FF80
3FF00001FF80
7FE00001FF80
7FE00000FF80
7FC00000FF80
FF800000FF80
FF800000FF80
FF800000FF80
FF800000FF80
FF800000FF80
FF800000FF80
FFC00000FF80
FFC00000FF80
7FE00000FF80
7FF00001FF80
7FF80003FF80
3FFC0007FF80
1FFF001FFF80
0FFFFFFFFF80
0FFFFFFFFF80
07FFFFFFFF80
03FFFFFFFF80
01FFFFFFFF80
007FFFFFFF80
000FFFFC7F80
0003FFF03F00
0000FFC01E00
ENDCHAR
STARTCHAR 0062
ENCODING 98
SWIDTH 541 0
DWIDTH 52 0
BBX 44 68 6 0
BITMAP
3E0000000000
7F0000000000
FF8000000000
FF8000000000
FF8000000000
FF8000000000
FF8000000000
FF8000000000
FF8000000000
FF8000000000
FF8000000000
FF8000000000
FF8000000000
FF8000000000
FF8000000000
FFC000000000
FFFFFFC00000
FFFFFFF80000
FFFFFFFE0000
FFFFFFFF0000
FFFFFFFF8000
FFFFFFFFE000
FFFFFFFFE000
FFFFFFFFF000
FFFFFFFFF800
FFF8003FFC00
FFE0000FFE00
FFC00007FE00
FFC00003FF00
FF800001FF80
FF800001FF80
FF800000FFC0
FF8000007FC0
FF8000007FE0
FF8000003FE0
FF8000003FE0
FF8000003FE0
FF8000001FF0
FF8000001FF0
FF8000001FF0
FF8000001FF0
FF8000001FF0
FF8000001FF0
FF8000001FF0
FF8000001FF0
FF8000001FF0
FF8000001FF0
FF8000001FF0
FF8000001FF0
FF8000001FF0
FF8000001FF0
FF8000003FF0
FF8000003FF0
FF8000007FE0
FF8000007FE0
FFC000007FC0
FFC00000FFC0
FFE00001FF80
FFF00003FF80
FFF80007FF00
FFFFFFFFFE00
FFFFFFFFFC00
FFFFFFFFF800
FFFFFFFFF000
FFFFFFFFE000
FFFFFFFF0000
FFFFFFFC0000
FFFFFFC00000
ENDCHAR
STARTCHAR 0063
ENCODING 99
SWIDTH 375 0
DWIDTH 36 0
BBX 32 52 3 -1
BITMAP
001FFFF8
003FFFFC
007FFFFC
00FFFFFC
01FFFFFE
03FFFFFC
07FFFFFC
07FFFFFC
0FFFFFF0
0FFE0000
1FF00000
1FC00000
3F800000
7F800000
7F800000
7F800000
7F800000
FF800000
FF800000
FF800000
FF800000
FF800000
FF800000
FF800000
FF800000
FF800000
FF800000
FF800000
FF800000
FF800000
7FC00000
7FC00000
7FC00000
3FE00000
3FE00000
3FF00000
1FF00000
1FF80000
0FF80000
0FFC0000
07FE0000
03FF0000
01FFFFE0
00FFFFFC
007FFFFE
003FFFFE
001FFFFE
0007FFFF
0003FFFE
0000FFFE
00001FFC
000003F8
ENDCHAR
STARTCHAR 0064
ENCODING 100
SWIDTH 541 0
DWIDTH 52 0
BBX 44 68 3 0
BITMAP
000000000780
000000000FE0
000000001FF0
000000001FF0
000000001FF0
000000001FF0
000000001FF0
000000001FF0
000000001FF0
000000001FF0
000000001FF0
000000001FF0
000000001FF0
000000001FF0
000000001FF0
000000001FF0
00001FE01FF0
0003FFFC1FF0
000FFFFF1FF0
001FFFFFFFF0
007FFFFFFFF0
00FFFFFFFFF0
01FFFFFFFFF0
03FFFFFFFFF0
07FF8003FFF0
0FFF0000FFF0
0FFE00007FF0
1FFC00003FF0
1FF800003FF0
1FF000001FF0
3FF000001FF0
3FE000001FF0
7FE000001FF0
7FC000001FF0
7FC000001FF0
FF8000001FF0
FF8000001FF0
FF8000001FF0
FF8000001FF0
FF8000001FF0
FF8000001FF0
FF8000001FF0
FF8000001FF0
FF8000001FF0
FF8000001FF0
FF8000001FF0
FF8000001FF0
FF8000001FF0
FF8000001FF0
FFC000001FF0
FFC000001FF0
7FC000001FF0
7FE000001FF0
7FE000003FF0
3FF000003FF0
3FF800007FF0
3FFC0000FFF0
1FFF0003FFF0
1FFFE007FFF0
0FFFFC3FFFF0
07FFFFFFFFF0
03FFFFFFFFF0
01FFFFFFFFF0
00FFFFFFFFF0
007FFFFFFFF0
003FFFFE1FE0
000FFFF80FE0
0001FFC00780
ENDCHAR
STARTCHAR 0065
ENCODING 101
SWIDTH 458 0
DWIDTH 44 0
BBX 40 52 3 0
BITMAP
0007FF8000
001FFFF000
003FFFFC00
007FFFFE00
00FFFFFF80
01FFFFFFC0
03FFFFFFE0
07FFFFFFF0
0FE0003FF0
0FE0001FF8
1FC0000FF8
1FC0000FFC
3F80000FFC
3F80000FFC
7F80000FFE
7FFFFFFFFE
7FFFFFFFFE
FFFFFFFFFE
FFFFFFFFFE
FFFFFFFFFC
FFFFFFFFFC
FFFFFFFFF0
FFC0000000
FF80000000
FF80000000
FF80000000
FF80000000
FF80000000
FF80000000
7F80000000
7F80000000
7FC0000000
7FC0000000
7FC0000000
3FE0000000
3FE0000000
3FF0000000
1FF0000000
1FF8000000
0FF8000000
07FC000000
03FE000000
01FF800000
00FFFE0000
007FFFFFFE
003FFFFFFF
001FFFFFFF
000FFFFFFF
0001FFFFFE
00007FFFFE
00001FFFF8
000001FFC0
ENDCHAR
STARTCHAR 0066
ENCODING 102
SWIDTH 229 0
DWIDTH 22 0
BBX 23 68 1 0
BITMAP
000FF0
003FF8
007FFC
00FFFE
00FFFE
01FFFE
03FFFE
03FFFC
07FFF8
07FF00
07FC00
07FC00
07FC00
07FC00
07FC00
07FC00
7FFFF8
FFFFFC
FFFFFE
FFFFFE
FFFFFE
FFFFFE
FFFFFE
FFFFFC
7FFFF8
07FC00
07FC00
07FC00
07FC00
07FC00
07FC00
07FC00
07FC00
07FC00
07FC00
07FC00
07FC00
07FC00
07FC00
07FC00
07FC00
07FC00
07FC00
07FC00
07FC00
07FC00
07FC00
07FC00
07FC00
07FC00
07FC00
07FC00
07FC00
07FC00
07FC00
07FC00
07FC00
07FC00
07FC00
07FC00
07FC00
07FC00
07FC00
07FC00
07FC00
03FC00
03FC00
00F000
ENDCHAR
STARTCHAR 0067
ENCODING 103
SWIDTH 500 0
DWIDTH 48 0
BBX 43 63 3 -11
BITMAP
0003FFFFFF00
0007FFFFFFC0
000FFFFFFFC0
001FFFFFFFE0
007FFFFFFFE0
00FFFFFFFFE0
01FFFFFFFFC0
07FFFFFFFFC0
0FFF801FFFC0
0FFE0007FFC0
1FFC0003FFC0
3FF80001FFE0
3FF00000FFE0
7FE000007FE0
7FE000007FE0
FFC000007FE0
FFC000003FE0
FF8000003FE0
FF8000003FE0
FF8000003FE0
FF8000003FE0
FF8000003FE0
FF8000003FE0
FF8000003FE0
FF8000003FE0
FF8000003FE0
FFC000007FC0
7FC000007FC0
7FE00000FFC0
3FF00001FF80
1FF00003FF00
1FF80007FF00
0FFFFFFFFE00
07FFFFFFFC00
03FFFFFFF000
00FFFFFFE000
007FFFFF0000
007FFFFC0000
007FFF000000
00FF80000000
01FE00000000
03FFFFFFC000
07FFFFFFF000
07FFFFFFFC00
07FFFFFFFE00
07FFFFFFFF80
03FFFFFFFF80
01FFFFFFFFC0
00000007FFC0
00000003FFE0
00000001FFE0
38000001FFE0
7E000001FFE0
FF000007FFE0
FFC0001FFFC0
FFF800FFFFC0
FFFFFFFFFF80
7FFFFFFFFF00
3FFFFFFFFE00
1FFFFFFFF000
0FFFFFFFC000
03FFFFFE0000
00FFFFC00000
ENDCHAR
STARTCHAR 0068
ENCODING 104
SWIDTH 479 0
DWIDTH 46 0
BBX 35 68 5 0
BITMAP
3E00000000
7F00000000
FF80000000
FF80000000
FF80000000
FF80000000
FF80000000
FF80000000
FF80000000
FF80000000
FF80000000
FF80000000
FF80000000
FF80000000
FF80000000
FF80000000
FFFFFE0000
FFFFFFE000
FFFFFFF000
FFFFFFFC00
FFFFFFFE00
FFFFFFFF00
FFFFFFFF80
FFFFFFFF80
FFFF83FFC0
FFFC00FFC0
FFF0007FC0
FFC0003FE0
FFC0003FE0
FF80003FE0
FF80003FE0
FF80003FE0
FF80003FE0
FF80003FE0
FF80003FE0
FF80003FE0
FF80003FE0
FF80003FE0
FF80003FE0
FF80003FE0
FF80003FE0
FF80003FE0
FF80003FE0
FF80003FE0
FF80003FE0
FF80003FE0
FF80003FE0
FF80003FE0
FF80003FE0
FF80003FE0
FF80003FE0
FF80003FE0
FF80003FE0
FF80003FE0
FF80003FE0
FF80003FE0
FF80003FE0
FF80003FE0
FF80003FE0
FF80003FE0
FF80003FE0
FF80003FE0
FF80003FE0
FF80003FE0
FF80003FE0
7F80001FE0
7F00001FC0
1E00000F80
ENDCHAR
STARTCHAR 0069
ENCODING 105
SWIDTH 208 0
DWIDTH 20 0
BBX 10 68 5 0
BITMAP
3E00
7F80
FF80
FFC0
FFC0
FFC0
FFC0
FFC0
FFC0
FFC0
FF80
FF80
7F00
3C00
0000
0000
0000
3F00
7F80
FFC0
FFC0
FFC0
FFC0
FFC0
FFC0
FFC0
FFC0
FFC0
FFC0
FFC0
FFC0
FFC0
FFC0
FFC0
FFC0
FFC0
FFC0
FFC0
FFC0
FFC0
FFC0
FFC0
FFC0
FFC0
FFC0
FFC0
FFC0
FFC0
FFC0
FFC0
FFC0
FFC0
FFC0
FFC0
FFC0
FFC0
FFC0
FFC0
FFC0
FFC0
FFC0
FFC0
FFC0
FFC0
FFC0
7F80
3F00
1E00
ENDCHAR
STARTCHAR 006A
ENCODING 106
SWIDTH 208 0
DWIDTH 20 0
BBX 15 80 -1 -10
BITMAP
0078
00FC
01FE
01FE
01FE
01FE
01FE
01FE
01FE
01FE
01FC
01FC
00F8
0060
0000
0000
0000
00FC
00FE
01FE
01FE
01FE
01FE
01FE
01FE
01FE
01FE
01FE
01FE
01FE
01FE
01FE
01FE
01FE
01FE
01FE
01FE
01FE
01FE
01FE
01FE
01FE
01FE
01FE
01FE
01FE
01FE
01FE
01FE
01FE
01FE
01FE
01FE
01FE
01FE
01FE
01FE
01FE
01FE
01FE
01FE
01FE
01FE
01FE
01FE
01FE
01FE
01FE
01FE
01FE
01FE
03FE
3FFE
7FFE
FFFE
FFFE
FFFC
7FF8
3FE0
1F80
ENDCHAR
STARTCHAR 006B
ENCODING 107
SWIDTH 416 0
DWIDTH 40 0
BBX 34 68 6 0
BITMAP
3E00000000
7F00000000
FF80000000
FF80000000
FF80000000
FF80000000
FF80000000
FF80000000
FF80000000
FF80000000
FF80000000
FF80000000
FF80000000
FF80000000
FF80000000
FF80000000
FF80000F00
FF80001F80
FF80003FC0
FF80007FC0
FF80007FC0
FF8000FFC0
FF8000FFC0
FF8001FFC0
FF8001FF80
FF8003FF00
FF8007FE00
FF8007FC00
FF800FFC00
FF801FF800
FF801FF000
FF803FF000
FF807FE000
FF80FFC000
FF80FFC000
FF81FF8000
FF83FF0000
FF87FE0000
FF87FE0000
FF8FFC0000
FF9FF80000
FF9FF80000
FFBFF00000
FFFFE00000
FFFFC00000
FFFFC00000
FFFF800000
FFFF800000
FFFF800000
FFFFC00000
FFFFE00000
FFFFF80000
FFFFFC0000
FFFFFE0000
FFCFFF0000
FF87FF8000
FF83FFC000
FF81FFE000
FF80FFF000
FF807FFC00
FF803FFE00
FF801FFF00
FF800FFF80
FF8007FFC0
FF8003FFC0
7F8001FFC0
7F0000FF80
1E00007F00
ENDCHAR
STARTCHAR 006C
ENCODING 108
SWIDTH 208 0
DWIDTH 20 0
BBX 9 68 6 0
BITMAP
3E00
7F00
FF80
FF80
FF80
FF80
FF80
FF80
FF80
FF80
FF80
FF80
FF80
FF80
FF80
FF80
FF80
FF80
FF80
FF80
FF80
FF80
FF80
FF80
FF80
FF80
FF80
FF80
FF80
FF80
FF80
FF80
FF80
FF80
FF80
FF80
FF80
FF80
FF80
FF80
FF80
FF80
FF80
FF80
FF80
FF80
FF80
FF80
FF80
FF80
FF80
FF80
FF80
FF80
FF80
FF80
FF80
FF80
FF80
FF80
FF80
FF80
FF80
FF80
FF80
7F00
7F00
3E00
ENDCHAR
STARTCHAR 006D
ENCODING 109
SWIDTH 750 0
DWIDTH 72 0
BBX 60 52 6 0
BITMAP
1C01FF0000FF0000
7E07FFC003FFE000
7F0FFFE00FFFFC00
FFFFFFF03FFFFE00
FFFFFFFC7FFFFF00
FFFFFFFFFFFFFF80
FFFFFFFFFFFFFFC0
FFFFFFFFFFFFFFC0
FFFF9FFFFFE3FFE0
FFFC07FFFE00FFE0
FFE001FFF8003FE0
FFC000FFF0001FF0
FF8000FFF0001FF0
FF8000FFE0001FF0
FF8000FFE0001FF0
FF80007FC0001FF0
FF80007FC0001FF0
FF80007FC0001FF0
FF80007FC0001FF0
FF80007FC0001FF0
FF80007FC0001FF0
FF80007FC0001FF0
FF80007FC0001FF0
FF80007FC0001FF0
FF80007FC0001FF0
FF80007FC0001FF0
FF80007FC0001FF0
FF80007FC0001FF0
FF80007FC0001FF0
FF80007FC0001FF0
FF80007FC0001FF0
FF80007FC0001FF0
FF80007FC0001FF0
FF80007FC0001FF0
FF80007FC0001FF0
FF80007FC0001FF0
FF80007FC0001FF0
FF80007FC0001FF0
FF80007FC0001FF0
FF80007FC0001FF0
FF80007FC0001FF0
FF80007FC0001FF0
FF80007FC0001FF0
FF80007FC0001FF0
FF80007FC0001FF0
FF80007FC0001FF0
FF80007FC0001FF0
FF80007FC0001FF0
FF80007FC0001FF0
FF80003FC0000FF0
7F00003F80000FE0
3E00000F000003C0
ENDCHAR
STARTCHAR 006E
ENCODING 110
SWIDTH 479 0
DWIDTH 46 0
BBX 35 52 5 0
BITMAP
3C01FFC000
7E07FFF000
FE1FFFFC00
FF3FFFFE00
FFFFFFFF00
FFFFFFFF80
FFFFFFFFC0
FFFFFFFFE0
FFFFCFFFE0
FFFE01FFE0
FFF0007FE0
FFE0003FE0
FFC0003FE0
FF80003FE0
FF80003FE0
FF80003FE0
FF80003FE0
FF80003FE0
FF80003FE0
FF80003FE0
FF80003FE0
FF80003FE0
FF80003FE0
FF80003FE0
FF80003FE0
FF80003FE0
FF80003FE0
FF80003FE0
FF80003FE0
FF80003FE0
FF80003FE0
FF80003FE0
FF80003FE0
FF80003FE0
FF80003FE0
FF80003FE0
FF80003FE0
FF80003FE0
FF80003FE0
FF80003FE0
FF80003FE0
FF80003FE0
FF80003FE0
FF80003FE0
FF80003FE0
FF80003FE0
FF80003FE0
FF80003FE0
FF80003FE0
7F00001FE0
7F00001FC0
3E00000780
ENDCHAR
STARTCHAR 006F
ENCODING 111
SWIDTH 541 0
DWIDTH 52 0
BBX 47 52 3 0
BITMAP
00007FFF8000
0003FFFFE000
000FFFFFF800
003FFFFFFC00
007FFFFFFE00
00FFFFFFFF00
03FFFFFFFF80
03FFFFFFFF80
07FFFFFFFFC0
0FFF0000FFE0
0FFE00007FE0
1FF800001FF0
1FF800000FF0
3FF0000007F0
3FE0000003F8
7FE0000003FC
7FC0000003FC
7FC0000003FC
7F80000003FE
FF80000003FE
FF80000003FE
FF80000003FE
FF80000003FE
FF80000003FE
FF80000003FE
FF80000003FE
FF80000003FE
FF80000003FE
FFC0000003FE
FFC0000003FE
FFC0000003FE
FFC0000003FE
FFE0000003FE
FFE0000003FC
FFE0000003FC
7FF0000003FC
7FF0000007F8
7FF8000007F8
3FFC000007F8
1FFE00000FF0
1FFF00000FF0
0FFFC0003FE0
07FFF0007FC0
03FFFFFFFFC0
01FFFFFFFF80
00FFFFFFFE00
007FFFFFFC00
003FFFFFF800
000FFFFFF000
0003FFFFC000
0001FFFF0000
0000FFF00000
ENDCHAR
STARTCHAR 0070
ENCODING 112
SWIDTH 541 0
DWIDTH 52 0
BBX 44 63 6 -11
BITMAP
1C00FFE00000
7E07FFFC0000
7F1FFFFF0000
FFFFFFFFE000
FFFFFFFFF000
FFFFFFFFF800
FFFFFFFFFC00
FFFFFFFFFE00
FFFFFFFFFF00
FFFE003FFF80
FFF0000FFF80
FFE00003FFC0
FFC00001FFC0
FF800000FFC0
FF8000007FE0
FF8000007FE0
FF8000003FE0
FF8000003FF0
FF8000003FF0
FF8000003FF0
FF8000001FF0
FF8000001FF0
FF8000001FF0
FF8000001FF0
FF8000001FF0
FF8000001FF0
FF8000001FF0
FF8000001FF0
FF8000001FF0
FF8000001FF0
FF8000001FF0
FF8000001FF0
FF8000001FE0
FF8000001FE0
FF8000003FE0
FF8000003FE0
FF8000007FE0
FF8000007FC0
FFC00000FFC0
FFC00000FF80
FFE00001FF80
FFF00003FF00
FFFC000FFE00
FFFF803FFE00
FFFFFFFFFC00
FFFFFFFFF800
FFFFFFFFF000
FFFFFFFFE000
FFFFFFFFC000
FFFFFFFF0000
FFFFFFFE0000
FFFFFFE00000
FFC000000000
FF8000000000
FF8000000000
FF8000000000
FF8000000000
FF8000000000
FF8000000000
FF8000000000
FF8000000000
7F0000000000
3E0000000000
ENDCHAR
STARTCHAR 0071
ENCODING 113
SWIDTH 541 0
DWIDTH 52 0
BBX 45 63 2 -11
BITMAP
00000FFC01E0
0000FFFF03F0
0007FFFFC7F8
001FFFFFFFF8
003FFFFFFFF8
00FFFFFFFFF8
01FFFFFFFFF8
03FFFFFFFFF8
03FFF03FFFF8
07FFC003FFF8
0FFF0000FFF8
0FFE00007FF8
1FFC00003FF8
1FF800003FF8
3FF000001FF8
7FF000001FF8
7FE000000FF8
7FE000000FF8
7FC000000FF8
FFC000000FF8
FFC000000FF8
FF8000000FF8
FF8000000FF8
FF8000000FF8
FF8000000FF8
FF8000000FF8
FF8000000FF8
FF8000000FF8
FF8000000FF8
FF8000000FF8
FF8000000FF8
FF8000000FF8
FF8000000FF8
FF8000000FF8
FF8000000FF8
7FC000000FF8
7FC000000FF8
7FE000000FF8
3FF000000FF8
3FF800000FF8
1FFC00001FF8
0FFF00001FF8
0FFFC0003FF8
07FFF800FFF8
01FFFFFFFFF8
00FFFFFFFFF8
007FFFFFFFF8
003FFFFFFFF8
001FFFFFFFF8
0007FFFFFFF8
0000FFFFFFF8
00001FFFFFF8
000000000FF8
000000000FF8
000000000FF8
000000000FF8
000000000FF8
000000000FF8
000000000FF8
000000000FF8
000000000FF8
0000000007F0
0000000003E0
ENDCHAR
STARTCHAR 0072
ENCODING 114
SWIDTH 291 0
DWIDTH 28 0
BBX 22 52 6 0
BITMAP
3C01E0
7E0FF8
7F3FFC
FFFFFC
FFFFFC
FFFFFC
FFFFFC
FFFFFC
FFFFF8
FFFFF0
FFFC00
FFF000
FFE000
FFE000
FFC000
FFC000
FFC000
FF8000
FF8000
FF8000
FF8000
FF8000
FF8000
FF8000
FF8000
FF8000
FF8000
FF8000
FF8000
FF8000
FF8000
FF8000
FF8000
FF8000
FF8000
FF8000
FF8000
FF8000
FF8000
FF8000
FF8000
FF8000
FF8000
FF8000
FF8000
FF8000
FF8000
FF8000
FF8000
7F8000
7F0000
3E0000
ENDCHAR
STARTCHAR 0073
ENCODING 115
SWIDTH 395 0
DWIDTH 38 0
BBX 33 52 4 0
BITMAP
007FE00000
01FFFF8000
03FFFFE000
0FFFFFF000
1FFFFFF800
3FFFFFF800
7FFFFFF000
FFFFFF8000
FFF0000000
FFC0000000
FFC0000000
FF80000000
FF80000000
FF80000000
7FC0000000
7FE0000000
3FF0000000
3FFE000000
1FFFC00000
0FFFF00000
07FFFC0000
01FFFE0000
007FFF0000
001FFFC000
0007FFF000
0001FFF000
00007FF800
00001FFC00
00000FFE00
000007FE00
000003FF00
000001FF00
000001FF00
000000FF80
000000FF80
000000FF80
000000FF80
000000FF80
000000FF80
0C0001FF80
3E0001FF00
7F8007FF00
FFC00FFF00
FFFCFFFE00
FFFFFFFE00
FFFFFFFC00
7FFFFFF800
7FFFFFF000
3FFFFFE000
0FFFFFC000
07FFFF8000
01FFFE0000
ENDCHAR
STARTCHAR 0074
ENCODING 116
SWIDTH 250 0
DWIDTH 24 0
BBX 25 66 1 0
BITMAP
01F80000
03FC0000
07FC0000
07FC0000
07FC0000
07FC0000
07FC0000
07FC0000
07FC0000
07FC0000
07FC0000
07FC0000
07FC0000
07FC0000
3FFFFC00
7FFFFE00
FFFFFE00
FFFFFE00
FFFFFE00
FFFFFE00
FFFFFE00
7FFFFC00
7FFFF000
07FC0000
07FC0000
07FC0000
07FC0000
07FC0000
07FC0000
07FC0000
07FC0000
07FC0000
07FC0000
07FC0000
07FC0000
07FC0000
07FC0000
07FC0000
07FC0000
07FC0000
07FC0000
07FC0000
07FC0000
07FC0000
07FC0000
07FC0000
07FC0000
07FC0000
07FC0000
07FC0000
07FC0000
07FC0000
07FC0000
07FC0000
07FC0000
07FC0000
07FC0000
07FE0000
07FFFE00
03FFFF00
03FFFF80
01FFFF00
01FFFF00
00FFFF00
003FFE00
0007F000
ENDCHAR
STARTCHAR 0075
ENCODING 117
SWIDTH 479 0
DWIDTH 46 0
BBX 34 52 6 0
BITMAP
3E00001F00
7F00003F80
FF80003FC0
FF80007FC0
FF80007FC0
FF80007FC0
FF80007FC0
FF80007FC0
FF80007FC0
FF80007FC0
FF80007FC0
FF80007FC0
FF80007FC0
FF80007FC0
FF80007FC0
FF80007FC0
FF80007FC0
FF80007FC0
FF80007FC0
FF80007FC0
FF80007FC0
FF80007FC0
FF80007FC0
FF80007FC0
FF80007FC0
FF80007FC0
FF80007FC0
FF80007FC0
FF80007FC0
FF80007FC0
FF80007FC0
FF80007FC0
FF80007FC0
FF80007FC0
FF80007FC0
FF80007FC0
FF80007FC0
FF80007FC0
FF80007FC0
FF80007FC0
FFC000FFC0
7FC003FFC0
7FE00FFFC0
7FFC7FFFC0
7FFFFFFFC0
3FFFFFFFC0
3FFFFFFFC0
0FFFFFFFC0
07FFFFFFC0
03FFFFFFC0
00FFFE0FC0
001FF80380
ENDCHAR
STARTCHAR 0076
ENCODING 118
SWIDTH 416 0
DWIDTH 40 0
BBX 37 52 0 0
BITMAP
3E000007E0
7F80000FF0
FFC0000FF8
FFC0001FF8
FFC0001FF8
FFC0001FF8
FFC0003FF8
FFC0003FF0
7FC0003FF0
7FC0003FE0
3FC0007FE0
3FC0007FC0
1FC0007F80
1FC000FF80
1FC000FF00
0FC000FF00
0FC001FF00
0FC001FE00
07C001FE00
07E003FE00
07E003FC00
03E003FC00
03F007FC00
03F007F800
03F007F800
01F80FF000
01F80FF000
01F81FF000
00FC1FE000
00FC3FE000
00FE3FE000
007E3FC000
007E7FC000
007E7F8000
007E7F8000
007FFF8000
007FFF0000
003FFF0000
003FFF0000
003FFE0000
003FFE0000
003FFE0000
003FFE0000
001FFC0000
001FFC0000
001FFC0000
001FFC0000
001FF80000
001FF80000
000FF00000
000FF00000
0003C00000
ENDCHAR
STARTCHAR 0077
ENCODING 119
SWIDTH 583 0
DWIDTH 56 0
BBX 56 52 0 0
BITMAP
3F801FE00000FC
7FC01FF80001FF
FFE01FF80003FF
FFE01FFC0003FF
FFE01FFC0003FF
FFE01FFC0003FF
FFE01FFC0003FF
FFE01FFC0003FE
7FE01FFC0003FE
7FE01FFC0003FC
3FE01FFC0007FC
3FE01FFC0007F8
1FE01FFC000FF8
1FE01FFC000FF8
0FE01FFC000FF0
0FE01FFC000FF0
0FE00FFC001FF0
0FF00FFC001FE0
07F00FFC003FE0
07F807FC003FE0
07F807FE003FC0
07F80FFE007FC0
03FC0FFE00FFC0
03FC0FFF00FF80
03FC0FFF00FF80
01FE0FFF00FF00
01FE0FFF01FF00
01FF1FFF01FF00
00FF1FFF83FE00
00FF9FFF83FE00
007F9FFFC3FE00
007F9FFFC7FC00
007F9FFFC7FC00
003FDFFFE7FC00
003FDFDFE7F800
003FDFCFEFF800
003FFFCFFFF800
001FFF8FFFF000
001FFF87FFF000
001FFF87FFF000
000FFF07FFE000
000FFF03FFE000
000FFF03FFE000
000FFF01FFC000
0007FE01FFC000
0007FE01FFC000
0007FE01FFC000
0007FE00FFC000
0003FE00FFC000
0003FC00FF8000
0001FC007F0000
0000F8003E0000
ENDCHAR
STARTCHAR 0078
ENCODING 120
SWIDTH 458 0
DWIDTH 44 0
BBX 44 52 0 0
BITMAP
07E000003E00
0FF00000FF80
0FF80001FF80
0FF80001FF80
0FFC0001FF80
0FFC0003FF80
07FE0007FF00
07FF0007FF00
03FF000FFE00
01FF800FFC00
00FF801FF800
00FFC03FF000
007FE03FE000
007FE07FC000
003FF0FFC000
001FF0FF8000
001FF9FF0000
000FFFFF0000
000FFFFE0000
0007FFFC0000
0003FFFC0000
0003FFF80000
0003FFF80000
0007FFF80000
0007FFFC0000
000FFFFE0000
000FFFFE0000
001FFFFF0000
003FFBFF0000
003FF1FF0000
007FF0FF8000
007FE0FFC000
00FFC07FC000
00FFC07FE000
01FF803FE000
01FF003FF000
03FF001FF000
03FE000FF800
07FC000FFC00
0FFC0007FC00
0FF80007FE00
1FF80003FF00
1FF00003FF80
3FF00001FF80
7FE00001FFC0
7FE00000FFE0
FFC00000FFE0
FFC00000FFF0
FFC000007FF0
FF8000003FF0
FF8000001FE0
3E0000000F80
ENDCHAR
STARTCHAR 0079
ENCODING 121
SWIDTH 437 0
DWIDTH 42 0
BBX 41 63 0 -11
BITMAP
3E0000003E00
7F800000FF00
FFC00001FF80
FFC00001FF80
FFE00001FF80
FFE00003FF80
FFE00003FF00
FFE00003FF00
7FE00003FE00
7FE00003FE00
7FE00007FC00
3FE00007FC00
3FE00007F800
3FE0000FF800
3FE0000FF000
3FE0001FF000
1FE0001FE000
1FE0003FE000
0FE0003FC000
0FF0003FC000
07F0007FC000
07F8007F8000
03F8007F8000
03F800FF0000
03FC00FF0000
01FC01FE0000
01FC01FE0000
00FE03FE0000
00FE03FC0000
00FE03FC0000
007E07FC0000
007F07F80000
003F07F80000
003F8FF00000
003F8FF00000
003F8FF00000
001F8FE00000
001FDFE00000
001FFFC00000
001FFFC00000
001FFF800000
001FFF800000
000FFF800000
000FFF000000
000FFF000000
000FFF000000
000FFE000000
000FFE000000
000FFE000000
000FFC000000
000FFC000000
001FFC000000
001FF8000000
001FF8000000
003FF0000000
1FFFF0000000
7FFFF0000000
FFFFE0000000
FFFFC0000000
FFFF80000000
FFFF00000000
7FFE00000000
3FF000000000
ENDCHAR
STARTCHAR 007A
ENCODING 122
SWIDTH 395 0
DWIDTH 38 0
BBX 37 52 0 0
BITMAP
07FFFFFFE0
1FFFFFFFF0
1FFFFFFFF8
3FFFFFFFF8
3FFFFFFFF8
3FFFFFFFF0
3FFFFFFFF0
1FFFFFFFF0
0FFFFFFFE0
000003FFC0
000003FF80
000003FF00
000003FF00
000007FE00
00000FFC00
00000FFC00
00001FF800
00001FF800
00003FF000
00007FE000
00007FC000
0000FFC000
0000FF8000
0001FF8000
0001FF0000
0003FF0000
0007FE0000
0007FE0000
000FFC0000
001FF80000
001FF80000
003FF00000
003FF00000
007FE00000
00FFE00000
00FFC00000
01FFC00000
03FF800000
07FF000000
07FF000000
0FFE000000
0FFE000000
1FFC000000
3FFFFFFFC0
7FFFFFFFF0
7FFFFFFFF8
7FFFFFFFF8
FFFFFFFFF8
FFFFFFFFF8
7FFFFFFFF8
7FFFFFFFF0
1FFFFFFFE0
ENDCHAR
STARTCHAR 007B
ENCODING 123
SWIDTH 354 0
DWIDTH 34 0
BBX 24 96 7 -24
BITMAP
00007F
0003F8
000FF0
001FC0
003F80
007F80
00FF00
00FF00
01FF00
01FE00
01FE00
03FE00
03FE00
03FE00
03FE00
03FE00
03FE00
03FE00
03FE00
03FE00
03FE00
03FE00
03FE00
03FE00
03FE00
03FE00
03FE00
03FE00
03FE00
03FE00
03FE00
03FE00
03FE00
03FE00
03FE00
03FE00
03FE00
03FE00
03FC00
03FC00
07FC00
07FC00
07F800
07F800
0FF000
1FE000
3FC000
FF0000
FE0000
3F8000
1FE000
0FF000
0FF800
07F800
07FC00
07FC00
03FC00
03FE00
03FE00
03FE00
03FE00
03FE00
03FE00
03FE00
03FE00
03FE00
03FE00
03FE00
03FE00
03FE00
03FE00
03FE00
03FE00
03FE00
03FE00
03FE00
03FE00
03FE00
03FE00
03FE00
03FE00
03FE00
03FE00
03FE00
03FE00
01FE00
01FE00
01FF00
00FF00
00FF00
007F80
007F80
003FC0
000FE0
0007FC
00007F
ENDCHAR
STARTCHAR 007D
ENCODING 125
SWIDTH 354 0
DWIDTH 34 0
BBX 24 96 3 -24
BITMAP
FC0000
3FC000
0FF000
03FC00
03FE00
01FE00
00FF00
00FF80
00FF80
007F80
007F80
007FC0
007FC0
007FC0
007FC0
007FC0
007FC0
007FC0
007FC0
007FC0
007FC0
007FC0
007FC0
007FC0
007FC0
007FC0
007FC0
007FC0
007FC0
007FC0
007FC0
007FC0
007FC0
007FC0
007FC0
007FC0
007FC0
007FC0
007FC0
003FC0
003FC0
003FE0
001FE0
001FE0
000FF0
0007F8
0003FC
0000FF
00007F
0003FC
0007F8
000FF0
001FF0
001FE0
003FE0
003FE0
003FC0
003FC0
007FC0
007FC0
007FC0
007FC0
007FC0
007FC0
007FC0
007FC0
007FC0
007FC0
007FC0
007FC0
007FC0
007FC0
007FC0
007FC0
007FC0
007FC0
007FC0
007FC0
007FC0
007FC0
007FC0
007FC0
007FC0
007FC0
007FC0
007FC0
007F80
007F80
00FF80
00FF00
00FE00
01FE00
03FC00
07F000
1FE000
FE0000
ENDCHAR
STARTCHAR 00A1
ENCODING 161
SWIDTH 250 0
DWIDTH 24 0
BBX 9 68 5 0
BITMAP
3C00
7F00
7F00
FF80
FF80
FF80
FF80
FF80
FF80
FF80
7F80
3F00
0000
0000
0000
2000
7000
F800
F800
FC00
FF00
FF00
FF80
FF80
FF80
FF80
FF80
FF80
FF80
FF80
FF80
FF80
FF80
FF80
FF80
FF80
FF80
FF80
FF80
FF80
FF80
FF80
FF80
FF80
FF80
FF80
FF80
FF80
FF80
FF80
FF80
FF80
FF80
FF80
FF80
FF80
FF80
FF80
FF80
FF80
FF80
FF80
FF80
FF80
FF80
FF80
7F00
1E00
ENDCHAR
STARTCHAR 00A3
ENCODING 163
SWIDTH 500 0
DWIDTH 48 0
BBX 45 68 2 0
BITMAP
00000007FF00
0000003FFFC0
000000FFFFE0
000001FFFFF0
000003FFFFF0
000007FFFFF0
00000FFFFFF8
00000FFFFFF8
00001FF80FF0
00003FE007F0
00003FC003C0
00007F800000
00007F000000
00007F000000
0000FE000000
0000FE000000
001FFFFF8000
003FFFFFC000
007FFFFFE000
00FFFFFFF000
00FFFFFFF000
00FFFFFFF000
00FFFFFFE000
00FFFFFFE000
00FFFFFFC000
00FFFFFE0000
003FE0000000
003FC0000000
007FC0000000
007FC0000000
007FC0000000
007F80000000
00FF80000000
00FF80000000
00FF80000000
00FF80000000
00FF80000000
00FF80000000
00FF80000000
00FF80000000
00FF80000000
00FF80000000
00FF80000000
00FF80000000
00FF80000000
00FF80001000
00FF80007E00
00FF8000FF00
00FF8001FF00
00FF8001FF00
00FF8001FF00
00FF8001FF00
00FF8001FF00
00FF8001FF00
00FF8001FF00
00FF8001FF00
00FF8001FF00
00FF8001FF00
00FF8003FF00
0FFFFFFFFF00
3FFFFFFFFF00
7FFFFFFFFF00
7FFFFFFFFF00
FFFFFFFFFF00
FFFFFFFFFF00
7FFFFFFFFE00
7FFFFFFFFE00
3FFFFFFFFC00
ENDCHAR
STARTCHAR 00A7
ENCODING 167
SWIDTH 500 0
DWIDTH 48 0
BBX 45 79 2 -11
BITMAP
00077FF80000
000FFFFE0000
001FFFFF0000
003FFFFF8000
003FFFFFC000
007FFFFFE000
00FFFFFFF000
01FFFFFFF000
03FFC01FF800
07FF0007FC00
07FF0003FE00
07FE0003FF00
0FFE0003FF00
0FFE0007FF00
0FFE000FFF00
0FFE000FFE00
0FFE000FFE00
0FFF000FFC00
07FF000FF800
07FF8007F000
07FFC0000000
03FFE0000000
01FFF8000000
01FFFE000000
03FFFFE00000
03FFFFFC0000
07FFFFFF8000
0FFFFFFFE000
1FFFFFFFFC00
3FF1FFFFFE00
3FE07FFFFF80
7FC01FFFFF80
7FC001FFFFC0
FF80007FFFE0
FF800007FFF0
FF800001FFF0
FF800000FFF8
FF8000003FF8
FFC000003FF8
7FE000001FF8
7FF000001FF8
7FFC00000FF8
3FFF80000FF8
3FFFF0001FF8
1FFFFC001FF0
07FFFF003FF0
03FFFFE07FE0
00FFFFFFFFE0
003FFFFFFFC0
000FFFFFFF80
0003FFFFFF00
00007FFFFE00
00000FFFF800
000001FFF800
000000FFFC00
0000003FFC00
0000001FFE00
0000000FFE00
00000007FF00
01F80007FF00
07FC0003FF00
07FE0003FF00
0FFE0003FF00
0FFE0003FF00
0FFE0003FF00
0FFE0007FF00
0FFE0007FF00
0FFE0007FE00
0FFE000FFE00
07FE001FFC00
07FF00FFFC00
03FFFFFFF800
03FFFFFFF000
01FFFFFFE000
00FFFFFFC000
003FFFFF8000
001FFFFE0000
0007FFF80000
00007F800000
ENDCHAR
STARTCHAR 00A8
ENCODING 168
SWIDTH 270 0
DWIDTH 26 0
BBX 20 13 -5 55
BITMAP
1C01F0
7F07F0
7F8FF0
FF8FF0
FF8FF0
FF8FF0
FF8FF0
FF8FF0
FF8FF0
FF8FF0
FF8FF0
7F0FE0
3E03E0
ENDCHAR
STARTCHAR 00A9
ENCODING 169
SWIDTH 833 0
DWIDTH 80 0
BBX 68 68 6 0
BITMAP
0000000FFF80000000
000000FFFFF8000000
000007FFFFFF000000
00001FF000FFC00000
00007F00000FF00000
0001F8000001F80000
0003E00000007E0000
0007800000001F0000
001F000000000F8000
003E0000000007C000
00780000000001E000
00F00003FF0000F000
01E0003FFFE0007800
01C000FFFFFC003C00
03C003FFFFFE001C00
078007FFFFFF801E00
07000FFFFFFFC00E00
0F001FFFFFFFE00700
0E003FFC03FFF00780
1C007FE0007FF80380
1C00FFC0001FF00380
3800FF00000FE001C0
3801FE000007C001C0
3803FC0000038000E0
7003FC0000010000E0
7003F80000000000E0
7007F80000000000E0
7007F0000000000060
E007F0000000000070
E00FF0000000000070
E00FE0000000000070
E00FE0000000000070
E00FE0000000000070
E00FE0000000000070
E00FE0000000000070
E00FE0000000000070
E00FE0000000000070
E00FE0000000000070
E00FF0000000000070
F007F0000000000070
F007F00000000000F0
7007F80000000000E0
7007F80000000000E0
7803FC0000000000E0
7803FE0000018001E0
3801FF000003C001E0
3C01FF80000FE001C0
3C00FFC0001FF003C0
1E007FF0007FF80380
1E003FFE01FFF00780
0F003FFFFFFFE00F00
0F801FFFFFFFC00F00
078007FFFFFF801E00
07C003FFFFFE003E00
03E000FFFFF8003C00
01F0003FFFE0007800
00F80003FF0000F000
007C0000000003E000
003E0000000007C000
001F800000000F8000
000FC00000003F0000
0007F0000000FE0000
0001FC000003F80000
00007F80001FE00000
00001FF801FFC00000
000007FFFFFE000000
000000FFFFF0000000
0000000FFF00000000
ENDCHAR
STARTCHAR 00AB
ENCODING 171
SWIDTH 395 0
DWIDTH 38 0
BBX 34 34 2 9
BITMAP
0007000E00
001F803F00
003FC07F80
003FC07F80
007FC0FF80
00FFC1FF80
00FFC1FF80
01FF83FF80
03FF87FF00
03FF07FE00
07FE0FFC00
0FFC1FF800
0FFC1FF000
1FF83FF000
3FF07FE000
7FE0FFC000
FFC0FF8000
FFC1FF8000
FFC1FFC000
7FE0FFC000
3FF07FE000
1FF83FF000
0FFC1FF800
07FC1FFC00
03FE0FFE00
03FF07FF00
01FF83FF00
00FF81FF80
00FFC1FFC0
007FE0FFC0
003FE07FC0
001FC03F80
001FC03F80
000F801F00
ENDCHAR
STARTCHAR 00AE
ENCODING 174
SWIDTH 833 0
DWIDTH 80 0
BBX 68 68 6 0
BITMAP
0000000FFF00000000
000000FFFFF0000000
000007FFFFFE000000
00001FF000FF800000
00007F00000FE00000
0001F8000001F80000
0003E00000007C0000
0007800000001F0000
001F000000000F8000
003E0000000007C000
00780000000001E000
00F00000000000F000
01E00FFFFFE0007000
01C00FFFFFFC003800
03C00FFFFFFE001C00
07800FFFFFFF001E00
07000FFFFFFF800E00
0F000FFFFFFFC00700
0E000FF000FFC00700
1C000FF0007FC00380
1C000FF0003FE00380
38000FF0001FE001C0
38000FF0001FE001C0
38000FF0001FE000C0
70000FF0001FE000E0
70000FF0001FE000E0
70000FF0001FE000E0
70000FF0003FC00060
E0000FF0003FC00070
E0000FF000FF800070
E0000FFFFFFF000070
E0000FFFFFFE000070
E0000FFFFFFC000070
E0000FFFFFE0000070
E0000FFFFFF8000070
E0000FFFFFFC000070
E0000FF007FE000070
E0000FF001FE000070
E0000FF000FF000070
F0000FF0007F000070
70000FF0007F0000E0
70000FF0003F8000E0
70000FF0003F8000E0
78000FF0003F8000E0
38000FF0003F8001C0
38000FF0001F8001C0
3C000FF0001F8001C0
1C000FF0001F800380
1E000FF0001FC00380
0E000FF0001FC00700
0F000FF0001FC00700
07800FF0001FC00E00
07800FF0001FE01E00
03C00FF0001FE03C00
01E00FF0001FE03800
00F000000000007000
00F80000000000F000
007C0000000001E000
003E0000000007C000
001F800000000F8000
0007C00000001E0000
0003F00000007C0000
0001FC000001F80000
00007F80000FE00000
00001FF800FF800000
000007FFFFFE000000
000000FFFFF0000000
0000000FFF00000000
ENDCHAR
STARTCHAR 00B4
ENCODING 180
SWIDTH 270 0
DWIDTH 26 0
BBX 14 15 -1 56
BITMAP
01F8
03FC
07FC
07FC
0FFC
1FFC
1FF8
3FF0
7FE0
7FC0
FF80
FF00
FE00
F800
3000
ENDCHAR
STARTCHAR 00B7
ENCODING 183
SWIDTH 187 0
DWIDTH 18 0
BBX 13 13 3 22
BITMAP
0F80
3FE0
7FF0
7FF0
FFF8
FFF8
FFF8
FFF8
FFF8
7FF0
7FF0
3FE0
0F80
ENDCHAR
STARTCHAR 00B8
ENCODING 184
SWIDTH 270 0
DWIDTH 26 0
BBX 11 21 1 -24
BITMAP
1E00
FF80
FFC0
FFE0
FFE0
FFE0
FFE0
FFE0
7FC0
7FC0
3FC0
3FC0
3F80
7F80
7F00
FF00
FE00
FE00
FC00
F800
7000
ENDCHAR
STARTCHAR 00BB
ENCODING 187
SWIDTH 395 0
DWIDTH 38 0
BBX 33 34 3 9
BITMAP
1C00300000
3E00F80000
7F01FC0000
7F01FE0000
FF81FF0000
7FC1FF8000
7FC1FF8000
7FE0FFC000
3FF07FC000
1FF87FE000
0FF83FF000
07FC1FF800
03FE0FFC00
01FF07FE00
01FF83FF00
00FFC3FF00
00FFC1FF80
00FFC1FF80
00FF83FF80
01FF03FF00
03FF07FE00
07FE0FFC00
07FC1FF800
0FFC3FF000
1FF83FF000
3FF07FE000
3FF0FFC000
7FE0FFC000
7FC1FF8000
7F81FF0000
7F81FF0000
7F01FE0000
7E00FC0000
3C00780000
ENDCHAR
STARTCHAR 00BF
ENCODING 191
SWIDTH 375 0
DWIDTH 36 0
BBX 29 68 1 0
BITMAP
0007E000
000FF000
000FF800
001FF800
001FF800
001FF800
001FF800
001FF800
001FF800
001FF800
000FF800
000FF000
0003F000
00000000
0007E000
00FFF800
03FFFE00
07FFFF00
0FFFFF80
0FFFFF80
0FFFFFC0
0FFFFFC0
0FF87FC0
07F03FE0
01E03FE0
00001FE0
00001FE0
00001FE0
00001FE0
00003FE0
00003FE0
00007FC0
0000FFC0
0001FFC0
0007FF80
000FFF00
001FFF00
003FFC00
003FF800
007FF000
01FFE000
03FFC000
07FF0000
0FFE0000
1FFC0000
3FF80000
3FF00000
7FE00200
7FE007C0
FFC007F0
FFC00FF0
FF800FF8
FF800FF8
FF8007F8
FF8007F8
FF8003F8
FFC003F8
FFC007F8
FFE00FF8
7FF01FF8
7FFEFFF0
3FFFFFF0
1FFFFFE0
0FFFFFC0
0FFFFF80
03FFFF00
01FFFC00
007FE000
ENDCHAR
STARTCHAR 00C0
ENCODING 192
SWIDTH 562 0
DWIDTH 54 0
BBX 53 86 0 1
BITMAP
00000F80000000
00001FC0000000
00003FE0000000
00003FF0000000
00001FF0000000
00001FF8000000
00000FFC000000
000007FE000000
000003FE000000
000001FF000000
000000FF000000
0000007F000000
0000003F000000
0000000F000000
00000000000000
00000000000000
00000000000000
00000000000000
000000F8000000
000001FC000000
000003FE000000
000003FF000000
000007FF000000
000007FF800000
000007FF800000
000007FF800000
00000FFF800000
00000FFFC00000
00001FFFC00000
00001FFFC00000
00001FFFE00000
00001FFFE00000
00003FFFE00000
00003FFFF00000
00007FDFF00000
00007FCFF00000
00007F8FF80000
0000FF8FF80000
0000FF87FC0000
0000FF87FC0000
0001FF07FC0000
0001FF07FE0000
0001FF03FE0000
0003FE03FE0000
0003FE03FF0000
0003FE03FF0000
0007FC01FF0000
0007FC01FF8000
000FF800FF8000
000FF800FF8000
001FF800FFC000
001FF0007FC000
001FF0007FE000
001FE0007FE000
003FE0003FF000
003FE0003FF000
003FC0003FF000
007FC0001FF000
007FC0001FF800
007F80000FF800
00FF80000FF800
00FFC0001FFC00
00FFFFFFFFFC00
01FFFFFFFFFC00
01FFFFFFFFFE00
03FFFFFFFFFE00
03FFFFFFFFFE00
07FFFFFFFFFE00
07FFFFFFFFFF00
07FFFFFFFFFF00
0FFE000001FF80
0FFC000000FF80
0FF8000000FF80
1FF8000000FFC0
1FF80000007FC0
1FF00000007FE0
3FF00000003FE0
3FE00000003FF0
7FE00000003FF0
7FE00000003FF8
FFE00000003FF8
FFE00000001FF8
FFE00000001FF8
7FC00000001FF8
7FC00000000FF0
1F0000000007E0
ENDCHAR
STARTCHAR 00C1
ENCODING 193
SWIDTH 562 0
DWIDTH 54 0
BBX 53 87 0 1
BITMAP
00000007800000
0000000FC00000
0000001FE00000
0000003FE00000
0000003FE00000
0000007FE00000
000000FFE00000
000001FFC00000
000001FF800000
000003FF000000
000007FE000000
000007FC000000
000007F8000000
000003E0000000
000001C0000000
00000000000000
00000000000000
00000000000000
00000000000000
000000F8000000
000001FC000000
000003FE000000
000003FF000000
000007FF000000
000007FF800000
000007FF800000
000007FF800000
00000FFF800000
00000FFFC00000
00001FFFC00000
00001FFFC00000
00001FFFE00000
00001FFFE00000
00003FFFE00000
00003FFFF00000
00007FDFF00000
00007FCFF00000
00007F8FF80000
0000FF8FF80000
0000FF87FC0000
0000FF87FC0000
0001FF07FC0000
0001FF07FE0000
0001FF03FE0000
0003FE03FE0000
0003FE03FF0000
0003FE03FF0000
0007FC01FF0000
0007FC01FF8000
000FF800FF8000
000FF800FF8000
001FF800FFC000
001FF0007FC000
001FF0007FE000
001FE0007FE000
003FE0003FF000
003FE0003FF000
003FC0003FF000
007FC0001FF000
007FC0001FF800
007F80000FF800
00FF80000FF800
00FFC0001FFC00
00FFFFFFFFFC00
01FFFFFFFFFC00
01FFFFFFFFFE00
03FFFFFFFFFE00
03FFFFFFFFFE00
07FFFFFFFFFE00
07FFFFFFFFFF00
07FFFFFFFFFF00
0FFE000001FF80
0FFC000000FF80
0FF8000000FF80
1FF8000000FFC0
1FF80000007FC0
1FF00000007FE0
3FF00000003FE0
3FE00000003FF0
7FE00000003FF0
7FE00000003FF8
FFE00000003FF8
FFE00000001FF8
FFE00000001FF8
7FC00000001FF8
7FC00000000FF0
1F0000000007E0
ENDCHAR
STARTCHAR 00C2
ENCODING 194
SWIDTH 562 0
DWIDTH 54 0
BBX 53 86 0 0
BITMAP
000000FE000000
000001FF000000
000007FF000000
000007FF800000
00001FFFC00000
00003FFFE00000
00007FFFF80000
0001FFFFFC0000
0001FFC7FE0000
0003FF03FE0000
0003FE01FE0000
0003F801FE0000
0001F800FC0000
0000E0007C0000
00000000000000
00000000000000
00000000000000
00000000000000
000000F8000000
000001FC000000
000003FE000000
000003FF000000
000007FF000000
000007FF800000
000007FF800000
000007FF800000
00000FFF800000
00000FFFC00000
00001FFFC00000
00001FFFC00000
00001FFFE00000
00001FFFE00000
00003FFFE00000
00003FFFF00000
00007FDFF00000
00007FCFF00000
00007F8FF80000
0000FF8FF80000
0000FF87FC0000
0000FF87FC0000
0001FF07FC0000
0001FF07FE0000
0001FF03FE0000
0003FE03FE0000
0003FE03FF0000
0003FE03FF0000
0007FC01FF0000
0007FC01FF8000
000FF800FF8000
000FF800FF8000
001FF800FFC000
001FF0007FC000
001FF0007FE000
001FE0007FE000
003FE0003FF000
003FE0003FF000
003FC0003FF000
007FC0001FF000
007FC0001FF800
007F80000FF800
00FF80000FF800
00FFC0001FFC00
00FFFFFFFFFC00
01FFFFFFFFFC00
01FFFFFFFFFE00
03FFFFFFFFFE00
03FFFFFFFFFE00
07FFFFFFFFFE00
07FFFFFFFFFF00
07FFFFFFFFFF00
0FFE000001FF80
0FFC000000FF80
0FF8000000FF80
1FF8000000FFC0
1FF80000007FC0
1FF00000007FE0
3FF00000003FE0
3FE00000003FF0
7FE00000003FF0
7FE00000003FF8
FFE00000003FF8
FFE00000001FF8
FFE00000001FF8
7FC00000001FF8
7FC00000000FF0
1F0000000007E0
ENDCHAR
STARTCHAR 00C3
ENCODING 195
SWIDTH 562 0
DWIDTH 54 0
BBX 53 86 1 0
BITMAP
00003FC01E0000
0000FFF03F0000
0001FFF83F0000
0001FFFE3F0000
0001FFFFFF0000
0003FFFFFF0000
0003FFFFFF0000
0003FFFFFF0000
0003FFFFFF0000
0003F07FFE0000
0003F01FFE0000
0001F007FC0000
0001E000F80000
00000000000000
00000000000000
00000000000000
00000000000000
00000000000000
000000F0000000
000003FC000000
000007FE000000
000007FE000000
000007FF000000
000007FF000000
00000FFF000000
00000FFF000000
00000FFF800000
00001FFF800000
00001FFF800000
00003FFFC00000
00003FFFC00000
00003FFFC00000
00003FFFE00000
00007FFFE00000
00007F9FE00000
0000FF9FF00000
0000FF9FF00000
0000FF1FF00000
0001FF0FF80000
0001FF0FF80000
0001FF0FFC0000
0003FE0FFC0000
0003FE07FC0000
0003FE07FE0000
0007FC03FE0000
0007FC03FE0000
0007F803FE0000
000FF803FF0000
000FF801FF0000
001FF001FF8000
001FF000FF8000
003FE000FFC000
003FE000FFC000
003FE0007FE000
003FC0007FE000
007FC0007FE000
007FC0003FE000
007F80003FF000
00FF80001FF000
00FF80001FF000
00FF80001FF800
01FF80003FF800
01FFFFFFFFF800
01FFFFFFFFF800
03FFFFFFFFFC00
03FFFFFFFFFC00
07FFFFFFFFFC00
07FFFFFFFFFE00
0FFFFFFFFFFE00
0FFFFFFFFFFE00
0FFC000003FF00
0FF8000001FF00
1FF8000001FF80
1FF0000000FF80
3FF0000000FF80
3FF00000007FC0
3FE00000007FC0
7FE00000007FE0
7FE00000007FE0
FFC00000007FF0
FFC00000003FF0
FFC00000003FF8
FFC00000003FF0
FFC00000001FF0
7F800000001FE0
3F0000000007C0
ENDCHAR
STARTCHAR 00C4
ENCODING 196
SWIDTH 562 0
DWIDTH 54 0
BBX 53 86 0 0
BITMAP
00000C00F80000
00001F01F80000
00007F83FC0000
0000FF83FC0000
0000FF87FC0000
0000FF87FC0000
0000FF87FC0000
0000FF87FC0000
0000FF87FC0000
0000FF87FC0000
0000FF87FC0000
00007F87FC0000
00007F03F80000
00003E03F00000
00000000000000
00000000000000
00000000000000
00000000000000
0000003C000000
000000FF000000
000001FF000000
000001FF800000
000001FF800000
000003FFC00000
000003FFC00000
000003FFC00000
000007FFC00000
000007FFE00000
00000FFFE00000
00000FFFE00000
00000FFFF00000
00001FFFF00000
00001FFFF00000
00001FFFF80000
00003FE7F80000
00003FC7F80000
00007FC7FC0000
00007F87FC0000
00007F87FC0000
0000FF87FE0000
0000FF87FE0000
0000FF87FE0000
0001FF03FF0000
0001FF03FF0000
0001FE03FF0000
0003FE01FF8000
0003FE01FF8000
0007FC01FF8000
0007FC00FFC000
000FF800FFC000
000FF8007FC000
000FF0007FE000
001FF0007FE000
001FE0003FF000
001FE0003FF000
003FE0003FF000
003FC0001FF800
003FC0001FF800
007F80001FF800
007F80000FF800
007F80000FFC00
00FF80001FFC00
00FFFFFFFFFC00
01FFFFFFFFFE00
01FFFFFFFFFE00
03FFFFFFFFFE00
03FFFFFFFFFF00
07FFFFFFFFFF00
07FFFFFFFFFF00
07FFFFFFFFFF00
07FC000001FF80
0FFC000000FF80
0FF8000000FFC0
0FF80000007FC0
1FF80000007FC0
1FF00000007FE0
3FF00000003FE0
3FE00000003FF0
7FE00000003FF0
7FE00000003FF8
FFE00000003FF8
FFE00000001FF8
FFC00000001FF8
7FC00000001FF8
7F800000000FF0
1F0000000003C0
ENDCHAR
STARTCHAR 00C5
ENCODING 197
SWIDTH 562 0
DWIDTH 54 0
BBX 53 88 0 1
BITMAP
000000FC000000
000003FE000000
000007FF000000
00000FFF800000
00001FFFC00000
00003F83C00000
00003E01E00000
00003C01E00000
00003C01E00000
00003C01E00000
00003E03E00000
00003F07C00000
00003FFFC00000
00001FFF800000
00001FFF000000
00000DFC000000
00000000000000
00000000000000
00000000000000
00000000000000
0000003C000000
000000FE000000
000001FF000000
000001FF800000
000003FF800000
000003FF800000
000003FFC00000
000007FFC00000
000007FFC00000
00000FFFC00000
00000FFFE00000
00000FFFE00000
00001FFFE00000
00001FFFF00000
00001FFFF00000
00003FFFF80000
00003FE7F80000
00007FC7F80000
00007FC7F80000
00007FC3FC0000
0000FFC3FC0000
0000FF81FE0000
0000FF81FE0000
0001FF81FE0000
0001FF01FF0000
0001FF00FF0000
0003FE00FF0000
0003FE00FF0000
0007FC00FF8000
0007FC00FF8000
000FFC007F8000
000FF8007FC000
001FF8007FC000
001FF0003FE000
001FF0003FE000
003FE0003FF000
003FE0003FF000
003FE0003FF000
003FC0001FF800
007FC0001FF800
007F80001FF800
00FF80001FF800
00FF80000FFC00
00FFC0001FFC00
01FFFFFFFFFC00
01FFFFFFFFFC00
03FFFFFFFFFE00
03FFFFFFFFFE00
07FFFFFFFFFE00
07FFFFFFFFFF00
07FFFFFFFFFF00
0FFFFFFFFFFF00
0FFC000001FF80
0FF8000000FF80
1FF8000000FF80
1FF8000000FFC0
1FF00000007FC0
3FF00000007FE0
3FF00000007FE0
7FE00000003FF0
7FE00000003FF0
FFE00000003FF8
FFE00000003FF8
FFC00000001FF8
FFC00000001FF8
FFC00000001FF8
7F800000000FF0
3F0000000007C0
ENDCHAR
STARTCHAR 00C6
ENCODING 198
SWIDTH 708 0
DWIDTH 68 0
BBX 67 68 0 0
BITMAP
0000001FFFFFFFFF80
0000003FFFFFFFFFC0
0000007FFFFFFFFFC0
0000007FFFFFFFFFC0
000000FFFFFFFFFFC0
000000FFFFFFFFFFC0
000001FFFFFFFFFF80
000001FFFFFFFFFF80
000003FFFFFFFFFF00
000003FFFF80000000
000007FDFF00000000
000007FDFF00000000
00000FF9FF00000000
00000FF9FF00000000
00000FF9FF00000000
00001FF1FF00000000
00001FF1FF00000000
00003FF1FF00000000
00003FE1FF00000000
00007FE1FF00000000
00007FC1FF00000000
00007FC1FF80000000
0000FF81FFFFFFFC00
0000FF81FFFFFFFE00
0001FF01FFFFFFFF00
0001FF01FFFFFFFF00
0001FE01FFFFFFFF00
0003FE01FFFFFFFF00
0003FC01FFFFFFFF00
0007FC01FFFFFFFC00
0007F801FFC0000000
000FF801FF00000000
000FF801FF00000000
000FF001FF00000000
001FF001FF00000000
001FF001FF00000000
001FE001FF00000000
001FE001FF00000000
003FE001FF00000000
003FE001FF00000000
007FC001FF00000000
007FC001FF00000000
007FC001FF00000000
00FFC001FF00000000
00FFE003FF00000000
00FFFFFFFF00000000
01FFFFFFFF00000000
01FFFFFFFF00000000
03FFFFFFFF00000000
03FFFFFFFF00000000
07FFFFFFFF00000000
07FFFFFFFF00000000
07FFFFFFFF00000000
07FE0001FF00000000
0FFC0001FF00000000
0FFC0001FF00000000
0FF80001FF00000000
1FF80001FF00000000
3FF00001FF80000000
3FF00001FFFFFFFF00
7FF00001FFFFFFFFC0
7FE00001FFFFFFFFC0
7FE00001FFFFFFFFE0
FFE00001FFFFFFFFC0
7FE00001FFFFFFFFC0
7FE00001FFFFFFFF80
3FC00000FFFFFFFF80
1F8000007FFFFFFE00
ENDCHAR
STARTCHAR 00C7
ENCODING 199
SWIDTH 520 0
DWIDTH 50 0
BBX 47 91 3 -23
BITMAP
000000FFFF80
00000FFFFFE0
00003FFFFFF0
0000FFFFFFF8
0003FFFFFFFC
0007FFFFFFFC
000FFFFFFFFE
001FFFFFFFFE
007FFFFFFFFE
00FFFE001FFC
01FFF80007FC
03FFC00001F8
07FF80000000
07FE00000000
0FFC00000000
1FF800000000
1FF000000000
3FE000000000
3FE000000000
3FC000000000
7FC000000000
7F8000000000
7F8000000000
FF8000000000
FF8000000000
FF8000000000
FF8000000000
FF8000000000
FF8000000000
FF8000000000
FF8000000000
FF8000000000
FF8000000000
FF8000000000
FF8000000000
FF8000000000
FF8000000000
FF8000000000
FF8000000000
FF8000000000
7F8000000000
7FC000000000
7FC000000000
7FE000000000
3FE000000000
3FF000000000
3FF000000000
1FF800000000
1FF800000000
0FFC00000000
0FFC00000000
07FE00000000
07FF00000000
03FF80000000
01FFC0000000
01FFE0000000
00FFF80000F0
007FFE0003F8
003FFFC03FFC
001FFFFFFFFE
000FFFFFFFFE
0007FFFFFFFE
0003FFFFFFFE
0000FFFFFFFC
00007FFFFFF8
00000FFFFFF0
000001FFFFC0
0000003FF000
000000000000
000000000000
0000001E0000
0000007F8000
0000007FC000
000000FFE000
000000FFE000
000000FFE000
000000FFE000
000000FFE000
000000FFE000
0000007FE000
0000007FE000
0000007FC000
0000007FC000
000000FF8000
000000FF0000
000000FF0000
000000FE0000
000000FE0000
000000FC0000
0000007C0000
000000300000
ENDCHAR
STARTCHAR 00C8
ENCODING 200
SWIDTH 458 0
DWIDTH 44 0
BBX 37 86 6 1
BITMAP
003F000000
003F000000
007F800000
007FC00000
007FC00000
003FE00000
003FF00000
001FF80000
000FFC0000
0007FC0000
0003FE0000
0001FE0000
00007C0000
00003C0000
0000000000
0000000000
0000000000
0000000000
1FFFFFFFE0
7FFFFFFFF0
FFFFFFFFF8
FFFFFFFFF8
FFFFFFFFF8
FFFFFFFFF8
FFFFFFFFF0
FFFFFFFFE0
FFFFFFFFC0
FFE0000000
FFC0000000
FFC0000000
FFC0000000
FFC0000000
FFC0000000
FFC0000000
FFC0000000
FFC0000000
FFC0000000
FFC0000000
FFC0000000
FFE0000000
FFFFFFFF00
FFFFFFFF80
FFFFFFFFC0
FFFFFFFFC0
FFFFFFFFE0
FFFFFFFFE0
FFFFFFFFC0
FFFFFFFF80
FFF8000000
FFE0000000
FFC0000000
FFC0000000
FFC0000000
FFC0000000
FFC0000000
FFC0000000
FFC0000000
FFC0000000
FFC0000000
FFC0000000
FFC0000000
FFC0000000
FFC0000000
FFC0000000
FFC0000000
FFC0000000
FFC0000000
FFC0000000
FFC0000000
FFC0000000
FFC0000000
FFC0000000
FFC0000000
FFC0000000
FFC0000000
FFC0000000
FFC0000000
FFFFFFFFC0
FFFFFFFFE0
FFFFFFFFF0
FFFFFFFFF8
FFFFFFFFF8
FFFFFFFFF8
FFFFFFFFF8
FFFFFFFFF0
7FFFFFFFC0
ENDCHAR
STARTCHAR 00C9
ENCODING 201
SWIDTH 458 0
DWIDTH 44 0
BBX 37 87 6 1
BITMAP
00001E0000
00003F8000
00007F8000
0000FF8000
0000FF8000
0001FF8000
0001FF8000
0003FF0000
0007FE0000
000FFC0000
000FF80000
001FF00000
000FE00000
000F800000
0007000000
0000000000
0000000000
0000000000
0000000000
1FFFFFFFE0
7FFFFFFFF0
FFFFFFFFF8
FFFFFFFFF8
FFFFFFFFF8
FFFFFFFFF8
FFFFFFFFF0
FFFFFFFFE0
FFFFFFFFC0
FFE0000000
FFC0000000
FFC0000000
FFC0000000
FFC0000000
FFC0000000
FFC0000000
FFC0000000
FFC0000000
FFC0000000
FFC0000000
FFC0000000
FFE0000000
FFFFFFFF00
FFFFFFFF80
FFFFFFFFC0
FFFFFFFFC0
FFFFFFFFE0
FFFFFFFFE0
FFFFFFFFC0
FFFFFFFF80
FFF8000000
FFE0000000
FFC0000000
FFC0000000
FFC0000000
FFC0000000
FFC0000000
FFC0000000
FFC0000000
FFC0000000
FFC0000000
FFC0000000
FFC0000000
FFC0000000
FFC0000000
FFC0000000
FFC0000000
FFC0000000
FFC0000000
FFC0000000
FFC0000000
FFC0000000
FFC0000000
FFC0000000
FFC0000000
FFC0000000
FFC0000000
FFC0000000
FFC0000000
FFFFFFFFC0
FFFFFFFFE0
FFFFFFFFF0
FFFFFFFFF8
FFFFFFFFF8
FFFFFFFFF8
FFFFFFFFF8
FFFFFFFFF0
7FFFFFFFC0
ENDCHAR
STARTCHAR 00CA
ENCODING 202
SWIDTH 458 0
DWIDTH 44 0
BBX 37 86 6 0
BITMAP
0003F80000
0007FC0000
000FFC0000
001FFE0000
007FFF0000
00FFFF8000
01FFFFE000
07FFFFF800
0FFF1FF800
0FFC0FFC00
0FF807F800
0FE007F800
07C003F000
038000F000
0000000000
0000000000
0000000000
0000000000
1FFFFFFFE0
7FFFFFFFF0
FFFFFFFFF8
FFFFFFFFF8
FFFFFFFFF8
FFFFFFFFF8
FFFFFFFFF0
FFFFFFFFE0
FFFFFFFFC0
FFE0000000
FFC0000000
FFC0000000
FFC0000000
FFC0000000
FFC0000000
FFC0000000
FFC0000000
FFC0000000
FFC0000000
FFC0000000
FFC0000000
FFE0000000
FFFFFFFF00
FFFFFFFF80
FFFFFFFFC0
FFFFFFFFC0
FFFFFFFFE0
FFFFFFFFE0
FFFFFFFFC0
FFFFFFFF80
FFF8000000
FFE0000000
FFC0000000
FFC0000000
FFC0000000
FFC0000000
FFC0000000
FFC0000000
FFC0000000
FFC0000000
FFC0000000
FFC0000000
FFC0000000
FFC0000000
FFC0000000
FFC0000000
FFC0000000
FFC0000000
FFC0000000
FFC0000000
FFC0000000
FFC0000000
FFC0000000
FFC0000000
FFC0000000
FFC0000000
FFC0000000
FFC0000000
FFC0000000
FFFFFFFFC0
FFFFFFFFE0
FFFFFFFFF0
FFFFFFFFF8
FFFFFFFFF8
FFFFFFFFF8
FFFFFFFFF8
FFFFFFFFF0
7FFFFFFFC0
ENDCHAR
STARTCHAR 00CB
ENCODING 203
SWIDTH 458 0
DWIDTH 44 0
BBX 37 86 6 0
BITMAP
003803C000
00FC0FE000
01FE0FF000
03FE1FF000
03FE1FF000
03FE1FF000
03FE1FF000
03FE1FF000
03FE1FF000
03FE1FF000
03FE1FF000
01FE1FF000
01FC0FE000
00F807C000
0000000000
0000000000
0000000000
0000000000
1FFFFFFFE0
7FFFFFFFF0
FFFFFFFFF8
FFFFFFFFF8
FFFFFFFFF8
FFFFFFFFF8
FFFFFFFFF0
FFFFFFFFE0
FFFFFFFFC0
FFE0000000
FFC0000000
FFC0000000
FFC0000000
FFC0000000
FFC0000000
FFC0000000
FFC0000000
FFC0000000
FFC0000000
FFC0000000
FFC0000000
FFE0000000
FFFFFFFF00
FFFFFFFF80
FFFFFFFFC0
FFFFFFFFE0
FFFFFFFFE0
FFFFFFFFE0
FFFFFFFFC0
FFFFFFFF80
FFF8000000
FFE0000000
FFC0000000
FFC0000000
FFC0000000
FFC0000000
FFC0000000
FFC0000000
FFC0000000
FFC0000000
FFC0000000
FFC0000000
FFC0000000
FFC0000000
FFC0000000
FFC0000000
FFC0000000
FFC0000000
FFC0000000
FFC0000000
FFC0000000
FFC0000000
FFC0000000
FFC0000000
FFC0000000
FFC0000000
FFC0000000
FFC0000000
FFC0000000
FFFFFFFFC0
FFFFFFFFE0
FFFFFFFFF0
FFFFFFFFF8
FFFFFFFFF8
FFFFFFFFF8
FFFFFFFFF8
FFFFFFFFF0
7FFFFFFFC0
ENDCHAR
STARTCHAR 00CC
ENCODING 204
SWIDTH 229 0
DWIDTH 22 0
BBX 12 86 4 1
BITMAP
7C00
FE00
FF00
FF00
FF80
7F80
7FE0
3FF0
1FF0
0FF0
07F0
03F0
00F0
0070
0000
0000
0000
0000
0780
0FE0
1FE0
1FF0
1FF0
1FF0
1FF0
1FF0
1FF0
1FF0
1FF0
1FF0
1FF0
1FF0
1FF0
1FF0
1FF0
1FF0
1FF0
1FF0
1FF0
1FF0
1FF0
1FF0
1FF0
1FF0
1FF0
1FF0
1FF0
1FF0
1FF0
1FF0
1FF0
1FF0
1FF0
1FF0
1FF0
1FF0
1FF0
1FF0
1FF0
1FF0
1FF0
1FF0
1FF0
1FF0
1FF0
1FF0
1FF0
1FF0
1FF0
1FF0
1FF0
1FF0
1FF0
1FF0
1FF0
1FF0
1FF0
1FF0
1FF0
1FF0
1FF0
1FF0
1FF0
1FF0
0FE0
07C0
ENDCHAR
STARTCHAR 00CD
ENCODING 205
SWIDTH 229 0
DWIDTH 22 0
BBX 12 87 7 1
BITMAP
01C0
07E0
07F0
0FF0
1FF0
1FF0
3FF0
7FE0
7FC0
FF80
FF00
FE00
FC00
F800
7000
0000
0000
0000
0000
3C00
7F00
FF00
FF80
FF80
FF80
FF80
FF80
FF80
FF80
FF80
FF80
FF80
FF80
FF80
FF80
FF80
FF80
FF80
FF80
FF80
FF80
FF80
FF80
FF80
FF80
FF80
FF80
FF80
FF80
FF80
FF80
FF80
FF80
FF80
FF80
FF80
FF80
FF80
FF80
FF80
FF80
FF80
FF80
FF80
FF80
FF80
FF80
FF80
FF80
FF80
FF80
FF80
FF80
FF80
FF80
FF80
FF80
FF80
FF80
FF80
FF80
FF80
FF80
FF80
FF80
7F00
3E00
ENDCHAR
STARTCHAR 00CE
ENCODING 206
SWIDTH 229 0
DWIDTH 22 0
BBX 24 86 -1 0
BITMAP
001FC0
007FC0
01FFE0
01FFE0
07FFE0
0FFFF0
1FFFFC
3FFFFE
7FE1FF
FFC0FF
FF80FF
7E007F
7E007E
38001C
000000
000000
000000
000000
003C00
007F00
00FF00
00FF80
00FF80
00FF80
00FF80
00FF80
00FF80
00FF80
00FF80
00FF80
00FF80
00FF80
00FF80
00FF80
00FF80
00FF80
00FF80
00FF80
00FF80
00FF80
00FF80
00FF80
00FF80
00FF80
00FF80
00FF80
00FF80
00FF80
00FF80
00FF80
00FF80
00FF80
00FF80
00FF80
00FF80
00FF80
00FF80
00FF80
00FF80
00FF80
00FF80
00FF80
00FF80
00FF80
00FF80
00FF80
00FF80
00FF80
00FF80
00FF80
00FF80
00FF80
00FF80
00FF80
00FF80
00FF80
00FF80
00FF80
00FF80
00FF80
00FF80
00FF80
00FF80
00FF80
007F00
003E00
ENDCHAR
STARTCHAR 00CF
ENCODING 207
SWIDTH 229 0
DWIDTH 22 0
BBX 21 86 1 0
BITMAP
1C01E0
3F03F0
7F07F0
7F07F0
7F07F8
FF07F8
FF07F8
FF07F8
FF07F8
FF07F8
7F07F0
7F07F0
7E07F0
3C01E0
000000
000000
000000
000000
00F000
01FC00
03FC00
03FE00
03FE00
03FE00
03FE00
03FE00
03FE00
03FE00
03FE00
03FE00
03FE00
03FE00
03FE00
03FE00
03FE00
03FE00
03FE00
03FE00
03FE00
03FE00
03FE00
03FE00
03FE00
03FE00
03FE00
03FE00
03FE00
03FE00
03FE00
03FE00
03FE00
03FE00
03FE00
03FE00
03FE00
03FE00
03FE00
03FE00
03FE00
03FE00
03FE00
03FE00
03FE00
03FE00
03FE00
03FE00
03FE00
03FE00
03FE00
03FE00
03FE00
03FE00
03FE00
03FE00
03FE00
03FE00
03FE00
03FE00
03FE00
03FE00
03FE00
03FE00
03FE00
03FE00
01FC00
00F800
ENDCHAR
STARTCHAR 00D1
ENCODING 209
SWIDTH 645 0
DWIDTH 62 0
BBX 50 86 5 0
BITMAP
00007FC03C0000
0001FFE07E0000
0001FFF07E0000
0003FFFC7E0000
0003FFFFFE0000
0007FFFFFE0000
0007FFFFFE0000
0007FFFFFE0000
0007FFFFFE0000
0007E0FFFC0000
0007E03FFC0000
0003E00FF80000
0001C001F00000
00000000000000
00000000000000
00000000000000
00000000000000
00000000000000
1F000000003F00
7F800000007F80
7FC0000000FFC0
FFC0000000FFC0
FFE0000000FFC0
FFF0000000FFC0
FFF0000000FFC0
7FF80000007FC0
7FF80000007FC0
7FFC0000007FC0
7FFE0000007F80
7FFE0000007F80
7FFF0000007F80
7FFF8000007F80
7FFFC000007F80
7FFFC000007F80
7FFFE000007F80
7FFFF000007F80
7FBFF000007F80
7F9FF800007F80
7F8FF800007F80
7F8FFC00007F80
7F87FE00007F80
7FC3FF00007F80
7FC3FF00007F80
7FC1FF80007F80
7FC1FF80007F80
7FC0FFC0007F80
7FC07FE0007F80
7FC03FF0007FC0
7FC03FF0007FC0
7FC01FF8007FC0
7FC01FF8007F80
7FC00FFC007F80
7F8007FE007F80
7FC003FE007FC0
7FC003FF007FC0
7FC001FF807FC0
7FC001FF807FC0
7FC000FFC07FC0
7FC0007FE07F80
7FC0003FE07F80
7FC0001FF07F80
7FC0001FF87F80
7F80001FF87F80
7F80000FFC7F80
7F80000FFC7FC0
7F800007FE7FC0
7F800003FF3FC0
7F800001FF3FC0
7FC00001FFFF80
7FC00000FFFF80
7FC000007FFFC0
7FC000007FFFC0
7FC000003FFFC0
7FC000001FFFC0
7FC000001FFFC0
7FC000000FFFC0
7FC0000007FFC0
7FC0000007FFC0
7FC0000003FFC0
7FC0000001FFC0
7FC0000001FFC0
7FE0000000FFC0
7FE00000007FC0
7FE00000007FC0
3FC00000003F80
1F800000001F00
ENDCHAR
STARTCHAR 00D2
ENCODING 210
SWIDTH 687 0
DWIDTH 66 0
BBX 60 86 3 1
BITMAP
000001F000000000
000003F800000000
000007FC00000000
000007FE00000000
000003FE00000000
000003FF00000000
000001FF80000000
000000FFC0000000
0000007FC0000000
0000003FE0000000
0000001FF0000000
0000000FF0000000
00000007E0000000
00000001E0000000
0000000000000000
0000000000000000
0000000000000000
0000000000000000
000001FFF0000000
00000FFFFF000000
00003FFFFFC00000
0000FFFFFFF00000
0003FFFFFFFC0000
000FFFFFFFFE0000
001FFFFFFFFF0000
003FFFFFFFFF8000
007FFF800FFFC000
00FFFC0003FFE000
01FFF00000FFF000
03FFE000003FF800
03FF8000001FFC00
07FF0000000FFE00
0FFE00000007FE00
0FFC00000007FF00
1FF800000003FF00
1FF800000001FF80
3FF000000001FF80
3FE000000000FFC0
3FE000000000FFC0
7FE0000000007FC0
7FC0000000007FE0
7FC0000000003FE0
7FC0000000003FE0
FFC0000000003FE0
FF80000000003FF0
FF80000000003FF0
FF80000000001FF0
FF80000000001FF0
FF80000000001FF0
FF80000000001FF0
FF80000000001FF0
FF80000000001FF0
FF80000000001FF0
FF80000000001FF0
FF80000000001FF0
FF80000000001FF0
FF80000000001FF0
FF80000000001FF0
FF80000000001FF0
FFC0000000001FF0
7FC0000000001FF0
7FC0000000003FF0
7FC0000000003FF0
3FE0000000007FE0
3FE0000000007FE0
3FF0000000007FE0
1FF000000000FFC0
1FF800000001FFC0
1FFC00000001FF80
0FFC00000003FF80
0FFE00000007FF00
07FF0000000FFE00
03FF8000001FFE00
03FFC000003FFC00
01FFE000007FF800
01FFF80001FFF000
00FFFE0007FFF000
007FFFE03FFFE000
003FFFFFFFFFC000
001FFFFFFFFF8000
000FFFFFFFFE0000
0007FFFFFFFC0000
0001FFFFFFF00000
00007FFFFFC00000
00000FFFFE000000
000003FFF0000000
ENDCHAR
STARTCHAR 00D3
ENCODING 211
SWIDTH 687 0
DWIDTH 66 0
BBX 60 87 3 1
BITMAP
00000000F0000000
00000001FC000000
00000003FC000000
00000007FC000000
00000007FC000000
0000000FFC000000
0000001FFC000000
0000003FF8000000
0000003FF0000000
0000007FE0000000
000000FFC0000000
000000FF80000000
000000FF00000000
0000007C00000000
0000003800000000
0000000000000000
0000000000000000
0000000000000000
0000000000000000
000001FFF0000000
00000FFFFF000000
00003FFFFFC00000
0000FFFFFFF00000
0003FFFFFFFC0000
000FFFFFFFFE0000
001FFFFFFFFF0000
003FFFFFFFFF8000
007FFF800FFFC000
00FFFC0003FFE000
01FFF00000FFF000
03FFE000003FF800
03FF8000001FFC00
07FF0000000FFE00
0FFE00000007FE00
0FFC00000007FF00
1FF800000003FF00
1FF800000001FF80
3FF000000001FF80
3FE000000000FFC0
3FE000000000FFC0
7FE0000000007FC0
7FC0000000007FE0
7FC0000000003FE0
7FC0000000003FE0
FFC0000000003FE0
FF80000000003FF0
FF80000000003FF0
FF80000000001FF0
FF80000000001FF0
FF80000000001FF0
FF80000000001FF0
FF80000000001FF0
FF80000000001FF0
FF80000000001FF0
FF80000000001FF0
FF80000000001FF0
FF80000000001FF0
FF80000000001FF0
FF80000000001FF0
FF80000000001FF0
FFC0000000001FF0
7FC0000000001FF0
7FC0000000003FF0
7FC0000000003FF0
3FE0000000007FE0
3FE0000000007FE0
3FF0000000007FE0
1FF000000000FFC0
1FF800000001FFC0
1FFC00000001FF80
0FFC00000003FF80
0FFE00000007FF00
07FF0000000FFE00
03FF8000001FFE00
03FFC000003FFC00
01FFE000007FF800
01FFF80001FFF000
00FFFE0007FFF000
007FFFE03FFFE000
003FFFFFFFFFC000
001FFFFFFFFF8000
000FFFFFFFFE0000
0007FFFFFFFC0000
0001FFFFFFF00000
00007FFFFFC00000
00000FFFFE000000
000003FFF0000000
ENDCHAR
STARTCHAR 00D4
ENCODING 212
SWIDTH 687 0
DWIDTH 66 0
BBX 60 86 3 0
BITMAP
0000000FC0000000
0000001FE0000000
0000003FE0000000
0000007FF0000000
000001FFF8000000
000003FFFC000000
00000FFFFF000000
00003FFFFFC00000
00007FF8FFC00000
00007FE07FE00000
00007FC03FC00000
00007F003FC00000
00003E001F800000
00001C000F800000
0000000000000000
0000000000000000
0000000000000000
0000000000000000
000001FFF0000000
00000FFFFF000000
00003FFFFFC00000
0000FFFFFFF00000
0003FFFFFFFC0000
000FFFFFFFFE0000
001FFFFFFFFF0000
003FFFFFFFFF8000
007FFF800FFFC000
00FFFC0003FFE000
01FFF00000FFF000
03FFE000003FF800
03FF8000001FFC00
07FF0000000FFE00
0FFE00000007FE00
0FFC00000007FF00
1FF800000003FF00
1FF800000001FF80
3FF000000001FF80
3FE000000000FFC0
3FE000000000FFC0
7FE0000000007FC0
7FC0000000007FE0
7FC0000000003FE0
7FC0000000003FE0
FFC0000000003FE0
FF80000000003FF0
FF80000000003FF0
FF80000000001FF0
FF80000000001FF0
FF80000000001FF0
FF80000000001FF0
FF80000000001FF0
FF80000000001FF0
FF80000000001FF0
FF80000000001FF0
FF80000000001FF0
FF80000000001FF0
FF80000000001FF0
FF80000000001FF0
FF80000000001FF0
FFC0000000001FF0
7FC0000000001FF0
7FC0000000003FF0
7FC0000000003FF0
3FE0000000007FE0
3FE0000000007FE0
3FF0000000007FE0
1FF000000000FFC0
1FF800000001FFC0
1FFC00000001FF80
0FFC00000003FF80
0FFE00000007FF00
07FF0000000FFE00
03FF8000001FFE00
03FFC000003FFC00
01FFE000007FF800
01FFF80001FFF000
00FFFE0007FFF000
007FFFE03FFFE000
003FFFFFFFFFC000
001FFFFFFFFF8000
000FFFFFFFFE0000
0007FFFFFFFC0000
0001FFFFFFF00000
00007FFFFFC00000
00000FFFFE000000
000003FFF0000000
ENDCHAR
STARTCHAR 00D5
ENCODING 213
SWIDTH 687 0
DWIDTH 66 0
BBX 60 86 3 0
BITMAP
000007FC03E00000
00001FFE03E00000
00001FFF83F00000
00003FFFC7F00000
00003FFFFFF00000
00003FFFFFF00000
00007FFFFFF00000
00007FFFFFF00000
00007FFFFFE00000
00007E0FFFE00000
00007E03FFE00000
00007E00FFC00000
00003E003F800000
0000000000000000
0000000000000000
0000000000000000
0000000000000000
0000000000000000
000001FFE0000000
00000FFFFE000000
00007FFFFFC00000
0001FFFFFFF00000
0003FFFFFFFC0000
000FFFFFFFFE0000
001FFFFFFFFF0000
003FFFFFFFFF8000
007FFF000FFFC000
00FFFC0003FFE000
01FFF00000FFF000
03FFC000007FF800
07FF8000003FFC00
07FF0000000FFE00
0FFE0000000FFE00
0FFC00000007FF00
1FF800000003FF00
1FF000000001FF80
3FF000000001FF80
3FE000000000FFC0
3FE000000000FFC0
7FC0000000007FC0
7FC0000000007FE0
7FC0000000003FE0
7FC0000000003FE0
FF80000000003FE0
FF80000000003FF0
FF80000000003FF0
FF80000000001FF0
FF80000000001FF0
FF80000000001FF0
FF80000000001FF0
FF80000000001FF0
FF80000000001FF0
FF80000000001FF0
FF80000000001FF0
FF80000000001FF0
FF80000000001FF0
FF80000000001FF0
FF80000000001FF0
FF80000000001FF0
FFC0000000001FF0
7FC0000000001FF0
7FC0000000003FF0
7FC0000000003FF0
3FE0000000007FE0
3FE0000000007FE0
3FF000000000FFE0
1FF000000000FFC0
1FF800000001FFC0
1FF800000001FF80
0FFC00000003FF80
0FFE00000007FF00
07FE0000000FFE00
03FF0000001FFE00
03FF8000003FFC00
01FFC00000FFF800
01FFF00001FFF000
00FFFC000FFFE000
007FFFC07FFFE000
003FFFFFFFFFC000
001FFFFFFFFF8000
000FFFFFFFFE0000
0007FFFFFFFC0000
0001FFFFFFF00000
00007FFFFF800000
00001FFFFE000000
000003FFF0000000
ENDCHAR
STARTCHAR 00D6
ENCODING 214
SWIDTH 687 0
DWIDTH 66 0
BBX 60 86 3 1
BITMAP
000003C01E000000
000007E03F000000
00000FF07F800000
00001FF0FF800000
00001FF0FF800000
00001FF0FF800000
00001FF0FF800000
00001FF0FF800000
00001FF0FF800000
00001FF0FF800000
00001FF0FF800000
00000FE0FF800000
000007E0FF000000
000003807E000000
0000000000000000
0000000000000000
0000000000000000
0000000000000000
000000FFF0000000
00000FFFFF000000
00003FFFFFE00000
0000FFFFFFF00000
0003FFFFFFFC0000
0007FFFFFFFE0000
001FFFFFFFFF8000
003FFFFFFFFFC000
007FFF800FFFE000
00FFFC0001FFF000
01FFF00000FFF000
03FFC000003FF800
03FF8000001FFC00
07FF0000000FFE00
0FFE00000007FE00
1FFC00000003FF00
1FF800000001FF00
3FF800000001FF80
3FF000000000FF80
7FE000000000FFC0
7FE0000000007FC0
FFE0000000007FC0
FFC0000000003FE0
FFC0000000003FE0
FFC0000000003FE0
FFC0000000003FE0
FF80000000001FF0
FF80000000001FF0
FF80000000001FF0
FF80000000001FF0
FF80000000001FF0
FF80000000001FF0
FF80000000001FF0
FF80000000001FF0
FF80000000001FF0
FF80000000001FF0
FF80000000001FF0
FF80000000001FF0
FF80000000001FF0
FF80000000001FF0
FF80000000001FF0
FFC0000000001FF0
7FC0000000001FE0
7FC0000000001FE0
7FC0000000003FE0
7FE0000000003FE0
3FE0000000007FC0
3FF0000000007FC0
1FF000000000FFC0
1FF800000000FF80
1FF800000001FF80
0FFC00000001FF00
0FFE00000003FF00
07FE0000000FFE00
07FF0000000FFE00
03FF8000003FFC00
01FFE000007FF800
01FFF00001FFF000
00FFFC0007FFF000
007FFF803FFFE000
003FFFFFFFFFC000
001FFFFFFFFF8000
000FFFFFFFFE0000
0007FFFFFFFC0000
0001FFFFFFF00000
00007FFFFFC00000
00000FFFFE000000
000003FFF0000000
ENDCHAR
STARTCHAR 00D8
ENCODING 216
SWIDTH 687 0
DWIDTH 66 0
BBX 60 68 3 0
BITMAP
000003FFC0000F80
00001FFFFE001FC0
0000FFFFFFC01FE0
0003FFFFFFE03FF0
000FFFFFFFF83FF0
001FFFFFFFFE7FF0
003FFFFFFFFFFFF0
007FFFFFFFFFFFE0
00FFFE000FFFFFC0
01FFF00003FFFF80
03FFC000007FFF00
03FF8000003FFE00
07FF0000001FFC00
07FE0000001FFE00
0FFC0000003FFE00
1FF80000007FFF00
1FF8000000FFFF00
3FF0000001FFFF80
3FE0000003FFFF80
3FE0000007FFFF80
3FC000000FFE7FC0
7F8000001FFC3FC0
7F8000003FF83FC0
7F8000003FF03FC0
7F8000007FE03FE0
7F800000FFC01FE0
FF800001FFC01FE0
FF800003FF801FE0
FF800007FE001FE0
FF80000FFE001FF0
FF80001FFC001FF0
FF80003FF8001FF0
FF80007FF0001FF0
FF8000FFE0001FF0
FF8001FFC0001FF0
FF8003FF80001FF0
FF8007FF00001FF0
FF800FFE00001FF0
FF801FFC00001FF0
7F801FF800001FF0
7F803FF000001FF0
7F807FE000001FF0
7F80FFC000001FF0
7F81FF8000001FF0
3F83FF0000001FF0
3F87FE0000001FF0
3F8FFC0000003FE0
1F9FFC0000003FE0
1FFFF80000003FE0
1FFFF00000007FE0
0FFFE0000000FFC0
0FFFC0000000FFC0
07FF80000001FF80
07FF00000003FF00
07FE00000007FE00
07FE00000007FE00
07FF0000001FFC00
0FFF8000007FF800
1FFFE00000FFF000
3FFFFC0001FFE000
7FFFFFFFFFFFC000
FF9FFFFFFFFF8000
FF07FFFFFFFF0000
FF03FFFFFFFC0000
FE00FFFFFFF00000
FE003FFFFF800000
7C001FFFFE000000
380003FFE0000000
ENDCHAR
STARTCHAR 00D9
ENCODING 217
SWIDTH 604 0
DWIDTH 58 0
BBX 46 86 7 1
BITMAP
0000F8000000
0001FC000000
0003FE000000
0003FF000000
0003FF000000
0001FF800000
0001FFC00000
0000FFE00000
00007FF00000
00003FF00000
00001FF80000
000007F80000
000003F80000
000000F00000
000000000000
000000000000
000000000000
000000000000
3E00000001E0
7F00000007F8
FF80000007F8
FF8000000FFC
FF8000000FFC
FF8000000FFC
FF8000000FFC
FF8000000FFC
FF8000000FFC
FF8000000FFC
FF8000000FFC
FF8000000FFC
FF8000000FFC
FF8000000FFC
FF8000000FFC
FF8000000FFC
FF8000000FFC
FF8000000FFC
FF8000000FFC
FF8000000FFC
FF8000000FFC
FF8000000FFC
FF8000000FFC
FF8000000FFC
FF8000000FFC
FF8000000FFC
FF8000000FFC
FF8000000FFC
FF8000000FFC
FF8000000FFC
FF8000000FFC
FF8000000FFC
FF8000000FFC
FF8000000FFC
FF8000000FFC
FF8000000FFC
FF8000000FFC
FF8000000FFC
FF8000000FFC
FF8000000FFC
FF8000000FFC
FF8000000FFC
FF8000000FFC
FF8000000FFC
FF8000000FFC
FF8000000FFC
FF8000000FFC
FF8000000FFC
FF8000000FFC
FF8000000FFC
FF8000000FFC
FF8000000FFC
FF8000000FFC
FFC000000FFC
FFC000001FFC
FFE000003FFC
FFF000007FFC
FFF80000FFFC
FFFC0001FFFC
FFFFC00FFFFC
FFFFFFFFFFFC
7FFFFFFFFFFC
3FFFFFFFFFFC
1FFFFFFFEFFC
0FFFFFFFCFFC
03FFFFFF8FFC
00FFFFFE07F8
003FFFF803E0
ENDCHAR
STARTCHAR 00DA
ENCODING 218
SWIDTH 604 0
DWIDTH 58 0
BBX 46 87 7 1
BITMAP
000000780000
000000FE0000
000001FF0000
000003FF0000
000003FF0000
000007FF0000
00000FFE0000
00001FFC0000
00001FF80000
00003FF00000
00007FE00000
00007FC00000
00007F800000
00007E000000
00001C000000
000000000000
000000000000
000000000000
000000000000
3E00000001E0
7F00000007F8
FF80000007F8
FF8000000FFC
FF8000000FFC
FF8000000FFC
FF8000000FFC
FF8000000FFC
FF8000000FFC
FF8000000FFC
FF8000000FFC
FF8000000FFC
FF8000000FFC
FF8000000FFC
FF8000000FFC
FF8000000FFC
FF8000000FFC
FF8000000FFC
FF8000000FFC
FF8000000FFC
FF8000000FFC
FF8000000FFC
FF8000000FFC
FF8000000FFC
FF8000000FFC
FF8000000FFC
FF8000000FFC
FF8000000FFC
FF8000000FFC
FF8000000FFC
FF8000000FFC
FF8000000FFC
FF8000000FFC
FF8000000FFC
FF8000000FFC
FF8000000FFC
FF8000000FFC
FF8000000FFC
FF8000000FFC
FF8000000FFC
FF8000000FFC
FF8000000FFC
FF8000000FFC
FF8000000FFC
FF8000000FFC
FF8000000FFC
FF8000000FFC
FF8000000FFC
FF8000000FFC
FF8000000FFC
FF8000000FFC
FF8000000FFC
FF8000000FFC
FFC000000FFC
FFC000001FFC
FFE000003FFC
FFF000007FFC
FFF80000FFFC
FFFC0001FFFC
FFFFC00FFFFC
FFFFFFFFFFFC
7FFFFFFFFFFC
3FFFFFFFFFFC
1FFFFFFFEFFC
0FFFFFFFCFFC
03FFFFFF8FFC
00FFFFFE07F8
003FFFF803E0
ENDCHAR
STARTCHAR 00DB
ENCODING 219
SWIDTH 604 0
DWIDTH 58 0
BBX 46 86 7 0
BITMAP
000007E00000
00000FF00000
00001FF80000
00007FFC0000
0000FFFE0000
0003FFFF8000
0007FFFFC000
001FFFFFE000
003FFC7FF000
007FF03FF000
007FE01FF000
003F801FF000
001F000FE000
000E0003C000
000000000000
000000000000
000000000000
000000000000
3E00000001E0
7F00000007F8
FF80000007F8
FF8000000FFC
FF8000000FFC
FF8000000FFC
FF8000000FFC
FF8000000FFC
FF8000000FFC
FF8000000FFC
FF8000000FFC
FF8000000FFC
FF8000000FFC
FF8000000FFC
FF8000000FFC
FF8000000FFC
FF8000000FFC
FF8000000FFC
FF8000000FFC
FF8000000FFC
FF8000000FFC
FF8000000FFC
FF8000000FFC
FF8000000FFC
FF8000000FFC
FF8000000FFC
FF8000000FFC
FF8000000FFC
FF8000000FFC
FF8000000FFC
FF8000000FFC
FF8000000FFC
FF8000000FFC
FF8000000FFC
FF8000000FFC
FF8000000FFC
FF8000000FFC
FF8000000FFC
FF8000000FFC
FF8000000FFC
FF8000000FFC
FF8000000FFC
FF8000000FFC
FF8000000FFC
FF8000000FFC
FF8000000FFC
FF8000000FFC
FF8000000FFC
FF8000000FFC
FF8000000FFC
FF8000000FFC
FF8000000FFC
FF8000000FFC
FFC000000FFC
FFC000001FFC
FFE000003FFC
FFF000007FFC
FFF80000FFFC
FFFC0001FFFC
FFFFC00FFFFC
FFFFFFFFFFFC
7FFFFFFFFFFC
3FFFFFFFFFFC
1FFFFFFFEFFC
0FFFFFFFCFFC
03FFFFFF8FFC
00FFFFFE07F8
003FFFF803E0
ENDCHAR
STARTCHAR 00DC
ENCODING 220
SWIDTH 604 0
DWIDTH 58 0
BBX 47 86 5 1
BITMAP
00003007C000
0000380FC000
0001FC1FE000
0003FC3FE000
0003FC3FE000
0007FC3FE000
0007FC3FE000
0007FC3FE000
0007FC3FE000
0007FC3FE000
0007FC3FE000
0003FC3FE000
0003F81FC000
0001F00F8000
000000000000
000000000000
000000000000
000000000000
1F80000000F8
7FC0000003FC
7FC0000007FE
FFC0000007FE
FFE0000007FE
FFE0000007FE
FFE0000007FE
7FC0000007FE
7FC0000007FE
7FC0000007FE
7FC0000003FE
7FC0000003FE
7FC0000003FC
7FC0000007FC
3FC0000007FE
3FC0000007FE
7FC0000003FE
7FC0000003FE
7FC0000003FC
7FC0000003FC
7FC0000007FC
3FC0000007FC
3FC0000007FC
7FC0000007FC
7FC0000007FC
7FC0000007FC
3FC0000007FC
3FC0000003FC
7FC0000003FC
7FC0000003FC
7FC0000007FC
7FC0000007FC
7FC0000007FE
7FC0000007FE
7FC0000007FE
7FE0000007FE
7FE0000007FC
7FE0000007FC
7FC0000007FC
7FC0000007FC
7FC0000007FC
7FC0000007FC
7FC0000007FC
7FC0000007FC
7FC0000007FC
7FC0000007FC
7FC0000007FC
7FC0000003FC
7FC0000007FC
3FC0000007FC
3FC0000007FC
3FE0000007FE
3FE0000007FE
3FE000000FFC
3FE000000FFC
3FF000001FFC
3FF000003FFC
1FF800007FFC
1FFC0000FFFE
0FFF0001FFFE
0FFFF00FFFFE
07FFFFFFFFFE
07FFFFFFFFFE
03FFFFFFFDFE
00FFFFFFF9FE
007FFFFFE1FE
001FFFFF81FE
0007FFFE00F8
ENDCHAR
STARTCHAR 00DF
ENCODING 223
SWIDTH 500 0
DWIDTH 48 0
BBX 40 68 6 0
BITMAP
0007FF0000
007FFFC000
01FFFFF000
03FFFFF800
07FFFFFC00
0FFFFFFE00
1FFFFFFF00
1FFE07FF00
3FF001FF00
3FE000FF80
7FC0007F80
7FC0007F80
7F80003F80
7F80007F80
FF80007F80
FF80007F80
FF8000FF80
FF8001FF80
FF8001FF00
FF8007FF00
FF800FFE00
FF803FFC00
FF803FF800
FF803FF000
FF807FF000
FF803FF000
FF803FF800
FF801FFC00
FF800FFE00
FF8007FE00
FF8003FF00
FF8001FF80
FF8000FF80
FF8000FFC0
FF80007FE0
FF80003FE0
FF80003FF0
FF80001FF8
FF80000FF8
FF80000FFC
FF800007FC
FF800007FE
FF800003FE
FF800003FE
FF800003FF
FF800003FF
FF800001FF
FF800001FF
FF800001FF
FF800001FF
FF800001FF
FF800001FF
FF800001FF
FF800001FF
FF800001FF
FF800001FF
FF838003FF
FF8FE007FF
FF8FF00FFF
FF9FF81FFF
FF9FFFFFFF
FF9FFFFFFC
FF8FFFFFF0
FF8FFFFFE0
FF87FFFFC0
7F81FFFF00
7F807FFC00
1F001FF000
ENDCHAR
STARTCHAR 00E0
ENCODING 224
SWIDTH 500 0
DWIDTH 48 0
BBX 41 70 2 1
BITMAP
000078000000
0001FC000000
0001FE000000
0001FF000000
0001FF000000
0001FF800000
0000FFC00000
00007FE00000
00007FF00000
00001FF00000
00000FF80000
000007F80000
000003F80000
000001F80000
000000E00000
000000000000
000000000000
000000000000
0001FFFF0000
001FFFFF8000
007FFFFFC000
00FFFFFFF000
01FFFFFFF800
01FFFFFFFC00
01FFFFFFFE00
01FFFFFFFE00
00FF807FFF00
00FE0007FF00
00780003FF80
00000001FF80
00000000FF80
00000000FF80
00000000FF80
0000FFFFFF80
0007FFFFFF80
001FFFFFFF80
007FFFFFFF80
01FFFFFFFF80
03FFFFFFFF80
07FFFFFFFF80
0FFFFFFFFF80
1FFF80FFFF80
1FFE001FFF80
3FF80003FF80
3FF00001FF80
7FE00001FF80
7FE00000FF80
7FC00000FF80
FF800000FF80
FF800000FF80
FF800000FF80
FF800000FF80
FF800000FF80
FF800000FF80
FFC00000FF80
FFC00000FF80
7FE00000FF80
7FF00001FF80
7FF80003FF80
3FFC0007FF80
1FFF001FFF80
0FFFFFFFFF80
0FFFFFFFFF80
07FFFFFFFF80
03FFFFFFFF80
01FFFFFFFF80
007FFFFFFF80
000FFFFC7F80
0003FFF03F00
0000FFC01E00
ENDCHAR
STARTCHAR 00E1
ENCODING 225
SWIDTH 500 0
DWIDTH 48 0
BBX 41 70 2 1
BITMAP
0000003C0000
000000FE0000
000000FF0000
000001FF0000
000003FF0000
000003FF0000
000007FE0000
00000FFE0000
00001FF80000
00003FF00000
00003FE00000
00003FC00000
00003F800000
00003E000000
00000C000000
000000000000
000000000000
000000000000
0001FFFF0000
001FFFFF8000
007FFFFFC000
00FFFFFFF000
01FFFFFFF800
01FFFFFFFC00
01FFFFFFFE00
01FFFFFFFE00
00FF807FFF00
00FE0007FF00
00780003FF80
00000001FF80
00000000FF80
00000000FF80
00000000FF80
0000FFFFFF80
0007FFFFFF80
001FFFFFFF80
007FFFFFFF80
01FFFFFFFF80
03FFFFFFFF80
07FFFFFFFF80
0FFFFFFFFF80
1FFF80FFFF80
1FFE001FFF80
3FF80003FF80
3FF00001FF80
7FE00001FF80
7FE00000FF80
7FC00000FF80
FF800000FF80
FF800000FF80
FF800000FF80
FF800000FF80
FF800000FF80
FF800000FF80
FFC00000FF80
FFC00000FF80
7FE00000FF80
7FF00001FF80
7FF80003FF80
3FFC0007FF80
1FFF001FFF80
0FFFFFFFFF80
0FFFFFFFFF80
07FFFFFFFF80
03FFFFFFFF80
01FFFFFFFF80
007FFFFFFF80
000FFFFC7F80
0003FFF03F00
0000FFC01E00
ENDCHAR
STARTCHAR 00E2
ENCODING 226
SWIDTH 500 0
DWIDTH 48 0
BBX 41 71 2 0
BITMAP
000007800000
00000FC00000
00001FF00000
00001FF00000
00003FF80000
00007FFC0000
0000FFFE0000
0001FFFF0000
0007FEFF8000
0007FC7FC000
000FF83FC000
000FF01FC000
000FE01FC000
0007E00FC000
0007C00F8000
000100020000
000000000000
000000000000
000000000000
0001FFFF0000
001FFFFF8000
007FFFFFC000
00FFFFFFF000
01FFFFFFF800
01FFFFFFFC00
01FFFFFFFE00
01FFFFFFFE00
00FF807FFF00
00FE0007FF00
00780003FF80
00000001FF80
00000000FF80
00000000FF80
00000000FF80
0000FFFFFF80
0007FFFFFF80
001FFFFFFF80
007FFFFFFF80
01FFFFFFFF80
03FFFFFFFF80
07FFFFFFFF80
0FFFFFFFFF80
1FFF80FFFF80
1FFE001FFF80
3FF80003FF80
3FF00001FF80
7FE00001FF80
7FE00000FF80
7FC00000FF80
FF800000FF80
FF800000FF80
FF800000FF80
FF800000FF80
FF800000FF80
FF800000FF80
FFC00000FF80
FFC00000FF80
7FE00000FF80
7FF00001FF80
7FF80003FF80
3FFC0007FF80
1FFF001FFF80
0FFFFFFFFF80
0FFFFFFFFF80
07FFFFFFFF80
03FFFFFFFF80
01FFFFFFFF80
007FFFFFFF80
000FFFFC7F80
0003FFF03F00
0000FFC01E00
ENDCHAR
STARTCHAR 00E3
ENCODING 227
SWIDTH 500 0
DWIDTH 48 0
BBX 41 68 2 0
BITMAP
000FFFE0F000
000FFFF0F000
001FFFFFF000
001FFFFFF000
001FFFFFF000
001FFFFFF000
001FFFFFF000
001F8FFFF000
001F07FFE000
003F03FFC000
003C01FF0000
000000000000
000000000000
000000000000
000000000000
000000000000
0001FFFF0000
001FFFFFC000
003FFFFFE000
00FFFFFFF000
00FFFFFFF800
01FFFFFFFC00
01FFFFFFFE00
01FFFFFFFE00
00FF803FFF00
00FE0003FF00
003C0001FF80
00000001FF80
00000000FF80
00000000FF80
00000000FF80
00007FFFFF80
0007FFFFFF80
001FFFFFFF80
007FFFFFFF80
01FFFFFFFF80
03FFFFFFFF80
07FFFFFFFF80
0FFFFFFFFF80
1FFF80FFFF80
1FFE001FFF80
3FF80003FF80
3FF00001FF80
7FE00001FF80
7FE00000FF80
7FC00000FF80
FF800000FF80
FF800000FF80
FF800000FF80
FF800000FF80
FF800000FF80
FF800000FF80
FFC00000FF80
FFC00000FF80
7FE00000FF80
7FF00001FF80
7FF80003FF80
3FFC0007FF80
1FFF801FFF80
0FFFFFFFFF80
0FFFFFFFFF80
07FFFFFFFF80
03FFFFFFFF80
01FFFFFFFF80
007FFFFFFF80
000FFFFC7F80
0003FFF03F00
0000FFC01E00
ENDCHAR
STARTCHAR 00E4
ENCODING 228
SWIDTH 500 0
DWIDTH 48 0
BBX 41 68 2 1
BITMAP
0001E00E0000
0003F81F8000
0007FC3F8000
0007FC3F8000
0007FC3F8000
0007FC3F8000
0007FC3F8000
0007FC3F8000
0007FC3FC000
0007FC3FC000
0007FC1F8000
0003F81F8000
0003E00F0000
000000000000
000000000000
000000000000
0001FFE00000
000FFFFE0000
003FFFFF8000
007FFFFFC000
00FFFFFFF000
01FFFFFFF800
01FFFFFFFC00
01FFFFFFFE00
00FFF87FFE00
00FF000FFF00
007C0003FF80
00000001FF80
00000001FF80
00000000FF80
00000000FF80
0000FFFFFF80
000FFFFFFF80
003FFFFFFF80
007FFFFFFF80
01FFFFFFFF80
03FFFFFFFF80
07FFFFFFFF80
0FFFFFFFFF80
1FFF0007FF80
1FFC0003FF80
3FF00001FF80
3FE00000FF80
7FC00000FF80
7FC00000FF80
7F800000FF80
FF800000FF80
FF800000FF80
FF800000FF80
FF800000FF80
FF800000FF80
FFC00000FF80
FFC00000FF80
7FC00000FF80
7FE00000FF80
7FF00000FF80
3FF80001FF80
3FFC0001FF80
1FFF8003FF80
0FFFFFFFFF80
07FFFFFFFF80
07FFFFFFFF80
03FFFFFFFF80
01FFFFFFFF80
007FFFFFFF80
000FFFFC7F80
0003FFF83F00
0000FFC01C00
ENDCHAR
STARTCHAR 00E5
ENCODING 229
SWIDTH 500 0
DWIDTH 48 0
BBX 41 72 2 0
BITMAP
00000FC00000
00003FF00000
00007FF80000
00007FFC0000
0000FFFE0000
0000F87E0000
0001F01F0000
0001E01F0000
0001E01F0000
0001E00F0000
0001E01F0000
0001F01F0000
0000F87E0000
0000FFFE0000
00007FFC0000
00003FF00000
00001FE00000
000000000000
000000000000
000000000000
0001FFFF0000
001FFFFF8000
007FFFFFC000
00FFFFFFE000
00FFFFFFF800
01FFFFFFFC00
01FFFFFFFC00
01FFFFFFFE00
00FFC07FFE00
00FE000FFF00
00780007FF00
00000001FF80
00000001FF80
00000000FF80
00000000FF80
0000FFFFFF80
000FFFFFFF80
003FFFFFFF80
00FFFFFFFF80
01FFFFFFFF80
03FFFFFFFF80
07FFFFFFFF80
0FFFFFFFFF80
1FFF80FFFF80
1FFE001FFF80
3FF80003FF80
3FF00001FF80
7FE00001FF80
7FC00000FF80
7FC00000FF80
FF800000FF80
FF800000FF80
FF800000FF80
FF800000FF80
FF800000FF80
FF800000FF80
FFC00000FF80
FFC00000FF80
7FE00000FF80
7FF00001FF80
3FF80003FF80
3FFC000FFF80
1FFF803FFF80
1FFFFFFFFF80
0FFFFFFFFF80
0FFFFFFFFF80
07FFFFFFFF80
07FFFFFFFF80
03FFFFFFFF80
01FFFFFFFF80
00FFFFFFFF00
003FFFFEFE00
ENDCHAR
STARTCHAR 00E6
ENCODING 230
SWIDTH 791 0
DWIDTH 76 0
BBX 72 52 2 0
BITMAP
0001FFFE000FFFF800
000FFFFF003FFFFC00
003FFFFF807FFFFE00
007FFFFFC0FFFFFF00
00FFFFFFE3FFFFFFC0
00FFFFFFF7FFFFFFE0
00FFFFFFFFFFFFFFE0
00FFFFFFFFFFFFFFF0
003FFFFFFFFFFFFFF0
0000001FFFFC003FF8
00000003FFF0001FF8
00000001FFE0000FFC
00000000FFC00007FC
00000000FF800007FC
00000000FF800003FC
000FFFFFFFFFFFFFFE
003FFFFFFFFFFFFFFE
007FFFFFFFFFFFFFFE
00FFFFFFFFFFFFFFFE
01FFFFFFFFFFFFFFFE
03FFFFFFFFFFFFFFFC
07FFFFFFFFFFFFFFFC
0FFFFFFFFFFFFFFFF8
0FF8007FFFC0000000
1FE00007FF80000000
3FC00001FF80000000
3F800000FF80000000
3F800000FF80000000
7F800000FF80000000
7F800000FF80000000
7F800000FF80000000
7F800000FF80000000
FF800000FF80000000
FF800000FF80000000
FF800000FFC0000000
FF800000FFC0000000
FF800000FFC0000000
FF800000FFE0000000
7F800000FFF0000000
7F800001FFF0000000
7F800003FFF8000000
3FC00007FFFC000000
3FF0003FFFFF000000
1FFFFFFFFFFFFFFFF8
0FFFFFFFFFFFFFFFFE
07FFFFFFF9FFFFFFFF
07FFFFFFF0FFFFFFFF
03FFFFFFC07FFFFFFF
00FFFFFF801FFFFFFF
003FFFFE000FFFFFFE
000FFFF00003FFFFFE
0001FF0000003FFFF8
ENDCHAR
STARTCHAR 00E7
ENCODING 231
SWIDTH 375 0
DWIDTH 36 0
BBX 33 73 3 -22
BITMAP
0003FFFC00
001FFFFE00
003FFFFE00
00FFFFFE00
01FFFFFE00
03FFFFFE00
07FFFFFE00
0FFFFFFE00
0FFFFFFC00
1FFF800000
1FFE000000
3FFC000000
3FF8000000
7FF0000000
7FE0000000
7FE0000000
7FC0000000
FFC0000000
FFC0000000
FF80000000
FF80000000
FF80000000
FF80000000
FF80000000
FF80000000
FF80000000
FF80000000
FF80000000
FF80000000
FF80000000
7F80000000
7F80000000
7FC0000000
3FE0000000
3FE0000000
1FF0000000
1FF8000000
0FF8000000
0FFC000000
07FE000000
03FF800000
03FFE00000
01FFFFC000
00FFFFFE00
007FFFFF00
001FFFFF00
000FFFFF80
0007FFFF80
0001FFFF80
00007FFF00
00001FFF00
000000FC00
0000000000
00007F0000
0000FF8000
0000FFC000
0000FFC000
0000FFC000
0000FFC000
0000FFC000
0000FFC000
0000FFC000
00007FC000
00003FC000
00003F8000
00007F8000
00007F8000
0000FF0000
0000FE0000
0000FE0000
0000FE0000
0000FC0000
0000780000
ENDCHAR
STARTCHAR 00E8
ENCODING 232
SWIDTH 458 0
DWIDTH 44 0
BBX 40 70 3 1
BITMAP
0007800000
000FC00000
001FE00000
001FF00000
001FF00000
001FF80000
000FFC0000
000FFE0000
0007FE0000
0003FF0000
0001FF8000
0000FF8000
00003F8000
00001F0000
00000E0000
0000000000
0000000000
0000000000
0007FF8000
001FFFF000
003FFFFC00
007FFFFE00
00FFFFFF80
01FFFFFFC0
03FFFFFFE0
07FFFFFFF0
0FE0003FF0
0FE0001FF8
1FC0000FF8
1FC0000FFC
3F80000FFC
3F80000FFC
7F80000FFE
7FFFFFFFFE
7FFFFFFFFE
FFFFFFFFFE
FFFFFFFFFE
FFFFFFFFFC
FFFFFFFFFC
FFFFFFFFF0
FFC0000000
FF80000000
FF80000000
FF80000000
FF80000000
FF80000000
FF80000000
7F80000000
7F80000000
7FC0000000
7FC0000000
7FC0000000
3FE0000000
3FE0000000
3FF0000000
1FF0000000
1FF8000000
0FF8000000
07FC000000
03FE000000
01FF800000
00FFFE0000
007FFFFFFE
003FFFFFFF
001FFFFFFF
000FFFFFFF
0001FFFFFE
00007FFFFE
00001FFFF8
000001FFC0
ENDCHAR
STARTCHAR 00E9
ENCODING 233
SWIDTH 458 0
DWIDTH 44 0
BBX 40 70 3 0
BITMAP
0000038000
00000FE000
00001FF000
00001FF000
00003FF000
00003FF000
00007FE000
0000FFC000
0001FF8000
0001FF0000
0003FE0000
0003FC0000
0003F80000
0003E00000
0000C00000
0000000000
0000000000
0000000000
0007FF8000
001FFFF000
003FFFFC00
007FFFFE00
00FFFFFF80
01FFFFFFC0
03FFFFFFE0
07FFFFFFF0
0FE0003FF0
0FE0001FF8
1FC0000FF8
1FC0000FFC
3F80000FFC
3F80000FFC
7F80000FFE
7FFFFFFFFE
7FFFFFFFFE
FFFFFFFFFE
FFFFFFFFFE
FFFFFFFFFC
FFFFFFFFFC
FFFFFFFFF0
FFC0000000
FF80000000
FF80000000
FF80000000
FF80000000
FF80000000
FF80000000
7F80000000
7F80000000
7FC0000000
7FC0000000
7FC0000000
3FE0000000
3FE0000000
3FF0000000
1FF0000000
1FF8000000
0FF8000000
07FC000000
03FE000000
01FF800000
00FFFE0000
007FFFFFFE
003FFFFFFF
001FFFFFFF
000FFFFFFF
0001FFFFFE
00007FFFFE
00001FFFF8
000001FFC0
ENDCHAR
STARTCHAR 00EA
ENCODING 234
SWIDTH 458 0
DWIDTH 44 0
BBX 40 71 3 0
BITMAP
0000780000
0000FC0000
0000FE0000
0001FF0000
0003FF8000
0003FFC000
0007FFE000
001FFFF000
003FEFF800
003FC7FC00
007F83FC00
007F01FC00
007E01FC00
003E00FC00
003C00F800
0008002000
0000000000
0000000000
0000000000
0007FF8000
001FFFF000
003FFFFC00
007FFFFE00
00FFFFFF80
01FFFFFFC0
03FFFFFFE0
07FFFFFFF0
0FE0003FF0
0FE0001FF8
1FC0000FF8
1FC0000FFC
3F80000FFC
3F80000FFC
7F80000FFE
7FFFFFFFFE
7FFFFFFFFE
FFFFFFFFFE
FFFFFFFFFE
FFFFFFFFFC
FFFFFFFFFC
FFFFFFFFF0
FFC0000000
FF80000000
FF80000000
FF80000000
FF80000000
FF80000000
FF80000000
7F80000000
7F80000000
7FC0000000
7FC0000000
7FC0000000
3FE0000000
3FE0000000
3FF0000000
1FF0000000
1FF8000000
0FF8000000
07FC000000
03FE000000
01FF800000
00FFFE0000
007FFFFFFE
003FFFFFFF
001FFFFFFF
000FFFFFFF
0001FFFFFE
00007FFFFE
00001FFFF8
000001FFC0
ENDCHAR
STARTCHAR 00EB
ENCODING 235
SWIDTH 458 0
DWIDTH 44 0
BBX 41 68 3 0
BITMAP
0007003E0000
001FC0FE0000
001FE0FE0000
003FE1FE0000
003FE1FE0000
003FE1FE0000
003FE1FE0000
003FE1FE0000
003FE1FE0000
003FE1FE0000
003FE1FE0000
001FC1FC0000
000F007C0000
000000000000
000000000000
000000000000
0003FFE00000
000FFFFC0000
003FFFFF0000
007FFFFF8000
00FFFFFFE000
01FFFFFFF000
03FFFFFFF800
07FFFFFFF800
0FF00007FC00
0FE00007FC00
1FC00003FE00
1FC00001FE00
3F800001FF00
3F800001FF00
7FC00001FF00
7FFFFFFFFF00
7FFFFFFFFF00
FFFFFFFFFF00
FFFFFFFFFF00
FFFFFFFFFF00
FFFFFFFFFE00
FFFFFFFFFC00
FFC000000000
FFC000000000
FF8000000000
FF8000000000
FF8000000000
FF8000000000
FF8000000000
7F8000000000
7FC000000000
7FC000000000
7FC000000000
3FE000000000
3FE000000000
3FF000000000
3FF000000000
1FF800000000
0FFC00000000
0FFC00000000
07FE00000000
03FF80000000
01FFC0000000
00FFFF000000
007FFFFFFF00
001FFFFFFF80
000FFFFFFF80
0007FFFFFF80
0001FFFFFF80
00007FFFFF00
00000FFFFE00
000001FFF000
ENDCHAR
STARTCHAR 00EC
ENCODING 236
SWIDTH 208 0
DWIDTH 20 0
BBX 13 71 2 0
BITMAP
1800
7E00
7F00
FF80
FF80
7FC0
7FE0
3FF0
1FF8
1FF8
0FF8
07F8
03F8
01F8
0070
0000
0000
0000
0000
03E0
07F0
0FF8
0FF8
0FF8
0FF8
0FF8
0FF8
0FF8
0FF8
0FF8
0FF8
0FF8
0FF8
0FF8
0FF8
0FF8
0FF8
0FF8
0FF8
0FF8
0FF8
0FF8
0FF8
0FF8
0FF8
0FF8
0FF8
0FF8
0FF8
0FF8
0FF8
0FF8
0FF8
0FF8
0FF8
0FF8
0FF8
0FF8
0FF8
0FF8
0FF8
0FF8
0FF8
0FF8
0FF8
0FF8
0FF8
0FF8
07F0
07F0
01E0
ENDCHAR
STARTCHAR 00ED
ENCODING 237
SWIDTH 208 0
DWIDTH 20 0
BBX 12 71 6 0
BITMAP
01C0
03E0
07F0
0FF0
1FF0
1FF0
3FE0
7FE0
7FC0
FF80
FF00
FE00
FC00
F800
7000
0000
0000
0000
0000
3E00
7F00
FF80
FF80
FF80
FF80
FF80
FF80
FF80
FF80
FF80
FF80
FF80
FF80
FF80
FF80
FF80
FF80
FF80
FF80
FF80
FF80
FF80
FF80
FF80
FF80
FF80
FF80
FF80
FF80
FF80
FF80
FF80
FF80
FF80
FF80
FF80
FF80
FF80
FF80
FF80
FF80
FF80
FF80
FF80
FF80
FF80
FF80
FF80
7F00
7F00
1E00
ENDCHAR
STARTCHAR 00EE
ENCODING 238
SWIDTH 208 0
DWIDTH 20 0
BBX 21 71 0 0
BITMAP
00F000
01FC00
01FE00
03FF00
07FF00
0FFF80
1FFFC0
3FFFE0
7FDFE0
FF8FF0
FF07F8
FE03F8
FE01F0
7C01F0
7800E0
000000
000000
000000
000000
00F800
01FC00
03FE00
03FE00
03FE00
03FE00
03FE00
03FE00
03FE00
03FE00
03FE00
03FE00
03FE00
03FE00
03FE00
03FE00
03FE00
03FE00
03FE00
03FE00
03FE00
03FE00
03FE00
03FE00
03FE00
03FE00
03FE00
03FE00
03FE00
03FE00
03FE00
03FE00
03FE00
03FE00
03FE00
03FE00
03FE00
03FE00
03FE00
03FE00
03FE00
03FE00
03FE00
03FE00
03FE00
03FE00
03FE00
03FE00
03FE00
01FC00
01FC00
007800
ENDCHAR
STARTCHAR 00EF
ENCODING 239
SWIDTH 208 0
DWIDTH 20 0
BBX 19 68 1 0
BITMAP
380700
7C0FC0
FE0FC0
FE1FC0
FE1FC0
FE1FC0
FE0FC0
FE0FC0
FE0FE0
FE0FE0
FE0FC0
7C0FC0
780780
000000
000000
000000
01F000
03F800
07FC00
07FC00
07FC00
07FC00
07FC00
07FC00
07FC00
07FC00
07FC00
07FC00
07FC00
07FC00
07FC00
07FC00
07FC00
07FC00
07FC00
07FC00
07FC00
07FC00
07FC00
07FC00
07FC00
07FC00
07FC00
07FC00
07FC00
07FC00
07FC00
07FC00
07FC00
07FC00
07FC00
07FC00
07FC00
07FC00
07FC00
07FC00
07FC00
07FC00
07FC00
07FC00
07FC00
07FC00
07FC00
07FC00
07FC00
03F800
03F800
00F000
ENDCHAR
STARTCHAR 00F1
ENCODING 241
SWIDTH 479 0
DWIDTH 46 0
BBX 35 68 5 1
BITMAP
01FFF01E00
03FFFC3F00
03FFFF7F00
07FFFFFF00
07FFFFFF00
07FFFFFF00
07FFFFFE00
07C7FFFE00
0783FFFC00
0781FFF800
07007FC000
0000000000
0000000000
0000000000
0000000000
0000000000
3C01FFC000
7E07FFF000
FE1FFFFC00
FF3FFFFE00
FFFFFFFF00
FFFFFFFF80
FFFFFFFFC0
FFFFFFFFE0
FFFFCFFFE0
FFFE01FFE0
FFF0007FE0
FFE0003FE0
FFC0003FE0
FF80003FE0
FF80003FE0
FF80003FE0
FF80003FE0
FF80003FE0
FF80003FE0
FF80003FE0
FF80003FE0
FF80003FE0
FF80003FE0
FF80003FE0
FF80003FE0
FF80003FE0
FF80003FE0
FF80003FE0
FF80003FE0
FF80003FE0
FF80003FE0
FF80003FE0
FF80003FE0
FF80003FE0
FF80003FE0
FF80003FE0
FF80003FE0
FF80003FE0
FF80003FE0
FF80003FE0
FF80003FE0
FF80003FE0
FF80003FE0
FF80003FE0
FF80003FE0
FF80003FE0
FF80003FE0
FF80003FE0
FF80003FE0
7F00001FE0
7F00001FC0
3E00000780
ENDCHAR
STARTCHAR 00F2
ENCODING 242
SWIDTH 541 0
DWIDTH 52 0
BBX 47 70 3 0
BITMAP
000018000000
0000FE000000
0000FF000000
0001FF800000
0001FFC00000
0000FFC00000
0000FFE00000
00007FF00000
00003FF80000
00001FFC0000
00000FFC0000
000007FE0000
000003FE0000
000000FC0000
000000780000
000000000000
000000000000
000000000000
00007FFF8000
0003FFFFE000
000FFFFFF800
003FFFFFFC00
007FFFFFFE00
00FFFFFFFF00
03FFFFFFFF80
03FFFFFFFF80
07FFFFFFFFC0
0FFF0000FFE0
0FFE00007FE0
1FF800001FF0
1FF800000FF0
3FF0000007F0
3FE0000003F8
7FE0000003FC
7FC0000003FC
7FC0000003FC
7F80000003FE
FF80000003FE
FF80000003FE
FF80000003FE
FF80000003FE
FF80000003FE
FF80000003FE
FF80000003FE
FF80000003FE
FF80000003FE
FFC0000003FE
FFC0000003FE
FFC0000003FE
FFC0000003FE
FFE0000003FE
FFE0000003FC
FFE0000003FC
7FF0000003FC
7FF0000007F8
7FF8000007F8
3FFC000007F8
1FFE00000FF0
1FFF00000FF0
0FFFC0003FE0
07FFF0007FC0
03FFFFFFFFC0
01FFFFFFFF80
00FFFFFFFE00
007FFFFFFC00
003FFFFFF800
000FFFFFF000
0003FFFFC000
0001FFFF0000
0000FFF00000
ENDCHAR
STARTCHAR 00F3
ENCODING 243
SWIDTH 541 0
DWIDTH 52 0
BBX 47 70 3 0
BITMAP
0000000E0000
0000003F8000
0000007F8000
000000FFC000
000000FFC000
000001FFC000
000003FF8000
000007FF0000
00000FFE0000
00000FFC0000
00001FF80000
00003FF00000
00001FE00000
00001F800000
00000F000000
000000000000
000000000000
000000000000
00007FFF8000
0003FFFFE000
000FFFFFF800
003FFFFFFC00
007FFFFFFE00
00FFFFFFFF00
03FFFFFFFF80
03FFFFFFFF80
07FFFFFFFFC0
0FFF0000FFE0
0FFE00007FE0
1FF800001FF0
1FF800000FF0
3FF0000007F0
3FE0000003F8
7FE0000003FC
7FC0000003FC
7FC0000003FC
7F80000003FE
FF80000003FE
FF80000003FE
FF80000003FE
FF80000003FE
FF80000003FE
FF80000003FE
FF80000003FE
FF80000003FE
FF80000003FE
FFC0000003FE
FFC0000003FE
FFC0000003FE
FFC0000003FE
FFE0000003FE
FFE0000003FC
FFE0000003FC
7FF0000003FC
7FF0000007F8
7FF8000007F8
3FFC000007F8
1FFE00000FF0
1FFF00000FF0
0FFFC0003FE0
07FFF0007FC0
03FFFFFFFFC0
01FFFFFFFF80
00FFFFFFFE00
007FFFFFFC00
003FFFFFF800
000FFFFFF000
0003FFFFC000
0001FFFF0000
0000FFF00000
ENDCHAR
STARTCHAR 00F4
ENCODING 244
SWIDTH 541 0
DWIDTH 52 0
BBX 47 71 3 0
BITMAP
000003C00000
000007F00000
00000FF80000
00000FFC0000
00001FFE0000
00003FFF0000
00007FFF8000
0001FFFFC000
0003FF3FE000
0007FE1FF000
0007FC0FF800
000FF80FF800
0007F007F800
0007F007F000
0003E003E000
0001C001C000
000000000000
000000000000
000000000000
00007FFF8000
0003FFFFE000
000FFFFFF800
003FFFFFFC00
007FFFFFFE00
00FFFFFFFF00
03FFFFFFFF80
03FFFFFFFF80
07FFFFFFFFC0
0FFF0000FFE0
0FFE00007FE0
1FF800001FF0
1FF800000FF0
3FF0000007F0
3FE0000003F8
7FE0000003FC
7FC0000003FC
7FC0000003FC
7F80000003FE
FF80000003FE
FF80000003FE
FF80000003FE
FF80000003FE
FF80000003FE
FF80000003FE
FF80000003FE
FF80000003FE
FF80000003FE
FFC0000003FE
FFC0000003FE
FFC0000003FE
FFC0000003FE
FFE0000003FE
FFE0000003FC
FFE0000003FC
7FF0000003FC
7FF0000007F8
7FF8000007F8
3FFC000007F8
1FFE00000FF0
1FFF00000FF0
0FFFC0003FE0
07FFF0007FC0
03FFFFFFFFC0
01FFFFFFFF80
00FFFFFFFE00
007FFFFFFC00
003FFFFFF800
000FFFFFF000
0003FFFFC000
0001FFFF0000
0000FFF00000
ENDCHAR
STARTCHAR 00F5
ENCODING 245
SWIDTH 541 0
DWIDTH 52 0
BBX 47 68 3 0
BITMAP
0007FFE07800
000FFFF8FC00
000FFFFFFC00
001FFFFFFC00
001FFFFFFC00
001FFFFFFC00
001FFFFFFC00
001F87FFF800
001F87FFF800
001F03FFF000
001E00FF8000
000000000000
000000000000
000000000000
000000000000
000000000000
00007FFF8000
0003FFFFE000
000FFFFFF800
003FFFFFFC00
007FFFFFFE00
00FFFFFFFF00
03FFFFFFFF80
03FFFFFFFF80
07FFFFFFFFC0
0FFF0000FFE0
0FFE00007FE0
1FF800001FF0
1FF800000FF0
3FF0000007F0
3FE0000003F8
7FE0000003FC
7FC0000003FC
7FC0000003FC
7F80000003FE
FF80000003FE
FF80000003FE
FF80000003FE
FF80000003FE
FF80000003FE
FF80000003FE
FF80000003FE
FF80000003FE
FF80000003FE
FFC0000003FE
FFC0000003FE
FFC0000003FE
FFC0000003FE
FFE0000003FE
FFE0000003FC
FFE0000003FC
7FF0000003FC
7FF0000007F8
7FF8000007F8
3FFC000007F8
1FFE00000FF0
1FFF00000FF0
0FFFC0003FE0
07FFF0007FC0
03FFFFFFFFC0
01FFFFFFFF80
00FFFFFFFE00
007FFFFFFC00
003FFFFFF800
000FFFFFF000
0003FFFFC000
0001FFFF0000
0000FFF00000
ENDCHAR
STARTCHAR 00F6
ENCODING 246
SWIDTH 541 0
DWIDTH 52 0
BBX 47 68 3 1
BITMAP
0000E01F8000
0003F87F8000
0003FC7F8000
0007FC7F8000
0007FC7F8000
0007FC7F8000
0007FC7F8000
0007FC7F8000
0007FC7F8000
0007FC7F8000
0007FC7F8000
0007FC7F0000
0003F83E0000
000000000000
000000000000
000000000000
0003FFFF8000
000FFFFFE000
003FFFFFF000
007FFFFFF800
00FFFFFFFC00
01FFFFFFFE00
03FFFFFFFF00
07FFFFFFFF80
07FFFFFFFFC0
0FFE0001FFC0
0FFC0000FFE0
1FF800003FF0
1FF000001FF0
3FF000000FF0
3FE0000007F8
7FE0000007F8
7FC0000003FC
7FC0000003FC
7F80000003FC
FF80000003FE
FF80000003FE
FF80000003FE
FF80000003FE
FF80000003FE
FF80000003FE
FF80000003FE
FF80000003FE
FF80000003FE
FF80000003FE
FF80000003FE
FF80000003FE
FF80000003FE
7F80000003FE
7F80000003FC
7F80000007FC
7FC0000007FC
3FC000000FFC
3FE000000FF8
1FF000001FF8
1FF800003FF0
0FFC00007FF0
07FF0000FFE0
07FFC003FFE0
03FFF80FFFC0
01FFFFFFFF80
00FFFFFFFF00
007FFFFFFE00
003FFFFFFC00
001FFFFFF800
0007FFFFE000
0001FFFF8000
00000FFC0000
ENDCHAR
STARTCHAR 00F8
ENCODING 248
SWIDTH 541 0
DWIDTH 52 0
BBX 47 52 3 0
BITMAP
0001FFFC00F8
0007FFFF81FC
001FFFFFE7FE
007FFFFFFFFE
00FFFFFFFFFC
01FFFFFFFFF8
03FFFFFFFFF0
03FFFFFFFFE0
07FF001FFFC0
0FFE0003FFF0
1FFC0003FFF8
1FF80003FFFC
3FF00007FFFE
3FF0000FFFFE
3FE0001FF7FE
7FC0003FE3FE
7FC0007FE3FE
7FC0007FC3FE
FF8000FF83FE
FF8001FF03FE
FF8003FE03FE
FF8007FE03FE
FF8007FC03FE
FF800FF803FE
FF801FF003FE
FF803FE003FE
FF807FE003FE
FF80FFC003FE
FF80FF8003FE
FF81FF0003FE
FF83FE0003FE
FF87FE0003FE
FF8FFC0003FE
FF9FF80003FE
FF9FF00003FE
7FFFE00003FC
7FFFE00003FC
7FFFC00007FC
3FFF80000FF8
1FFF00001FF8
1FFF00001FF0
0FFF00007FF0
07FF8000FFE0
07FFFC0FFFC0
0FFFFFFFFFC0
3FFFFFFFFF80
7FFFFFFFFE00
FFFFFFFFFC00
FF9FFFFFF800
FF07FFFFE000
7E00FFFFC000
1C001FFE0000
ENDCHAR
STARTCHAR 00F9
ENCODING 249
SWIDTH 479 0
DWIDTH 46 0
BBX 34 71 6 0
BITMAP
000C000000
007F000000
007F800000
007FC00000
007FC00000
007FE00000
003FF00000
001FF00000
001FFC0000
0007FC0000
0003FE0000
0001FE0000
0000FE0000
00007E0000
00003C0000
0000000000
0000000000
0000000000
0000000000
3E00001F00
7F00003F80
FF80003FC0
FF80007FC0
FF80007FC0
FF80007FC0
FF80007FC0
FF80007FC0
FF80007FC0
FF80007FC0
FF80007FC0
FF80007FC0
FF80007FC0
FF80007FC0
FF80007FC0
FF80007FC0
FF80007FC0
FF80007FC0
FF80007FC0
FF80007FC0
FF80007FC0
FF80007FC0
FF80007FC0
FF80007FC0
FF80007FC0
FF80007FC0
FF80007FC0
FF80007FC0
FF80007FC0
FF80007FC0
FF80007FC0
FF80007FC0
FF80007FC0
FF80007FC0
FF80007FC0
FF80007FC0
FF80007FC0
FF80007FC0
FF80007FC0
FF80007FC0
FFC000FFC0
7FC003FFC0
7FE00FFFC0
7FFC7FFFC0
7FFFFFFFC0
3FFFFFFFC0
3FFFFFFFC0
0FFFFFFFC0
07FFFFFFC0
03FFFFFFC0
00FFFE0FC0
001FF80380
ENDCHAR
STARTCHAR 00FA
ENCODING 250
SWIDTH 479 0
DWIDTH 46 0
BBX 34 71 6 0
BITMAP
0000060000
00001F0000
00003F8000
00007F8000
0000FF8000
0000FF8000
0001FF8000
0003FF0000
0007FE0000
000FFC0000
000FF80000
001FF00000
001FE00000
001F800000
000F000000
0000000000
0000000000
0000000000
0000000000
3E00001F00
7F00003F80
FF80003FC0
FF80007FC0
FF80007FC0
FF80007FC0
FF80007FC0
FF80007FC0
FF80007FC0
FF80007FC0
FF80007FC0
FF80007FC0
FF80007FC0
FF80007FC0
FF80007FC0
FF80007FC0
FF80007FC0
FF80007FC0
FF80007FC0
FF80007FC0
FF80007FC0
FF80007FC0
FF80007FC0
FF80007FC0
FF80007FC0
FF80007FC0
FF80007FC0
FF80007FC0
FF80007FC0
FF80007FC0
FF80007FC0
FF80007FC0
FF80007FC0
FF80007FC0
FF80007FC0
FF80007FC0
FF80007FC0
FF80007FC0
FF80007FC0
FF80007FC0
FFC000FFC0
7FC003FFC0
7FE00FFFC0
7FFC7FFFC0
7FFFFFFFC0
3FFFFFFFC0
3FFFFFFFC0
0FFFFFFFC0
07FFFFFFC0
03FFFFFFC0
00FFFE0FC0
001FF80380
ENDCHAR
STARTCHAR 00FB
ENCODING 251
SWIDTH 479 0
DWIDTH 46 0
BBX 34 71 6 0
BITMAP
0001E00000
0003F00000
0007FC0000
0007FC0000
000FFE0000
001FFF0000
003FFF8000
007FFFC000
00FFBFE000
01FF1FE000
01FE0FF000
03FC07F000
01F807F000
01F803E000
00F001C000
0000000000
0000000000
0000000000
0000000000
3E00001F00
7F00003F80
FF80003FC0
FF80007FC0
FF80007FC0
FF80007FC0
FF80007FC0
FF80007FC0
FF80007FC0
FF80007FC0
FF80007FC0
FF80007FC0
FF80007FC0
FF80007FC0
FF80007FC0
FF80007FC0
FF80007FC0
FF80007FC0
FF80007FC0
FF80007FC0
FF80007FC0
FF80007FC0
FF80007FC0
FF80007FC0
FF80007FC0
FF80007FC0
FF80007FC0
FF80007FC0
FF80007FC0
FF80007FC0
FF80007FC0
FF80007FC0
FF80007FC0
FF80007FC0
FF80007FC0
FF80007FC0
FF80007FC0
FF80007FC0
FF80007FC0
FF80007FC0
FFC000FFC0
7FC003FFC0
7FE00FFFC0
7FFC7FFFC0
7FFFFFFFC0
3FFFFFFFC0
3FFFFFFFC0
0FFFFFFFC0
07FFFFFFC0
03FFFFFFC0
00FFFE0FC0
001FF80380
ENDCHAR
STARTCHAR 00FC
ENCODING 252
SWIDTH 479 0
DWIDTH 46 0
BBX 34 68 6 0
BITMAP
007C0F8000
00FC1F8000
01FC1FC000
01FC1FC000
01FC1FC000
01FE1FC000
01FC1FC000
01FC1FC000
01FC1FC000
01FC1FC000
01FC0FC000
00FC0F8000
00F0070000
0000000000
0000000000
0000000000
7E00000F00
FF00003FC0
FF80003FC0
FF80007FC0
FF80007FC0
FF80007FC0
FF80007FC0
FF80007FC0
FF80007FC0
FF80007FC0
FF80007FC0
FF80007FC0
FF80007FC0
FF80007FC0
FF80007FC0
FF80007FC0
FF80007FC0
FF80007FC0
FF80007FC0
FF80007FC0
FF80007FC0
FF80007FC0
FF80007FC0
FF80007FC0
FF80007FC0
FF80007FC0
FF80007FC0
FF80007FC0
FF80007FC0
FF80007FC0
FF80007FC0
FF80007FC0
FF80007FC0
FF80007FC0
FF80007FC0
FF80007FC0
FF80007FC0
FF80007FC0
FF80007FC0
FF80007FC0
FFC001FFC0
FFC003FFC0
FFF01FFFC0
FFFC7FFFC0
FFFFFFFFC0
FFFFFFFFC0
7FFFFFFFC0
3FFFFFFFC0
1FFFFFFFC0
0FFFFEFFC0
03FFF03F80
00FFC00F00
ENDCHAR
STARTCHAR 00FF
ENCODING 255
SWIDTH 437 0
DWIDTH 42 0
BBX 41 79 0 -11
BITMAP
001C00F00000
001F03F80000
003F03FC0000
003F87FC0000
003F87FC0000
003F87FC0000
003F83FC0000
003F83FC0000
001F83FC0000
001F83FC0000
001F03FC0000
001F03FC0000
001C01F00000
000000000000
000000000000
000000000000
3E0000003E00
7F800000FF00
FFC00001FF80
FFC00001FF80
FFE00001FF80
FFE00003FF80
FFE00003FF00
FFE00003FF00
7FE00003FE00
7FE00003FE00
7FE00007FC00
3FE00007FC00
3FE00007F800
3FE0000FF800
3FE0000FF000
3FE0001FF000
1FE0001FE000
1FE0003FE000
0FE0003FC000
0FF0003FC000
07F0007FC000
07F8007F8000
07F8007F8000
03F800FF0000
03FC00FF0000
01FC01FE0000
01FC01FE0000
00FE03FE0000
00FE03FC0000
00FE03FC0000
007E07FC0000
007F07F80000
003F07F80000
003F8FF00000
003F8FF00000
003F8FF00000
001F8FE00000
001FDFE00000
001FFFC00000
001FFFC00000
001FFF800000
001FFF800000
000FFF800000
000FFF000000
000FFF000000
000FFF000000
000FFE000000
000FFE000000
000FFE000000
000FFC000000
000FFC000000
001FFC000000
001FF8000000
001FF8000000
003FF0000000
1FFFF0000000
7FFFF0000000
FFFFE0000000
FFFFC0000000
FFFF80000000
FFFF00000000
7FFE00000000
3FF000000000
ENDCHAR
STARTCHAR 0131
ENCODING 305
SWIDTH 208 0
DWIDTH 20 0
BBX 9 52 6 0
BITMAP
3E00
7F00
FF80
FF80
FF80
FF80
FF80
FF80
FF80
FF80
FF80
FF80
FF80
FF80
FF80
FF80
FF80
FF80
FF80
FF80
FF80
FF80
FF80
FF80
FF80
FF80
FF80
FF80
FF80
FF80
FF80
FF80
FF80
FF80
FF80
FF80
FF80
FF80
FF80
FF80
FF80
FF80
FF80
FF80
FF80
FF80
FF80
FF80
FF80
7F00
7F00
1E00
ENDCHAR
STARTCHAR 0152
ENCODING 338
SWIDTH 958 0
DWIDTH 92 0
BBX 88 68 3 0
BITMAP
000007FFFFE007FFFFFFFC
00001FFFFFF00FFFFFFFFE
00007FFFFFFC0FFFFFFFFF
0001FFFFFFFE0FFFFFFFFF
0007FFFFFFFF8FFFFFFFFF
000FFFFFFFFFCFFFFFFFFF
001FFFFFFFFFCFFFFFFFFE
003FFFFFFFFFEFFFFFFFFE
007FFFFFFFFFFFFFFFFFF8
00FFF800007FFFF8000000
01FFE000001FFFF8000000
03FFC000000FFFF8000000
07FF80000007FFF8000000
07FF00000003FFF8000000
0FFE00000001FFF8000000
0FFC00000000FFF8000000
1FF8000000007FF8000000
3FF0000000007FF8000000
3FF0000000003FF8000000
3FE0000000003FF8000000
7FE0000000001FF8000000
7FC0000000001FFC000000
7FC0000000000FFFFFFFE0
7FC0000000000FFFFFFFF8
FFC0000000000FFFFFFFF8
FF80000000000FFFFFFFFC
FF80000000000FFFFFFFFC
FF80000000000FFFFFFFFC
FF80000000000FFFFFFFFC
FF80000000000FFFFFFFF0
FF80000000000FFC000000
FF80000000000FF8000000
FF80000000000FF8000000
FF80000000000FF8000000
FF80000000000FF8000000
FF80000000000FF8000000
FF80000000000FF8000000
FF80000000000FF8000000
FF80000000000FF8000000
FF80000000000FF8000000
FF80000000000FF8000000
7F80000000000FF8000000
7F80000000000FF8000000
7F80000000000FF8000000
7F80000000001FF8000000
3FC0000000001FF8000000
3FC0000000001FF8000000
3FE0000000003FF8000000
1FE0000000003FF8000000
1FF0000000007FF8000000
1FF0000000007FF8000000
0FF800000000FFF8000000
0FFC00000001FFF8000000
07FE00000003FFF8000000
07FF00000007FFF8000000
03FFC000000FFFF8000000
01FFE000003FFFF8000000
00FFFC0000FFFFF8000000
007FFF8003FFFFFE000000
007FFFFFFFFFFFFFFFFFFC
003FFFFFFFFFEFFFFFFFFE
001FFFFFFFFFCFFFFFFFFF
000FFFFFFFFF8FFFFFFFFF
0007FFFFFFFE0FFFFFFFFF
0003FFFFFFFC0FFFFFFFFF
0000FFFFFFF80FFFFFFFFF
00003FFFFFE007FFFFFFFF
00001FFFFE0003FFFFFFFC
ENDCHAR
STARTCHAR 0153
ENCODING 339
SWIDTH 875 0
DWIDTH 84 0
BBX 79 52 3 0
BITMAP
0001FFF000001FFFC000
0007FFFE00003FFFF000
001FFFFFE0007FFFF800
003FFFFFF801FFFFFE00
00FFFFFFFC03FFFFFF00
01FFFFFFFE07FFFFFF80
03FFFFFFFF07FFFFFFC0
03FFFFFFFF8FFFFFFFE0
07FFFFFFFFDFFFFFFFE0
0FFE0003FFFFE000FFF0
0FFC0000FFFFC0007FF0
1FF000003FFF80003FF8
1FE000000FFF00001FF8
3FE0000007FF00000FF8
3FC0000007FF00000FF8
7F80000003FFFFFFFFF8
7F00000003FFFFFFFFF8
7F00000001FFFFFFFFF8
7F00000001FFFFFFFFF8
FF00000001FFFFFFFFF8
FF00000001FFFFFFFFF0
FF00000001FFFFFFFFF0
FF00000001FFFFFFFFC0
FF00000001FF80000000
FF00000001FF00000000
FF00000001FF00000000
FF00000001FF00000000
FF00000001FF00000000
FF00000001FF00000000
FF00000001FF00000000
FF00000001FF00000000
FF00000001FF00000000
FF80000001FF00000000
FF80000001FF00000000
FF80000003FF00000000
FFC0000003FF00000000
FFC0000007FF80000000
7FE0000007FFC0000000
7FE000000FFFE0000000
3FF000001FFFF8000000
1FFC00003FFFFC000000
0FFF00007FFFFF000000
0FFF8001FFFFFFC00000
07FFF807FFFFFFFC0000
03FFFFFFFF87FFFFFFFC
01FFFFFFFF03FFFFFFFE
00FFFFFFFE00FFFFFFFE
007FFFFFFC007FFFFFFE
003FFFFFF8001FFFFFFE
000FFFFFE00007FFFFFC
0003FFFF800000FFFFF8
0000FFFC0000000FFFF0
ENDCHAR
STARTCHAR 0178
ENCODING 376
SWIDTH 458 0
DWIDTH 44 0
BBX 42 86 1 0
BITMAP
000700780000
000FC0FC0000
001FC1FC0000
001FC1FE0000
001FC1FE0000
003FC1FE0000
003FC1FE0000
003FC1FE0000
003FC1FE0000
003FC1FE0000
001FC1FE0000
001FC1FC0000
000FC0FC0000
000F00780000
000000000000
000000000000
000000000000
000000000000
7F0000003F00
FF8000007F00
FFC00000FF80
FFC00001FFC0
FFE00001FF80
FFE00003FF80
7FE00003FF80
3FF00007FF00
1FF80007FF00
1FF8000FFE00
0FFC000FFC00
07FC001FF800
07FE003FF000
03FE007FF000
03FF007FE000
01FF80FFC000
00FF80FF8000
00FFC1FF8000
007FC3FF0000
003FE3FF0000
003FFFFE0000
001FFFFC0000
001FFFF80000
000FFFF80000
0007FFF00000
0007FFE00000
0003FFE00000
0003FFC00000
0001FF800000
0001FF800000
0001FF000000
0001FF000000
0001FF000000
0001FF000000
0001FF000000
0001FF000000
0001FF000000
0001FF000000
0001FF000000
0001FF000000
0001FF000000
0001FF000000
0001FF000000
0001FF000000
0001FF000000
0001FF000000
0001FF000000
0001FF000000
0001FF000000
0001FF000000
0001FF000000
0001FF000000
0001FF000000
0001FF000000
0001FF000000
0001FF000000
0001FF000000
0001FF000000
0001FF000000
0001FF000000
0001FF000000
0001FF000000
0001FF000000
0001FF000000
0001FF000000
0001FF000000
0000FE000000
00007C000000
ENDCHAR
STARTCHAR 02C6
ENCODING 710
SWIDTH 270 0
DWIDTH 26 0
BBX 22 15 -6 55
BITMAP
007000
01FC00
01FE00
03FF00
07FF80
0FFFC0
1FFFE0
3FFFF0
7FCFF8
FF87FC
FF03FC
FE03FC
FE01FC
7C00F8
380070
ENDCHAR
STARTCHAR 02C7
ENCODING 711
SWIDTH 270 0
DWIDTH 26 0
BBX 22 12 -6 56
BITMAP
7C00F8
FE01FC
FF07FC
FFCFF8
7FFFF0
3FFFC0
1FFF80
07FF00
03FF00
01FE00
00FC00
003800
ENDCHAR
STARTCHAR 02DC
ENCODING 732
SWIDTH 270 0
DWIDTH 26 0
BBX 26 11 -8 57
BITMAP
1FFE0F80
7FFF8FC0
7FFFFFC0
FFFFFFC0
FFFFFFC0
FFFFFFC0
FFFFFF80
FC7FFF80
FC3FFF80
F81FFF00
F00FF800
ENDCHAR
STARTCHAR 2013
ENCODING 8211
SWIDTH 500 0
DWIDTH 48 0
BBX 44 8 2 29
BITMAP
1FFFFFFFFF80
7FFFFFFFFFE0
7FFFFFFFFFE0
FFFFFFFFFFF0
FFFFFFFFFFE0
FFFFFFFFFFE0
7FFFFFFFFFE0
3FFFFFFFFFC0
ENDCHAR
STARTCHAR 2014
ENCODING 8212
SWIDTH 666 0
DWIDTH 64 0
BBX 64 8 0 24
BITMAP
FFFFFFFFFFFFFFFF
FFFFFFFFFFFFFFFF
FFFFFFFFFFFFFFFF
FFFFFFFFFFFFFFFF
FFFFFFFFFFFFFFFF
FFFFFFFFFFFFFFFF
FFFFFFFFFFFFFFFF
FFFFFFFFFFFFFFFF
ENDCHAR
STARTCHAR 2018
ENCODING 8216
SWIDTH 208 0
DWIDTH 20 0
BBX 11 20 5 47
BITMAP
0380
0FC0
0FE0
1FE0
3FE0
3FE0
7FE0
7FE0
FFE0
FFE0
FFE0
FFE0
FFE0
FFE0
FFE0
FFE0
FFE0
7FC0
7FC0
3F00
ENDCHAR
STARTCHAR 2019
ENCODING 8217
SWIDTH 208 0
DWIDTH 20 0
BBX 11 20 5 47
BITMAP
0FC0
3FE0
7FE0
FFE0
FFE0
FFE0
FFE0
FFE0
FFE0
FFE0
FFE0
FFE0
FFE0
FFE0
FFC0
FF80
FF00
FF00
FC00
F000
ENDCHAR
STARTCHAR 201A
ENCODING 8218
SWIDTH 208 0
DWIDTH 20 0
BBX 11 23 5 -10
BITMAP
1F80
7FC0
7FE0
FFE0
FFE0
FFE0
FFE0
FFE0
FFE0
FFE0
FFC0
FFC0
FFC0
FF80
FF80
FF80
FF00
FF00
FE00
FE00
FC00
7C00
7800
ENDCHAR
STARTCHAR 201C
ENCODING 8220
SWIDTH 354 0
DWIDTH 34 0
BBX 26 20 4 48
BITMAP
03E003C0
07E00FC0
0FE01FC0
1FE03FC0
3FE03FC0
7FE07FC0
FFE0FFC0
FFE0FFC0
FFE0FFC0
FFE1FFC0
FFE1FFC0
FFE1FFC0
FFE1FFC0
FFE1FFC0
FFE1FFC0
FFE1FFC0
FFE1FFC0
FFE1FF80
FFC0FF00
7F007E00
ENDCHAR
STARTCHAR 201D
ENCODING 8221
SWIDTH 354 0
DWIDTH 34 0
BBX 25 20 5 48
BITMAP
1F80FE00
7FC1FF80
7FE3FF80
FFE3FF80
FFE3FF80
FFE3FF80
FFE3FF80
FFE3FF80
FFE3FF80
FFE3FF80
FFE3FF80
FFE3FF00
FFE3FF00
FFE3FE00
FFC3FE00
FF83FC00
FF03F800
FF03F000
FE03E000
7803C000
ENDCHAR
STARTCHAR 201E
ENCODING 8222
SWIDTH 354 0
DWIDTH 34 0
BBX 26 21 4 -8
BITMAP
0F003F00
3FC0FF00
7FC1FF80
FFC1FF80
FFE1FFC0
FFE1FFC0
FFE1FFC0
FFE1FFC0
FFE1FFC0
FFE1FFC0
FFE1FFC0
FFE1FF80
FFE1FF80
FFC1FF00
FFC1FF00
FF81FE00
FF01FC00
FF01F800
FE01F800
7C01F000
10000000
ENDCHAR
STARTCHAR 2020
ENCODING 8224
SWIDTH 416 0
DWIDTH 40 0
BBX 35 68 2 0
BITMAP
0000F80000
0001FC0000
0003FC0000
0007FC0000
0007FC0000
0007FC0000
0007FC0000
0007FC0000
0007FC0000
0007FC0000
0007FC0000
0007FC0000
0007FC0000
0007FC0000
0007FC0000
0007FC0000
7FFFFFFF80
FFFFFFFFC0
FFFFFFFFC0
FFFFFFFFE0
FFFFFFFFE0
FFFFFFFFE0
FFFFFFFFC0
7FFFFFFF80
000FFE0000
0007FC0000
0007FC0000
0007FC0000
0007FC0000
0007FC0000
0007FC0000
0007FC0000
0007FC0000
0007FC0000
0007FC0000
0007FC0000
0007FC0000
0007FC0000
0007FC0000
0007FC0000
0007FC0000
0007FC0000
0007FC0000
0007FC0000
0007FC0000
0007FC0000
0007FC0000
0007FC0000
0007FC0000
0007FC0000
0007FC0000
0007FC0000
0007FC0000
0007FC0000
0007FC0000
0007FC0000
0007FC0000
0007FC0000
0007FC0000
0007FC0000
0007FC0000
0007FC0000
0007FC0000
0007FC0000
0007FC0000
0007FC0000
0003F80000
0000F00000
ENDCHAR
STARTCHAR 2022
ENCODING 8226
SWIDTH 333 0
DWIDTH 32 0
BBX 26 25 3 22
BITMAP
00FFC000
03FFF000
07FFF800
0FFFFC00
1FFFFE00
3FFFFF00
3FFFFF00
7FFFFF80
7FFFFF80
7FFFFF80
7FFFFF80
FFFFFFC0
FFFFFFC0
7FFFFF80
7FFFFF80
7FFFFF80
7FFFFF80
3FFFFF00
3FFFFF00
1FFFFE00
0FFFFC00
07FFF800
03FFF000
00FFC000
00040000
ENDCHAR
STARTCHAR 2026
ENCODING 8230
SWIDTH 1000 0
DWIDTH 96 0
BBX 75 11 11 0
BITMAP
0F0000000F0000000F00
3F8000003F8000003F80
7FC000007FC000007FC0
FFE00000FFE00000FFE0
FFE00000FFE00000FFE0
FFE00000FFE00000FFE0
FFE00000FFE00000FFE0
FFE00000FFE00000FFE0
7FC000007FC000007FC0
3F8000003F8000003F80
1F0000001F0000001F00
ENDCHAR
STARTCHAR 2044
ENCODING 8260
SWIDTH 125 0
DWIDTH 12 0
BBX 30 68 -9 0
BITMAP
00000038
0000007C
000000FC
000000FC
000001FC
000001F8
000001F0
000001F0
000003F0
000003E0
000003E0
000003C0
000007C0
000007C0
00000F80
00000F80
00000F00
00000F00
00001F00
00001E00
00003E00
00003E00
00003C00
00007C00
00007800
00007800
0000F000
0000F000
0001F000
0001E000
0003E000
0003C000
0007C000
0007C000
000F8000
000F8000
000F8000
001F0000
001F0000
003E0000
003E0000
003E0000
007C0000
007C0000
00780000
00F80000
00F80000
00F80000
01F00000
01F00000
01F00000
03E00000
03E00000
07C00000
07C00000
0F800000
0F000000
1F000000
1F000000
1E000000
3E000000
3C000000
7C000000
7C000000
FC000000
FC000000
F8000000
70000000
ENDCHAR
STARTCHAR 2122
ENCODING 8482
SWIDTH 687 0
DWIDTH 66 0
BBX 59 32 2 36
BITMAP
FFFFFF8FE0000FE0
FFFFFF8FF0001FE0
FFFFFF8FF0001FE0
FFFFFF8FF0001FE0
FFFFFF8FF8003FE0
003F000FF8003FE0
003F000FF8003FE0
003F000FFC007FE0
003F000FFC007FE0
003F000FBC007BE0
003F000FBE00FBE0
003F000FBE00FBE0
003F000F9E00F3E0
003F000F9F01F3E0
003F000F9F01F3E0
003F000F8F01E3E0
003F000F8F83E3E0
003F000F8F83E3E0
003F000F8783C3E0
003F000F87C7C3E0
003F000F87C7C3E0
003F000F83C783E0
003F000F83EF83E0
003F000F83EF83E0
003F000F81EF03E0
003F000F81FF03E0
003F000F81FF03E0
003F000F81FE03E0
003F000F80FE03E0
003F000F80FE03E0
003F000F80FE03E0
003F000F807C03E0
ENDCHAR
STARTCHAR 2212
ENCODING 8722
SWIDTH 666 0
DWIDTH 64 0
BBX 64 8 0 24
BITMAP
FFFFFFFFFFFFFFFF
FFFFFFFFFFFFFFFF
FFFFFFFFFFFFFFFF
FFFFFFFFFFFFFFFF
FFFFFFFFFFFFFFFF
FFFFFFFFFFFFFFFF
FFFFFFFFFFFFFFFF
FFFFFFFFFFFFFFFF
ENDCHAR
STARTCHAR F6C9
ENCODING 63177
SWIDTH 270 0
DWIDTH 26 0
BBX 14 15 -1 73
BITMAP
00F0
01F8
03FC
07FC
07FC
0FFC
1FF8
3FF8
3FE0
7FC0
FF80
FF00
FE00
FC00
3000
ENDCHAR
STARTCHAR F6CA
ENCODING 63178
SWIDTH 270 0
DWIDTH 26 0
BBX 26 14 -8 73
BITMAP
3C000F00
7F001F80
FF803FC0
FF807FC0
FFE1FF80
7FF3FF80
3FFFFF00
1FFFFE00
0FFFF800
03FFE000
01FFC000
00FF8000
00FF0000
007E0000
ENDCHAR
STARTCHAR F6CB
ENCODING 63179
SWIDTH 270 0
DWIDTH 26 0
BBX 22 14 -6 72
BITMAP
1E00F0
7F01F8
FF83FC
FF87FC
FF87FC
FF87FC
FF87FC
FF87FC
FF87FC
FF87FC
FF87FC
7F87FC
3F03F8
3E01F0
ENDCHAR
STARTCHAR F6CE
ENCODING 63182
SWIDTH 270 0
DWIDTH 26 0
BBX 14 14 -4 73
BITMAP
3E00
7F00
FF80
FF80
FFC0
7FC0
7FF0
3FFC
1FFC
0FFC
07FC
01FC
00FC
003C
ENDCHAR
STARTCHAR F6DC
ENCODING 63196
SWIDTH 333 0
DWIDTH 32 0
BBX 22 69 2 0
BITMAP
0000F0
0003F8
0007FC
000FFC
003FFC
007FFC
01FFFC
03FFFC
0FFFFC
1FFFFC
7FFFFC
7FFFFC
FFFFFC
FFCFFC
FF87FC
7F07FC
7E07FC
3807FC
0007FC
0007FC
0007FC
0007FC
0007FC
0007FC
0007FC
0007FC
0007FC
0007FC
0007FC
0007FC
0007FC
0007FC
0007FC
0007FC
0007FC
0007FC
0007FC
0007FC
0007FC
0007FC
0007FC
0007FC
0007FC
0007FC
0007FC
0007FC
0007FC
0007FC
0007FC
0007FC
0007FC
0007FC
0007FC
0007FC
0007FC
0007FC
0007FC
0007FC
0007FC
0007FC
0007FC
0007FC
0007FC
0007FC
0007FC
0007FC
0007F8
0003F8
0001F0
ENDCHAR
STARTCHAR FB01
ENCODING 64257
SWIDTH 437 0
DWIDTH 42 0
BBX 36 68 1 0
BITMAP
000FF00F80
003FFC1FC0
007FFE3FE0
00FFFE3FF0
00FFFE3FF0
01FFFE3FF0
03FFFE3FF0
03FFFE3FF0
03FFFC3FF0
07FF003FF0
07FC003FE0
07FC003FE0
07FC001FC0
07FC000F00
07FC000000
07FC000000
7FFFF80FC0
FFFFFE1FE0
FFFFFE3FF0
FFFFFE3FF0
FFFFFE3FF0
FFFFFE3FF0
FFFFFE3FF0
FFFFFE3FF0
7FFFF83FF0
07FC003FF0
07FC003FF0
07FC003FF0
07FC003FF0
07FC003FF0
07FC003FF0
07FC003FF0
07FC003FF0
07FC003FF0
07FC003FF0
07FC003FF0
07FC003FF0
07FC003FF0
07FC003FF0
07FC003FF0
07FC003FF0
07FC003FF0
07FC003FF0
07FC003FF0
07FC003FF0
07FC003FF0
07FC003FF0
07FC003FF0
07FC003FF0
07FC003FF0
07FC003FF0
07FC003FF0
07FC003FF0
07FC003FF0
07FC003FF0
07FC003FF0
07FC003FF0
07FC003FF0
07FC003FF0
07FC003FF0
07FC003FF0
07FC003FF0
07FC003FF0
07FC003FF0
07FC003FF0
03FC001FE0
03FC000FC0
00F0000780
ENDCHAR
STARTCHAR FB02
ENCODING 64258
SWIDTH 437 0
DWIDTH 42 0
BBX 36 68 1 0
BITMAP
000FF807C0
003FFC0FE0
007FFE1FF0
00FFFF1FF0
00FFFF1FF0
01FFFF1FF0
03FFFF1FF0
03FFFE1FF0
07FFFC1FF0
07FF001FF0
07FC001FF0
07FC001FF0
07FC001FF0
07FC001FF0
07FC001FF0
07FC001FF0
7FFFFC1FF0
7FFFFE1FF0
FFFFFF1FF0
FFFFFF1FF0
FFFFFF1FF0
FFFFFF1FF0
FFFFFF1FF0
FFFFFE1FF0
7FFFFC1FF0
07FC001FF0
07FC001FF0
07FC001FF0
07FC001FF0
07FC001FF0
07FC001FF0
07FC001FF0
07FC001FF0
07FC001FF0
07FC001FF0
07FC001FF0
07FC001FF0
07FC001FF0
07FC001FF0
07FC001FF0
07FC001FF0
07FC001FF0
07FC001FF0
07FC001FF0
07FC001FF0
07FC001FF0
07FC001FF0
07FC001FF0
07FC001FF0
07FC001FF0
07FC001FF0
07FC001FF0
07FC001FF0
07FC001FF0
07FC001FF0
07FC001FF0
07FC001FF0
07FC001FF0
07FC001FF0
07FC001FF0
07FC001FF0
07FC001FF0
07FC001FF0
07FC001FF0
07FC001FF0
03FC000FE0
03FC000FE0
00F00003C0
ENDCHAR
ENDFONT
